<svg height="256" viewBox="0 0 256 256" width="256" xmlns="http://www.w3.org/2000/svg"><path d="m115.8 62.9h.2v125.9l136.1 61.7v-248zm39.1 131-31.1-14.1v-27.9l25.8 4a2.5 2.5 0 1 0 1.5.2l3.8.6zm0-49.1-16-2.4a2.8 2.8 0 0 0 .4-1.3 2.5 2.5 0 1 0 -5 0c0 .2.1.4.1.6l-5.3-.8a2.6 2.6 0 0 0 -2.5-2.3 2.5 2.5 0 0 0 -2.3 1.5h-.5v-28.2h.4a2.6 2.6 0 0 0 2.4 1.8 2.5 2.5 0 0 0 2.5-2.5l5.4-.9a2.9 2.9 0 0 0 -.2.9 2.5 2.5 0 0 0 5 0 2.5 2.5 0 0 0 -.6-1.5l16.2-2.5zm0-49.5-31.1 4.8v-27.9l23.3-10.4a3.6 3.6 0 0 0 -.2 1 2.5 2.5 0 0 0 5 0 2.4 2.4 0 0 0 -1.7-2.3l4.7-2.1zm42.8 118-1.4-.6a2.4 2.4 0 0 0 1.3-2.1 2.5 2.5 0 0 0 -5 0v.4l-6.9-3.1a2.6 2.6 0 0 0 1.6-2.3 2.5 2.5 0 0 0 -5 0 2.9 2.9 0 0 0 .2.9l-7.5-3.5a2.3 2.3 0 0 0 2.2-2.4 2.5 2.5 0 1 0 -4.9 0 3.3 3.3 0 0 0 .4 1.4l-6.1-2.8v-40.8l1.4.3a2.3 2.3 0 0 0 -.8 1.8 2.5 2.5 0 0 0 2.5 2.5 2.5 2.5 0 0 0 2.5-2.5 2.8 2.8 0 0 0 -.4-1.3l.8.2a2 2 0 0 0 -.3 1.1 2.5 2.5 0 1 0 4.9 0v-.4h.2v.4a2.5 2.5 0 0 0 2.5 2.5 2.5 2.5 0 0 0 2.5-2.2l15.4 2.4zm0-61.9-31.1-4.7v-41.3l31.1-4.8zm0-62.7-15.6 2.4c0-.1.1-.2.1-.4a2.5 2.5 0 0 0 -2.1-2.8 2.4 2.4 0 0 0 -2.8 2.2 2.5 2.5 0 0 0 .4 1.7l-11.1 1.7v-40.4l5.7-2.5a2.6 2.6 0 0 0 2.4 2.2 2.5 2.5 0 0 0 2.5-2.5 2.3 2.3 0 0 0 -.6-1.6l6-2.7a2.3 2.3 0 0 0 2.3 1.8 2.5 2.5 0 0 0 2.5-2.5 1.7 1.7 0 0 0 -.4-1.2l1.4-.7a2.8 2.8 0 0 0 -.9 1.9 2.5 2.5 0 1 0 2.5-2.5h-.4l3.3-1.4a2.4 2.4 0 0 0 2.2 1.3 2.5 2.5 0 0 0 2.5-2.5 2.9 2.9 0 0 0 -.2-.9h.3zm42.8 144-5.8-2.6a3.6 3.6 0 0 0 .2-1.1 2.5 2.5 0 0 0 -2.5-2.5 2.5 2.5 0 0 0 -2.3 1.5l-10.6-4.8a2.4 2.4 0 0 0 -2.3-1.7l-1 .2-2.5-1.1a2.6 2.6 0 0 0 .9-1.9 2.5 2.5 0 0 0 -5 0h-.2v-53.6l11.3 1.7a2.2 2.2 0 0 0 -.9 1.9 2.5 2.5 0 0 0 2.5 2.5 2.5 2.5 0 0 0 2.5-2.5 2.4 2.4 0 0 0 -.5-1.4l16.2 2.5zm0-74.7-5.8-.9a4.3 4.3 0 0 0 .2-1.1 2.5 2.5 0 0 0 -2.5-2.5 2.5 2.5 0 0 0 -2.5 2.5c0 .1.1.2.1.4l-20.6-3.2v-54.5l1.5-.2a2.4 2.4 0 0 0 -1.3 2.2 2.5 2.5 0 1 0 5 0 2.4 2.4 0 0 0 -2.1-2.4l7.7-1.2a2.7 2.7 0 0 0 2.1 1.1 2.5 2.5 0 0 0 2.3-1.8l5.4-.8a.1.1 0 0 0 -.1.1 2.5 2.5 0 0 0 2.5 2.5 2.5 2.5 0 0 0 2.5-2.5 2.8 2.8 0 0 0 -.1-.9l5.7-.8zm0-75.9-6.1.9a2.6 2.6 0 0 0 -2-1 2.4 2.4 0 0 0 -2.3 1.7l-5.3.8a2.5 2.5 0 0 0 -2.5-2.5 2.5 2.5 0 0 0 -2.5 2.5 2.2 2.2 0 0 0 .1.8l-6 .9a2.6 2.6 0 0 0 .7-1.7 2.5 2.5 0 0 0 -5 0 2.3 2.3 0 0 0 1.3 2.1l-1.5.3v-52.8h.2v.2a2.5 2.5 0 1 0 5 0 2.6 2.6 0 0 0 -1-2l16.5-7.3a2.4 2.4 0 0 0 4.8-.7 2 2 0 0 0 -.4-1.3l6-2.6zm-156.5 19.4s-1.8-18.8-3.5-26c-7.1-30.9-40.2-59.2-77.3-61.7v237.7h34v-36h12.8c18.8 0 33-15.9 33-34.8v-20.6h14.7a6.9 6.9 0 0 0 7-6.8 5.1 5.1 0 0 0 -.5-2.5zm-22.8 11.6a9.2 9.2 0 1 1 9.2-9.2 9.2 9.2 0 0 1 -9.2 9.2zm128.8 75a2.5 2.5 0 1 1 2.5-2.5 2.5 2.5 0 0 1 -2.5 2.5zm0 5a2.5 2.5 0 1 1 2.5-2.5 2.5 2.5 0 0 1 -2.5 2.5zm0-10a2.5 2.5 0 1 1 2.5-2.5 2.5 2.5 0 0 1 -2.5 2.5zm0 15a2.5 2.5 0 1 1 2.5-2.5 2.5 2.5 0 0 1 -2.5 2.5zm0 5a2.5 2.5 0 0 1 2.5 2.5 2.5 2.5 0 1 1 -5 0 2.5 2.5 0 0 1 2.5-2.5zm-5.1-35.1a2.5 2.5 0 1 1 2.5-2.5 2.5 2.5 0 0 1 -2.5 2.5zm0 0a2.5 2.5 0 1 1 -2.5 2.5 2.5 2.5 0 0 1 2.5-2.5zm5.1 35.1a2.5 2.5 0 1 1 2.5-2.5 2.5 2.5 0 0 1 -2.5 2.5zm0-25a2.5 2.5 0 1 1 2.5-2.5 2.5 2.5 0 0 1 -2.5 2.5zm5.1-130.3a2.5 2.5 0 1 1 -2.5 2.5 2.5 2.5 0 0 1 2.5-2.5zm-25.4 145.3a2.5 2.5 0 0 1 0 5 2.5 2.5 0 0 1 0-5zm10.1-5a2.5 2.5 0 0 1 0 5 2.5 2.5 0 0 1 0-5zm0 5a2.5 2.5 0 0 1 0 5 2.5 2.5 0 0 1 0-5zm-10.1-15a2.5 2.5 0 0 1 0 5 2.5 2.5 0 0 1 0-5zm20.3-10.1a2.5 2.5 0 1 1 -2.5 2.5 2.5 2.5 0 0 1 2.5-2.5zm-20.3 15.1a2.5 2.5 0 0 1 0 5 2.5 2.5 0 0 1 0-5zm10.1 15a2.5 2.5 0 0 1 0 5 2.5 2.5 0 0 1 0-5zm-10.1-20a2.5 2.5 0 0 1 0-5 2.5 2.5 0 0 1 0 5zm0 10a2.5 2.5 0 0 1 0 5 2.5 2.5 0 0 1 0-5zm25.4-20.1a2.5 2.5 0 1 1 2.5-2.5 2.5 2.5 0 0 1 -2.5 2.5zm0 0a2.5 2.5 0 1 1 -2.5 2.5 2.5 2.5 0 0 1 2.5-2.5zm-5.1 0a2.5 2.5 0 1 1 2.5-2.5 2.5 2.5 0 0 1 -2.5 2.5zm-10.2 10.1a2.5 2.5 0 0 1 0 5 2.5 2.5 0 0 1 0-5zm0 5a2.5 2.5 0 0 1 0 5 2.5 2.5 0 0 1 0-5zm0-5a2.5 2.5 0 0 1 0-5 2.5 2.5 0 0 1 0 5zm0-95.2a2.5 2.5 0 0 1 0 5 2.5 2.5 0 0 1 0-5zm15.3-40.1a2.5 2.5 0 1 1 -2.5 2.5 2.5 2.5 0 0 1 2.5-2.5zm-15.3 20.1a2.5 2.5 0 0 1 2.5 2.5 2.5 2.5 0 0 1 -2.5 2.5 2.5 2.5 0 0 1 -2.5-2.5 2.6 2.6 0 0 1 2.5-2.5zm0-5a2.5 2.5 0 1 1 0-4.9 2.5 2.5 0 1 1 0 4.9zm0 10a2.5 2.5 0 0 1 0 5 2.5 2.5 0 0 1 0-5zm7.6 17.5a2.5 2.5 0 1 1 -2.5-2.5 2.5 2.5 0 0 1 2.5 2.5zm-7.6-7.5a2.5 2.5 0 0 1 0 5 2.5 2.5 0 0 1 0-5zm0-5a2.5 2.5 0 0 1 0 5 2.5 2.5 0 0 1 0-5zm10.2 0a2.5 2.5 0 1 1 -2.5 2.5 2.5 2.5 0 0 1 2.5-2.5zm-2.6 2.5a2.5 2.5 0 1 1 -2.5-2.5 2.5 2.5 0 0 1 2.5 2.5zm2.6 2.5a2.5 2.5 0 1 1 -2.5 2.5 2.5 2.5 0 0 1 2.5-2.5zm5.1 130.2a2.5 2.5 0 0 1 -2.5-2.5 2.5 2.5 0 0 1 5 0 2.5 2.5 0 0 1 -2.5 2.5zm-5.1-125.2a2.5 2.5 0 1 1 -2.5 2.5 2.5 2.5 0 0 1 2.5-2.5zm-2.6-17.5a2.5 2.5 0 0 1 -5 0 2.5 2.5 0 0 1 5 0zm0-9.9a2.5 2.5 0 1 1 -2.5-2.5 2.5 2.5 0 0 1 2.5 2.5zm-7.6 2.4a2.5 2.5 0 0 1 2.5 2.5 2.5 2.5 0 0 1 -2.5 2.5 2.5 2.5 0 0 1 -2.5-2.5 2.6 2.6 0 0 1 2.5-2.5zm10.2 10a2.5 2.5 0 1 1 -2.5 2.5 2.5 2.5 0 0 1 2.5-2.5zm-20.3 15a2.5 2.5 0 0 1 0 5 2.5 2.5 0 0 1 0-5zm0-15a2.5 2.5 0 0 1 0 5 2.5 2.5 0 0 1 0-5zm0 5a2.5 2.5 0 0 1 0 5 2.5 2.5 0 0 1 0-5zm0 15a2.5 2.5 0 0 1 0 5 2.5 2.5 0 0 1 0-5zm15.2-40.1a2.5 2.5 0 1 1 -2.5 2.5 2.5 2.5 0 0 1 2.5-2.5zm-7.7 37.6a2.5 2.5 0 1 1 -2.5-2.5 2.5 2.5 0 0 1 2.5 2.5zm0-29.9a2.5 2.5 0 1 1 -2.5-2.5 2.5 2.5 0 0 1 2.5 2.5zm0 19.9a2.5 2.5 0 1 1 -2.5-2.5 2.5 2.5 0 0 1 2.5 2.5zm0-10a2.5 2.5 0 1 1 -4.9 0 2.5 2.5 0 1 1 4.9 0zm-7.5-7.5a2.5 2.5 0 1 1 0-4.9 2.5 2.5 0 1 1 0 4.9zm0 0a2.6 2.6 0 0 1 2.5 2.5 2.5 2.5 0 0 1 -2.5 2.5 2.5 2.5 0 0 1 -2.5-2.5 2.5 2.5 0 0 1 2.5-2.5zm0 5a2.6 2.6 0 0 1 2.5 2.5 2.5 2.5 0 0 1 -2.5 2.5 2.5 2.5 0 0 1 -2.5-2.5 2.5 2.5 0 0 1 2.5-2.5zm0 15a2.5 2.5 0 0 1 0 5 2.5 2.5 0 0 1 0-5zm-25.2 33.2a2.5 2.5 0 0 1 2.5-2.5 2.6 2.6 0 0 1 2.5 2.5 2.5 2.5 0 0 1 -2.5 2.5 2.5 2.5 0 0 1 -2.5-2.5zm0 10a2.5 2.5 0 0 1 2.5-2.5 2.5 2.5 0 0 1 0 5 2.5 2.5 0 0 1 -2.5-2.5zm0 10a2.5 2.5 0 0 1 2.5-2.5 2.5 2.5 0 0 1 0 5 2.5 2.5 0 0 1 -2.5-2.5zm5.1 5a2.5 2.5 0 1 1 2.4 2.5 2.5 2.5 0 0 1 -2.4-2.5zm-10.3-15a2.5 2.5 0 1 1 -2.5-2.5 2.5 2.5 0 0 1 2.5 2.5zm-7.8-48.3a2.5 2.5 0 1 1 -2.4-2.5 2.5 2.5 0 0 1 2.4 2.5zm18.1 43.3a2.5 2.5 0 1 1 2.4 2.5 2.5 2.5 0 0 1 -2.4-2.5zm-18.1-33.3a2.5 2.5 0 1 1 -4.9 0 2.5 2.5 0 1 1 4.9 0zm0 9.9a2.5 2.5 0 1 1 -4.9 0 2.5 2.5 0 1 1 4.9 0zm7.8 38.4a2.5 2.5 0 1 1 -2.5-2.5 2.5 2.5 0 0 1 2.5 2.5zm.1 5a2.5 2.5 0 0 1 2.5-2.5 2.5 2.5 0 0 1 0 5 2.5 2.5 0 0 1 -2.5-2.5zm0-20a2.5 2.5 0 0 1 2.5-2.5 2.5 2.5 0 0 1 0 5 2.5 2.5 0 0 1 -2.5-2.5zm0 10a2.5 2.5 0 0 1 2.5-2.5 2.5 2.5 0 0 1 0 5 2.5 2.5 0 0 1 -2.5-2.5zm5.1 15a2.5 2.5 0 0 1 2.5-2.5 2.5 2.5 0 0 1 0 5 2.5 2.5 0 0 1 -2.5-2.5zm5.1-15a2.5 2.5 0 1 1 2.4 2.5 2.5 2.5 0 0 1 -2.4-2.5zm2.9 62.1a2.5 2.5 0 0 1 -5 0 2.5 2.5 0 0 1 5 0zm-10.2-19.9a2.5 2.5 0 1 1 -2.5-2.5 2.5 2.5 0 0 1 2.5 2.5zm0-10a2.5 2.5 0 1 1 -2.5-2.5 2.5 2.5 0 0 1 2.5 2.5zm0 20a2.5 2.5 0 0 1 -5 0 2.5 2.5 0 0 1 5 0zm-10.2-20a2.5 2.5 0 0 1 -2.5 2.5 2.5 2.5 0 1 1 0-5 2.5 2.5 0 0 1 2.5 2.5zm0 20a2.5 2.5 0 0 1 -2.5 2.5 2.6 2.6 0 0 1 -2.5-2.5 2.5 2.5 0 0 1 2.5-2.5 2.5 2.5 0 0 1 2.5 2.5zm2.1-62.2a2.5 2.5 0 1 1 -2.5-2.5 2.5 2.5 0 0 1 2.5 2.5zm-2.1 52.2a2.5 2.5 0 0 1 -2.5 2.5 2.5 2.5 0 1 1 0-5 2.5 2.5 0 0 1 2.5 2.5zm20.4 10a2.5 2.5 0 0 1 -5 0 2.5 2.5 0 0 1 5 0zm-23.4-57.2a2.5 2.5 0 1 1 -2.5-2.5 2.5 2.5 0 0 1 2.5 2.5zm5.1 5a2.5 2.5 0 1 1 -2.5-2.5 2.5 2.5 0 0 1 2.5 2.5zm0 10a2.5 2.5 0 1 1 -2.5-2.5 2.5 2.5 0 0 1 2.5 2.5zm18.3 32.2a2.5 2.5 0 1 1 -2.5-2.5 2.5 2.5 0 0 1 2.5 2.5zm-23.4-37.2a2.5 2.5 0 1 1 -2.5-2.5 2.5 2.5 0 0 1 2.5 2.5zm40.6 36.9a2.5 2.5 0 0 1 0 5 2.5 2.5 0 0 1 0-5zm15.2 20.1a2.5 2.5 0 1 1 2.5-2.5 2.5 2.5 0 0 1 -2.5 2.5zm0-5a2.5 2.5 0 1 1 2.5-2.5 2.5 2.5 0 0 1 -2.5 2.5zm0 10a2.5 2.5 0 1 1 2.5-2.5 2.5 2.5 0 0 1 -2.5 2.5zm-10.2 5a2.5 2.5 0 1 1 2.5-2.5 2.5 2.5 0 0 1 -2.5 2.5zm10.2-20a2.5 2.5 0 1 1 2.5-2.5 2.5 2.5 0 0 1 -2.5 2.5zm-10.2 10a2.5 2.5 0 1 1 2.5-2.5 2.5 2.5 0 0 1 -2.5 2.5zm10.2 10a2.5 2.5 0 1 1 2.5-2.5 2.5 2.5 0 0 1 -2.5 2.5zm-10.2-5a2.5 2.5 0 1 1 2.5-2.5 2.5 2.5 0 0 1 -2.5 2.5zm20.4 0a2.5 2.5 0 1 1 2.5-2.5 2.5 2.5 0 0 1 -2.5 2.5zm0 5a2.5 2.5 0 1 1 2.5-2.5 2.5 2.5 0 0 1 -2.5 2.5zm0-10a2.5 2.5 0 1 1 2.5-2.5 2.5 2.5 0 0 1 -2.5 2.5zm0-5a2.5 2.5 0 1 1 2.5-2.5 2.5 2.5 0 0 1 -2.5 2.5zm-10.2 20a2.5 2.5 0 1 1 2.5-2.5 2.5 2.5 0 0 1 -2.5 2.5zm10.2-25a2.5 2.5 0 1 1 2.5-2.5 2.5 2.5 0 0 1 -2.5 2.5zm-15.3-10.1a2.5 2.5 0 0 1 0 5 2.5 2.5 0 0 1 0-5zm-27.9-75.3a2.5 2.5 0 1 1 -5 0 2.5 2.5 0 0 1 5 0zm-10.2 0a2.5 2.5 0 0 1 -5 0 2.5 2.5 0 1 1 5 0zm10.2-19.9a2.5 2.5 0 1 1 -2.5-2.5 2.5 2.5 0 0 1 2.5 2.5zm0 10a2.5 2.5 0 0 1 -5 0 2.5 2.5 0 1 1 5 0zm-10.2-10a2.5 2.5 0 1 1 -2.5-2.5 2.5 2.5 0 0 1 2.5 2.5zm0 10a2.5 2.5 0 1 1 -5 0 2.5 2.5 0 0 1 5 0zm33 100.3a2.5 2.5 0 1 1 2.5-2.5 2.5 2.5 0 0 1 -2.5 2.5zm-5-20.1a2.5 2.5 0 0 1 0 5 2.5 2.5 0 0 1 0-5zm5 15.1a2.5 2.5 0 1 1 2.5-2.5 2.5 2.5 0 0 1 -2.5 2.5zm20.4 25a2.5 2.5 0 1 1 2.5-2.5 2.5 2.5 0 0 1 -2.5 2.5zm-20.4-40.1a2.5 2.5 0 1 1 -2.4 2.5 2.5 2.5 0 0 1 2.4-2.5zm5.1 0a2.5 2.5 0 0 1 0 5 2.5 2.5 0 0 1 0-5zm-5.1 5a2.5 2.5 0 1 1 -2.4 2.5 2.5 2.5 0 0 1 2.4-2.5zm22.9-92.6a2.5 2.5 0 1 1 -2.5-2.5 2.5 2.5 0 0 1 2.5 2.5zm34.8 37.9a2.5 2.5 0 0 1 0 5 2.5 2.5 0 0 1 0-5zm0 0a2.5 2.5 0 0 1 0-5 2.5 2.5 0 0 1 0 5zm-17.8-49a2.5 2.5 0 0 1 -5 0 2.5 2.5 0 1 1 5 0zm17.8 59a2.5 2.5 0 0 1 2.5 2.5 2.5 2.5 0 0 1 -2.5 2.5 2.6 2.6 0 0 1 -2.5-2.5 2.5 2.5 0 0 1 2.5-2.5zm0 9.9a2.5 2.5 0 0 1 2.5 2.5 2.5 2.5 0 0 1 -2.5 2.5 2.5 2.5 0 0 1 -2.5-2.5 2.6 2.6 0 0 1 2.5-2.5zm0-4.9a2.5 2.5 0 1 1 0 4.9 2.5 2.5 0 1 1 0-4.9zm2.6-27.6a2.5 2.5 0 1 1 5 0 2.5 2.5 0 0 1 -5 0zm0 10.1a2.5 2.5 0 1 1 2.5 2.5 2.5 2.5 0 0 1 -2.5-2.5zm0 29.9a2.5 2.5 0 0 1 5 0 2.5 2.5 0 0 1 -5 0zm-2.6-2.5a2.5 2.5 0 0 1 2.5 2.5 2.5 2.5 0 0 1 -2.5 2.5 2.5 2.5 0 0 1 -2.5-2.5 2.6 2.6 0 0 1 2.5-2.5zm-17.8-64a2.5 2.5 0 1 1 -5 0 2.5 2.5 0 0 1 5 0zm20.4 76.8a2.5 2.5 0 1 1 2.5 2.5 2.5 2.5 0 0 1 -2.5-2.5zm0-20.2a2.5 2.5 0 1 1 2.5 2.4 2.5 2.5 0 0 1 -2.5-2.4zm0-10a2.5 2.5 0 0 1 5 0 2.5 2.5 0 1 1 -5 0zm-2.6-2.5a2.5 2.5 0 0 1 2.5 2.5 2.5 2.5 0 0 1 -2.5 2.5 2.6 2.6 0 0 1 -2.5-2.5 2.5 2.5 0 0 1 2.5-2.5zm-10.1 0a2.5 2.5 0 0 1 2.5 2.5 2.6 2.6 0 0 1 -2.5 2.5 2.5 2.5 0 0 1 -2.5-2.5 2.5 2.5 0 0 1 2.5-2.5zm0-5a2.5 2.5 0 0 1 0-5 2.5 2.5 0 0 1 0 5zm0 10a2.5 2.5 0 0 1 2.5 2.5 2.6 2.6 0 0 1 -2.5 2.5 2.5 2.5 0 0 1 -2.5-2.5 2.5 2.5 0 0 1 2.5-2.5zm-32.3-60.4a2.5 2.5 0 0 1 2.5 2.5 2.5 2.5 0 0 1 -5 0 2.5 2.5 0 0 1 2.5-2.5zm32.3 75.3a2.6 2.6 0 0 1 2.5 2.5 2.5 2.5 0 0 1 -2.5 2.5 2.5 2.5 0 0 1 -2.5-2.5 2.5 2.5 0 0 1 2.5-2.5zm0-5a2.6 2.6 0 0 1 2.5 2.5 2.5 2.5 0 0 1 -2.5 2.5 2.5 2.5 0 0 1 -2.5-2.5 2.5 2.5 0 0 1 2.5-2.5zm0-4.9a2.5 2.5 0 1 1 0 4.9 2.5 2.5 0 1 1 0-4.9zm10.1 14.9a2.5 2.5 0 1 1 0 5 2.5 2.5 0 0 1 0-5zm-2.6-32.4a2.5 2.5 0 1 1 -2.5-2.5 2.5 2.5 0 0 1 2.5 2.5zm0 10a2.5 2.5 0 1 1 -4.9 0 2.5 2.5 0 1 1 4.9 0zm0-20.1a2.5 2.5 0 1 1 -4.9 0 2.5 2.5 0 1 1 4.9 0zm0 30.1a2.5 2.5 0 1 1 -2.5-2.5 2.5 2.5 0 0 1 2.5 2.5zm0 20.2a2.5 2.5 0 1 1 -2.5-2.5 2.5 2.5 0 0 1 2.5 2.5zm0-10.3a2.5 2.5 0 1 1 -4.9 0 2.5 2.5 0 1 1 4.9 0zm5.2-81.4a2.5 2.5 0 0 1 5 0 2.5 2.5 0 1 1 -5 0zm-.1 5a2.5 2.5 0 0 1 -2.5 2.5 2.6 2.6 0 0 1 -2.5-2.5 2.5 2.5 0 0 1 2.5-2.5 2.5 2.5 0 0 1 2.5 2.5zm0-10a2.5 2.5 0 0 1 -2.5 2.5 2.5 2.5 0 0 1 0-5 2.5 2.5 0 0 1 2.5 2.5zm0-10a2.5 2.5 0 0 1 -2.5 2.5 2.5 2.5 0 0 1 0-5 2.5 2.5 0 0 1 2.5 2.5zm-5.1-5a2.5 2.5 0 1 1 -2.5-2.5 2.5 2.5 0 0 1 2.5 2.5zm5.1-5.1a2.5 2.5 0 0 1 -2.5 2.5 2.6 2.6 0 0 1 -2.5-2.5 2.5 2.5 0 0 1 2.5-2.5 2.5 2.5 0 0 1 2.5 2.5zm-20.3 20.1a2.5 2.5 0 1 1 -2.5-2.5 2.5 2.5 0 0 1 2.5 2.5zm15.2-25.1a2.5 2.5 0 1 1 -2.5-2.5 2.5 2.5 0 0 1 2.5 2.5zm5.2 50.3a2.5 2.5 0 1 1 2.5 2.5 2.5 2.5 0 0 1 -2.5-2.5zm-12.7 63.7a2.5 2.5 0 0 1 0 5 2.5 2.5 0 0 1 0-5zm12.7-73.9a2.5 2.5 0 1 1 2.5 2.4 2.5 2.5 0 0 1 -2.5-2.4zm0-40.1a2.5 2.5 0 1 1 2.5 2.5 2.5 2.5 0 0 1 -2.5-2.5zm-5.2 20.1a2.5 2.5 0 1 1 -2.5-2.5 2.5 2.5 0 0 1 2.5 2.5zm5.2 0a2.5 2.5 0 1 1 2.5 2.5 2.5 2.5 0 0 1 -2.5-2.5zm0-10a2.5 2.5 0 1 1 2.5 2.5 2.5 2.5 0 0 1 -2.5-2.5zm-.1 34.9a2.5 2.5 0 0 1 -2.5 2.5 2.5 2.5 0 0 1 -2.5-2.5 2.6 2.6 0 0 1 2.5-2.5 2.5 2.5 0 0 1 2.5 2.5zm-5.1-14.9a2.5 2.5 0 1 1 -4.9 0 2.5 2.5 0 1 1 4.9 0zm-5 14.9a2.5 2.5 0 0 1 -2.5 2.5 2.5 2.5 0 0 1 -2.5-2.5 2.5 2.5 0 0 1 2.5-2.5 2.6 2.6 0 0 1 2.5 2.5zm-5.1-34.9a2.5 2.5 0 0 1 -2.5 2.5 2.5 2.5 0 0 1 0-5 2.5 2.5 0 0 1 2.5 2.5zm0 20a2.6 2.6 0 0 1 -2.5 2.5 2.5 2.5 0 0 1 -2.5-2.5 2.5 2.5 0 0 1 2.5-2.5 2.5 2.5 0 0 1 2.5 2.5zm-5.1-15a2.5 2.5 0 1 1 -2.5-2.5 2.5 2.5 0 0 1 2.5 2.5zm5.1 35.2a2.5 2.5 0 0 1 -2.5 2.5 2.5 2.5 0 0 1 0-5 2.5 2.5 0 0 1 2.5 2.5zm0-10.2a2.5 2.5 0 0 1 -2.5 2.4 2.5 2.5 0 1 1 0-4.9 2.5 2.5 0 0 1 2.5 2.5zm0-20a2.5 2.5 0 0 1 -2.5 2.5 2.5 2.5 0 0 1 0-5 2.5 2.5 0 0 1 2.5 2.5zm5.1-15.1a2.6 2.6 0 0 1 -2.5 2.5 2.5 2.5 0 0 1 -2.5-2.5 2.5 2.5 0 0 1 2.5-2.5 2.5 2.5 0 0 1 2.5 2.5zm5 45.3a2.5 2.5 0 1 1 -2.5-2.5 2.5 2.5 0 0 1 2.5 2.5zm0-10.2a2.5 2.5 0 1 1 -2.5-2.5 2.5 2.5 0 0 1 2.5 2.5zm-5-25a2.5 2.5 0 0 1 -2.5 2.5 2.5 2.5 0 0 1 0-5 2.5 2.5 0 0 1 2.5 2.5zm0 10a2.5 2.5 0 0 1 -2.5 2.5 2.5 2.5 0 0 1 0-5 2.5 2.5 0 0 1 2.5 2.5zm0 10a2.6 2.6 0 0 1 -2.5 2.5 2.5 2.5 0 0 1 -2.5-2.5 2.5 2.5 0 0 1 2.5-2.5 2.5 2.5 0 0 1 2.5 2.5zm-2.5 49a2.5 2.5 0 0 1 0 5 2.5 2.5 0 0 1 0-5zm2.5 65.4a2.5 2.5 0 0 1 -2.5 2.4 2.5 2.5 0 1 1 0-4.9 2.5 2.5 0 0 1 2.5 2.5zm5.1 20.1a2.5 2.5 0 0 1 2.5-2.5 2.5 2.5 0 0 1 2.5 2.5 2.5 2.5 0 0 1 -2.5 2.5 2.6 2.6 0 0 1 -2.5-2.5zm-5.1-10a2.5 2.5 0 0 1 -2.5 2.5 2.5 2.5 0 0 1 0-5 2.5 2.5 0 0 1 2.5 2.5zm10.2-5a2.5 2.5 0 1 1 2.5 2.5 2.5 2.5 0 0 1 -2.5-2.5zm-10.2 15a2.6 2.6 0 0 1 -2.5 2.5 2.5 2.5 0 0 1 -2.5-2.5 2.5 2.5 0 0 1 2.5-2.5 2.5 2.5 0 0 1 2.5 2.5zm0 19.9a2.5 2.5 0 0 1 -2.5 2.5 2.5 2.5 0 0 1 0-5 2.5 2.5 0 0 1 2.5 2.5zm0-10a2.5 2.5 0 0 1 -2.5 2.5 2.5 2.5 0 0 1 -2.5-2.5 2.5 2.5 0 0 1 2.5-2.5 2.6 2.6 0 0 1 2.5 2.5zm-5.1-35a2.6 2.6 0 0 1 -2.5 2.5 2.5 2.5 0 0 1 -2.5-2.5 2.5 2.5 0 0 1 2.5-2.5 2.5 2.5 0 0 1 2.5 2.5zm10.2 5a2.5 2.5 0 0 1 2.5-2.5 2.5 2.5 0 1 1 0 4.9 2.5 2.5 0 0 1 -2.5-2.4zm5.1 45.3a2.5 2.5 0 1 1 2.5 2.5 2.5 2.5 0 0 1 -2.5-2.5zm-5.1-35.2a2.5 2.5 0 0 1 2.5-2.5 2.5 2.5 0 1 1 0 5 2.5 2.5 0 0 1 -2.5-2.5zm5.1 24.9a2.5 2.5 0 0 1 5 0 2.5 2.5 0 0 1 -5 0zm0-19.9a2.5 2.5 0 0 1 5 0 2.5 2.5 0 0 1 -5 0zm0 10a2.5 2.5 0 1 1 2.5 2.4 2.5 2.5 0 0 1 -2.5-2.4zm0-30.1a2.5 2.5 0 0 1 5 0 2.5 2.5 0 0 1 -5 0zm-37.4-118.2a2.5 2.5 0 1 1 -2.5-2.5 2.5 2.5 0 0 1 2.5 2.5zm17 143.3a2.5 2.5 0 0 1 -5 0 2.5 2.5 0 0 1 5 0zm0 9.9a2.5 2.5 0 0 1 -5 0 2.5 2.5 0 0 1 5 0zm-17-143.3a2.5 2.5 0 0 1 -5 0 2.5 2.5 0 0 1 5 0zm-7.6-7.5a2.5 2.5 0 0 1 2.5 2.5 2.5 2.5 0 1 1 -5 0 2.5 2.5 0 0 1 2.5-2.5zm0 0a2.5 2.5 0 1 1 2.5-2.4 2.5 2.5 0 0 1 -2.5 2.4zm7.6 27.5a2.5 2.5 0 1 1 -2.5-2.5 2.5 2.5 0 0 1 2.5 2.5zm17 93.3a2.5 2.5 0 1 1 -2.5-2.5 2.5 2.5 0 0 1 2.5 2.5zm5.1 35a2.5 2.5 0 0 1 -2.5 2.5 2.5 2.5 0 0 1 -2.5-2.5 2.5 2.5 0 0 1 2.5-2.5 2.6 2.6 0 0 1 2.5 2.5zm0-9.9a2.5 2.5 0 0 1 -2.5 2.4 2.5 2.5 0 1 1 0-4.9 2.5 2.5 0 0 1 2.5 2.5zm0-10a2.6 2.6 0 0 1 -2.5 2.5 2.5 2.5 0 0 1 -2.5-2.5 2.5 2.5 0 0 1 2.5-2.5 2.5 2.5 0 0 1 2.5 2.5zm-5.1-25.1a2.5 2.5 0 1 1 -2.5-2.5 2.5 2.5 0 0 1 2.5 2.5zm5.1 15.1a2.5 2.5 0 0 1 -2.5 2.5 2.5 2.5 0 0 1 0-5 2.5 2.5 0 0 1 2.5 2.5zm-5.1 5a2.5 2.5 0 1 1 -2.5-2.5 2.5 2.5 0 0 1 2.5 2.5zm-2.5-55.6a2.5 2.5 0 0 1 2.5 2.5 2.5 2.5 0 0 1 -5 0 2.5 2.5 0 0 1 2.5-2.5zm0-19.9a2.5 2.5 0 1 1 2.5-2.5 2.5 2.5 0 0 1 -2.5 2.5zm0 5a2.5 2.5 0 0 1 2.5 2.5 2.5 2.5 0 0 1 -5 0 2.5 2.5 0 0 1 2.5-2.5zm0-5a2.5 2.5 0 1 1 -2.5 2.5 2.5 2.5 0 0 1 2.5-2.5zm0 10a2.5 2.5 0 0 1 2.5 2.5 2.5 2.5 0 1 1 -5 0 2.5 2.5 0 0 1 2.5-2.5zm0 5a2.5 2.5 0 1 1 -2.5 2.5 2.5 2.5 0 0 1 2.5-2.5zm0 9.9a2.5 2.5 0 0 1 2.5 2.5 2.5 2.5 0 0 1 -5 0 2.5 2.5 0 0 1 2.5-2.5zm12.7 12.8a2.5 2.5 0 0 1 -2.5 2.5 2.5 2.5 0 0 1 0-5 2.5 2.5 0 0 1 2.5 2.5zm-12.7-7.8a2.5 2.5 0 1 1 -2.5 2.5 2.5 2.5 0 0 1 2.5-2.5zm7.6-32.4a2.5 2.5 0 0 1 -2.5 2.5 2.5 2.5 0 0 1 0-5 2.5 2.5 0 0 1 2.5 2.5zm0 10a2.6 2.6 0 0 1 -2.5 2.5 2.5 2.5 0 0 1 -2.5-2.5 2.5 2.5 0 0 1 2.5-2.5 2.5 2.5 0 0 1 2.5 2.5zm0 30.2a2.5 2.5 0 0 1 -2.5 2.5 2.5 2.5 0 0 1 0-5 2.5 2.5 0 0 1 2.5 2.5zm0-50.3a2.6 2.6 0 0 1 -2.5 2.5 2.5 2.5 0 0 1 -2.5-2.5 2.5 2.5 0 0 1 2.5-2.5 2.5 2.5 0 0 1 2.5 2.5zm0 30.1a2.5 2.5 0 0 1 -2.5 2.4 2.5 2.5 0 1 1 0-4.9 2.5 2.5 0 0 1 2.5 2.5zm0 9.9a2.5 2.5 0 0 1 -2.5 2.5 2.5 2.5 0 0 1 -2.5-2.5 2.5 2.5 0 0 1 2.5-2.5 2.6 2.6 0 0 1 2.5 2.5zm2.6-42.5a2.5 2.5 0 0 1 2.5 2.5 2.6 2.6 0 0 1 -2.5 2.5 2.5 2.5 0 0 1 -2.5-2.5 2.5 2.5 0 0 1 2.5-2.5zm2.6 105.6a2.5 2.5 0 1 1 2.4 2.4 2.5 2.5 0 0 1 -2.4-2.4zm0 9.9a2.5 2.5 0 1 1 4.9 0 2.5 2.5 0 1 1 -4.9 0zm0-19.9a2.5 2.5 0 1 1 4.9 0 2.5 2.5 0 1 1 -4.9 0zm0-20.1a2.5 2.5 0 1 1 4.9 0 2.5 2.5 0 1 1 -4.9 0zm5 45a2.5 2.5 0 0 1 2.5-2.5 2.5 2.5 0 1 1 0 5 2.5 2.5 0 0 1 -2.5-2.5zm-5-34.9a2.5 2.5 0 1 1 2.4 2.5 2.5 2.5 0 0 1 -2.4-2.5zm0 40.2a2.5 2.5 0 1 1 2.4 2.5 2.5 2.5 0 0 1 -2.4-2.5zm-2.6-120.8a2.5 2.5 0 1 1 0 4.9 2.5 2.5 0 1 1 0-4.9zm-10.2 0a2.5 2.5 0 1 1 -2.5 2.5 2.5 2.5 0 0 1 2.5-2.5zm20.3 50.3a2.5 2.5 0 1 1 0-5 2.5 2.5 0 0 1 0 5zm0-50.3a2.5 2.5 0 1 1 0 4.9 2.5 2.5 0 1 1 0-4.9zm-2.5 105.5a2.6 2.6 0 0 1 2.5-2.5 2.5 2.5 0 0 1 2.5 2.5 2.5 2.5 0 0 1 -2.5 2.5 2.5 2.5 0 0 1 -2.5-2.5zm-15.3-57.7a2.5 2.5 0 1 1 -2.5-2.5 2.5 2.5 0 0 1 2.5 2.5zm17.8-52.8a2.5 2.5 0 0 1 2.5 2.5 2.5 2.5 0 0 1 -2.5 2.5 2.6 2.6 0 0 1 -2.5-2.5 2.5 2.5 0 0 1 2.5-2.5z" fill="#010101"/></svg>