<svg height="256" viewBox="0 0 256 256" width="256" xmlns="http://www.w3.org/2000/svg"><path d="m234.5 95.5a8.7 8.7 0 1 1 -8.7-8.7 8.7 8.7 0 0 1 8.7 8.7zm9.9 1.7a8.7 8.7 0 1 0 8.7 8.7 8.7 8.7 0 0 0 -8.7-8.7zm.2-3.8a8.7 8.7 0 1 0 -8.7-8.7 8.7 8.7 0 0 0 8.7 8.7zm-16.2 58.5a7.2 7.2 0 0 1 -6.7 9.8h-11.2v24.1a34 34 0 0 1 -34 34h-13.5v20.9h-54.5v-36.5h-2.2a20.4 20.4 0 0 1 -20.4-20.4 25.6 25.6 0 0 1 .3-3.9l-45.9-16.7a20.4 20.4 0 0 1 -38.2-11.2 20.7 20.7 0 0 1 19.3-19.2 20.5 20.5 0 0 1 10.5 2.3l17.1-23.2-17.1-23.3a19.8 19.8 0 0 1 -9.4 2.3 20.4 20.4 0 1 1 17.8-30.4l45.9-16.7a25.6 25.6 0 0 1 -.3-3.9c0-9.3 7.3-16.1 16.9-19.7 6.6-2.5 14.2-3.2 21.5-3.2 39.1 0 75.2 29.4 82.7 61.7 1.7 7.2 3.6 26 3.6 26zm-185.5-81.4a23.5 23.5 0 0 1 -.8 6l24.3 11.9 25.3-34.2a16.6 16.6 0 0 1 -3.2-4.3l-45.9 16.7a25.6 25.6 0 0 1 .3 3.9zm43 41.1a23.3 23.3 0 0 1 .8-5.9l-18.3-9.1-11.3 15.3 11.1 15 18.6-9.2a20 20 0 0 1 -.9-6.1zm-32.8-5.2 9.3-12.7-23.2-11.4a16.4 16.4 0 0 1 -2.1 2.5zm9.2 23.4-9.2-12.5-16 21.6a24.3 24.3 0 0 1 2 2.5zm29.4 39.8-25.5-34.5-24.2 12.1a19.8 19.8 0 0 1 .9 6 23.8 23.8 0 0 1 -.3 3.9l45.9 16.8a16.6 16.6 0 0 1 3.2-4.3zm16.8-37.7-2.2.2a20.3 20.3 0 0 1 -16.6-8.6l-17.6 8.7 24.8 33.5a21 21 0 0 1 9.4-2.2h2.2zm0-71.7h-2.2a21 21 0 0 1 -9.4-2.2l-24.6 33.3 17.3 8.5a20.5 20.5 0 0 1 16.7-8.6h2.2zm81.6 40a8.7 8.7 0 1 0 -8.7 8.7 8.7 8.7 0 0 0 8.7-8.7z" fill="#010101"/></svg>