<svg height="256" viewBox="0 0 256 256" width="256" xmlns="http://www.w3.org/2000/svg"><path d="m3.1 15.3v229.7h39.5v-30.4h12.7c18.5 0 32.8-15.9 32.8-34.5v-20.2h14.4a6.8 6.8 0 0 0 6.9-6.7 5.9 5.9 0 0 0 -.5-2.7l-20-48.6s-1.8-18.5-3.4-25.6c-7.4-32-42.9-61-81.6-61zm54.1 89a9.2 9.2 0 1 1 9.1 9.1 9.2 9.2 0 0 1 -9.1-9.1zm64.3 102.1v-165.1l131.6-29.8v224.7zm11.2-156.3v147.3l109.3 24.8v-196.9zm23.9 135.3a9 9 0 1 1 -9-9 9 9 0 0 1 9 9zm21.4 5.2a9 9 0 1 1 -9-9.1 9 9 0 0 1 9 9.1zm1.2-22.8a9.1 9.1 0 1 1 -9.1-9 9 9 0 0 1 9.1 9zm19.7 28a9.1 9.1 0 1 1 -9.1-9.1 9 9 0 0 1 9.1 9.1zm20.8 5.1a9.1 9.1 0 0 1 -18.1 0 9.1 9.1 0 1 1 18.1 0zm-63.3-37.2a9.1 9.1 0 1 1 -9-9 9 9 0 0 1 9 9zm0-23.3a9.1 9.1 0 0 1 -18.1 0 9.1 9.1 0 1 1 18.1 0zm78.4-96.7a9.1 9.1 0 0 1 -18.1 0 9.1 9.1 0 1 1 18.1 0zm-21.8 5.7a9.1 9.1 0 1 1 -9-9 9 9 0 0 1 9 9zm-22.4 4.9a9 9 0 1 1 -9-9 9 9 0 0 1 9 9zm44.2 12.9a9.1 9.1 0 1 1 -9-9 9 9 0 0 1 9 9zm-22.9 5.4a9.1 9.1 0 1 1 -9.1-9 9 9 0 0 1 9.1 9zm-1.1 24.3a9 9 0 1 1 -9-9 9 9 0 0 1 9 9zm-23.7-18.3a9.1 9.1 0 1 1 -9-9 9 9 0 0 1 9 9zm47.7 12.4a9.1 9.1 0 1 1 -9-9 9 9 0 0 1 9 9zm0 24.7a9.1 9.1 0 0 1 -18.1 0 9.1 9.1 0 1 1 18.1 0z" fill="#010101"/></svg>