<svg height="256" viewBox="0 0 256 256" width="256" xmlns="http://www.w3.org/2000/svg"><path d="m2.5 15.2v228h39.2v-30.1h12.6c18.4 0 32.6-15.8 32.6-34.3v-20h14.3a6.7 6.7 0 0 0 6.8-6.7 5.8 5.8 0 0 0 -.5-2.6l-19.8-48.3s-1.8-18.4-3.4-25.4c-7.4-31.8-42.6-60.6-81-60.6zm53.7 88.3a9.1 9.1 0 1 1 9.1 9.1 9 9 0 0 1 -9.1-9.1zm197.4-42.5-130.7 15.9v-35.7l130.7-28.7zm0 32.9-130.7 7.2v23.8l130.7 1.3zm0 54.4-130.7-7v15.8l130.7 12.7zm0 35.9-130.7-16.5v10.6l130.7 20.2zm0 24-130.7-22.8v7l130.7 25.4zm0 15.9-130.7-27v4.7l130.7 28.7z" fill="#010101"/></svg>