<svg height="256" viewBox="0 0 256 256" width="256" xmlns="http://www.w3.org/2000/svg"><path d="m252.9 10.5-60.8 13.8v-13.9h-11.3v16.4l-59.5 13.6v135.1l59.5 13.5v16.6h11.3v-14.1l60.8 13.8zm-120.5 156v-117.3l48.4-11v139.3zm109.4 24.8-49.7-11.3v-144.4l49.7-11.2zm-153.1-90.4s-1.8-18.5-3.4-25.6c-7.4-32-43-61-81.6-61h-.9v229.7h39.5v-30.4h12.8c18.5 0 32.8-15.9 32.8-34.5v-20.1h14.4a6.9 6.9 0 0 0 6.9-6.8 5.3 5.3 0 0 0 -.6-2.7zm-22.6 11.5a9.1 9.1 0 1 1 0-18.2 9.1 9.1 0 1 1 0 18.2zm158.6-44.5a9.2 9.2 0 1 1 -9.2-9.2 9.2 9.2 0 0 1 9.2 9.2zm0 43.5a9.2 9.2 0 1 1 -9.2-9.2 9.2 9.2 0 0 1 9.2 9.2zm0 43.5a9.2 9.2 0 1 1 -9.2-9.2 9.2 9.2 0 0 1 9.2 9.2zm-57.7-65.8a9.1 9.1 0 1 1 -9.1-9.1 9.1 9.1 0 0 1 9.1 9.1zm0 43.5a9.1 9.1 0 1 1 -9.1-9.1 9.1 9.1 0 0 1 9.1 9.1z" fill="#050606"/></svg>