<svg xmlns="http://www.w3.org/2000/svg" width="256" height="256" viewBox="0 0 256 256"><title>grouping-by-position</title><path d="M3.5,10.7V245.9H43.9V214.8H57c19,0,33.6-16.3,33.6-35.4V158.8h14.7a7,7,0,0,0,7.1-6.9,4.9,4.9,0,0,0-.6-2.7L91.4,99.4s-1.9-19-3.5-26.2c-7.6-32.8-44-62.5-83.6-62.5ZM59,101.8a9.3,9.3,0,1,1,9.3,9.3A9.3,9.3,0,0,1,59,101.8Zm91.1-51.4.3,141.7,100.9,35V15.9ZM195,76.7v-35l18.9-6.4V73.5Zm18.9,3.2v38.4H195V83.1Zm-25.2-2.1-14.5,2.5V48.8l14.5-4.9Zm-20.8,40.5H156.5V89.7l11.4-1.9Zm-11.3,6.3h11.3v30.6l-11.3-1.9Zm17.6,0h14.5v34.1l-14.5-2.4Zm14.5,40.6v33.5l-14.5-5v-31Zm6.3,1,18.9,3.2v38.1L195,200.9Zm25.2-41.6H245v43.7l-24.8-4.2Zm24.8-6.3H220.2V78.9L245,74.6Zm-88.4,41.4,11.3,1.9v29.9l-11.2-3.9Z" fill="#010101"/></svg>