<svg height="256" viewBox="0 0 256 256" width="256" xmlns="http://www.w3.org/2000/svg"><path d="m188.6 74.1a50.3 50.3 0 1 0 50.3 50.2 50.2 50.2 0 0 0 -50.3-50.2zm37.2 31h-13.6a64 64 0 0 0 -4.7-14.2 38.5 38.5 0 0 0 -3-5.3 41.4 41.4 0 0 1 21.3 19.5zm4.7 19.2a46 46 0 0 1 -1.6 11.8h-15.4a91.2 91.2 0 0 0 .7-11.8 98.2 98.2 0 0 0 -.6-10.9h15.5a44 44 0 0 1 1.4 10.9zm-41.9 40.5c-5.5 0-11.5-7.8-14.8-20.3h29.6c-3.2 12.5-9.2 20.3-14.8 20.3zm-16.4-28.7a88.1 88.1 0 0 1 -.7-11.8 95.6 95.6 0 0 1 .6-10.9h33.1a95.6 95.6 0 0 1 .6 10.9 87.6 87.6 0 0 1 -.8 11.8zm-25.5-11.8a44.1 44.1 0 0 1 1.5-10.9h15.5a98.2 98.2 0 0 0 -.6 10.9 91.2 91.2 0 0 0 .7 11.8h-15.4a42.1 42.1 0 0 1 -1.7-11.8zm41.9-40.5c5.7 0 11.9 8.2 15 21.3h-30c3.2-13.1 9.4-21.3 15-21.3zm-15.8 1.8a52.9 52.9 0 0 0 -3.1 5.3 69.6 69.6 0 0 0 -4.6 14.2h-13.6a41.4 41.4 0 0 1 21.3-19.5zm-20.9 58.9h13.3a68.1 68.1 0 0 0 4.5 13.2 45.2 45.2 0 0 0 3.1 5.4 42.2 42.2 0 0 1 -20.9-18.6zm52.6 18.6a38.5 38.5 0 0 0 3-5.3 64.9 64.9 0 0 0 4.5-13.3h13.4a42.2 42.2 0 0 1 -20.9 18.6zm-202.4-148.3v231h39.7v-30.5h12.9c18.6 0 32.9-16 32.9-34.7v-20.3h14.5a6.8 6.8 0 0 0 6.9-6.8 6.2 6.2 0 0 0 -.5-2.7l-20-48.8s-1.9-18.7-3.5-25.8c-7.4-32.1-43.2-61.4-82.1-61.4zm54.5 89.5a9.2 9.2 0 1 1 9.2 9.2 9.1 9.1 0 0 1 -9.2-9.2zm64.6 102.7v-165.9l132.4-30.1v225.9zm11.2-157.1v148l110 25v-197.9z" fill="#010101"/></svg>