<svg xmlns="http://www.w3.org/2000/svg" width="256" height="256" viewBox="0 0 256 256"><title>nesting</title><path d="M225.4,175.2c0,15.9-17.3,28.8-38.7,28.8S148,191.1,148,175.2s17.3-13.1,38.7-13.1S225.4,159.3,225.4,175.2Zm-84.6-54.5c0-37.5,20.6-67.9,45.9-67.9s45.9,30.4,45.9,67.9-24.2,37.5-49.5,37.5S140.8,158.1,140.8,120.7Zm55,10.6a7.1,7.1,0,0,0,9,6.9c8.5-2.7,13.3-10.2,13.3-25.2S213,84.1,203.9,79.3a5.6,5.6,0,0,0-8.1,5Zm-40.4-16.9c0,20.6,7.1,29.7,19.8,32.2a6.9,6.9,0,0,0,7.9-6.8V75.6a4.9,4.9,0,0,0-6.3-4.7C163.1,75.1,155.4,93,155.4,114.4Zm14.5,13.4c5.8,0,10.4-6.6,10.4-14.7s-4.6-14.7-10.4-14.7-10.4,6.6-10.4,14.7S164.1,127.8,169.9,127.8ZM252.1,16.1V243.6L121.3,214V45.8Zm-11,13.8L132.4,54.5V205l108.7,24.7Zm-152.2,72s-1.8-18.4-3.5-25.4C78.1,44.6,42.8,15.8,4.3,15.8H3.5V244.2H42.8V214H55.4c18.5,0,32.7-15.8,32.7-34.4v-20h14.3a6.7,6.7,0,0,0,6.8-6.7,6.2,6.2,0,0,0-.5-2.7ZM66.4,113.3a9.1,9.1,0,1,1,9.1-9.1A9,9,0,0,1,66.4,113.3Z"/></svg>