<svg height="256" viewBox="0 0 256 256" width="256" xmlns="http://www.w3.org/2000/svg"><path d="m205.9 153.9-18.8-47.9s-2.1-20-3.9-27.5c-7.1-31.2-39.6-59.9-76.6-64.6v101.7h-101.2a90.4 90.4 0 0 0 34.3 60.4v70.2h96.7v-20.5h14.7c19.9 0 35.6-16.4 35.6-36.2v-25.2h12.5a7.3 7.3 0 0 0 7.4-7.4 9.4 9.4 0 0 0 -.7-3zm-41.3-29.6a10.3 10.3 0 0 1 0-20.5 10.3 10.3 0 1 1 0 20.5zm-136-19.4h-24.3v-24.3h24.3zm33.9 0h-24.3v-24.3h24.3zm0-34.2h-24.3v-24.3h24.3zm34.1 34.2h-24.3v-24.3h24.3zm0-34.2h-24.3v-24.3h24.3zm0-32.5h-24.3v-24.3h24.3zm157 80a10 10 0 1 1 -10-9.9 10 10 0 0 1 10 9.9zm.1-24.2a10 10 0 0 1 -19.9 0 10 10 0 1 1 19.9 0zm-21.5 12.3a10 10 0 1 1 -9.9-10 9.9 9.9 0 0 1 9.9 10z" fill="#010101"/></svg>