<svg height="256" viewBox="0 0 256 256" width="256" xmlns="http://www.w3.org/2000/svg"><path d="m125 39.8v175.2l129.1 29.3v-233.7zm12.1 9.7 104.9-23.8v203.4l-104.9-23.8zm-135.5-41v239.9h41.7v-32.2h12.9c19.3 0 34.2-16.2 34.2-35.7v-21h15c4.1 0 7.2-7.3 7.2-11.2a6.6 6.6 0 0 0 -.5-2.8l-20.8-46.7s-1.9-19.3-3.6-26.8c-7.8-33.4-44.6-63.5-85.1-63.5zm56.5 92.8a9.6 9.6 0 1 1 9.6 9.5 9.6 9.6 0 0 1 -9.6-9.5zm170.6 19.7-35.9.4v12.5l31.6.4c2 0 3.5 2 3.5 4.5s-1.6 4.4-3.5 4.3l-31.6-.8v12.5l30.5 1.6c1.3 0 3.3 1.8 3.3 4.5 0 23.4-1.7 34.3-11.5 33.2s-11.7-28.7-22.3-30.5v24.7l-15.5-1.7v-23.9c-8.9 1-10.7 25.8-18.9 24.8s-9.4-10.8-9.4-31.1c0-2.3 1.5-3.7 2.6-3.6l25.7 1.3v-12.2l-26.7-.7c-1.5-.1-2.6-1.8-2.6-3.9s1.2-3.9 2.6-3.9l26.7.3v-12.1l-30 .3c-1.5 0-2.6-1.7-2.6-3.8s1.2-3.8 2.6-3.9l30-.8v-12.2l-28.3 1.4c-1.4.1-2.6-1.6-2.6-3.7s1.2-3.9 2.6-4l28.3-1.8v-13.2l-22.2 2c-1.5.1-2.7-1.5-2.7-3.6s1.2-4 2.7-4.2l22.2-2.3v-6.1l15.5-1.9v6.3l25.9-2.7c1.9-.2 3.4 1.6 3.4 4s-1.5 4.6-3.4 4.7l-25.9 2.4v13.6l33.5-2.2c2-.1 3.6 1.8 3.6 4.2s-1.7 4.6-3.6 4.7l-33.5 1.6v12.6l35.9-1c2 0 3.5 2 3.5 4.4s-1.5 4.5-3.5 4.6z" fill="#010101"/></svg>