<svg height="256" viewBox="0 0 256 256" width="256" xmlns="http://www.w3.org/2000/svg"><path d="m39.3 253.1v-37.9h13.4c19.7 0 34.7-16.8 34.7-36.6v-21.7h15.5a7.3 7.3 0 0 0 7.4-7.2 5.8 5.8 0 0 0 -.5-2.6l-21.3-51.9s-2-19.7-3.7-27.3c-7.5-32.5-42.3-62.3-81.3-64.9v250.1zm15.4-155.3a9.8 9.8 0 1 1 9.7 9.7 9.6 9.6 0 0 1 -9.7-9.7zm107.8 112.8-23.5-20.1 26.3-9.9-2.3 8.7 54.3 11.2v-7.3l-8.8-1.4v-4.9l8.8 1.2v-8.4l-8.8-1v-4.9l8.8.9v-8.3l-8.8-.8v-4.9l8.8.7v-8.3l-8.8-.4v-5l8.8.5v-8.4l-8.8-.2v-5l8.8.2v-8.4h-8.8v-5h8.8v-8.4l-8.8.4v-5l8.8-.3v-8.2l-8.8.6v-4.9l8.8-.6v-8.4l-8.8.8v-4.9l8.8-.9v-18.2h-8.9l14.8-25.7 14.9 25.7h-8.9v151.4l-66.9-13.8zm89.2-200.1v236.8l-126.5-32.3v-172.2zm-9.2 11.7-108.1 27.9v157.7l108.1 27.8zm-57.1 74.3a8.5 8.5 0 1 0 -8.5-8.5 8.5 8.5 0 0 0 8.5 8.5zm0 36.4a8.5 8.5 0 1 0 -8.5-8.5 8.5 8.5 0 0 0 8.5 8.5zm0 35.2a8.5 8.5 0 1 0 -8.5-8.5 8.5 8.5 0 0 0 8.5 8.5z" fill="#010101"/></svg>