<svg height="256" viewBox="0 0 256 256" width="256" xmlns="http://www.w3.org/2000/svg"><path d="m116.1 190.3 136.7 62v-249.1l-136.9 60.6h.2zm93.8-23.9 31.2 4.8v63.2l-31.2-14.1zm0-66.6 31.2-4.7v64.2l-31.2-4.8zm0-64.9 31.2-13.9v62.1l-31.2 4.8zm-43 124.9 31.3 4.8v50.3l-31.3-14.2zm0-53.3 31.3-4.8v51.1l-31.3-4.8zm0-52.5 31.3-13.8v49.6l-31.3 4.8zm-43 99.3 31.3 4.7v37.5l-31.3-14.2zm0-40.3 31.3-4.8v37.9l-31.3-4.7zm0-39.8 31.3-13.9v37.1l-31.3 4.8zm-86.9 180.1v-36.2h12.8c18.9 0 33.1-16 33.1-34.9v-20.7h14.9a6.9 6.9 0 0 0 7-6.9 5.6 5.6 0 0 0 -.5-2.5l-20.3-49.5s-1.9-18.9-3.5-26.1c-7.1-31-40.4-59.5-77.7-62v238.8zm14.8-148.3a9.3 9.3 0 1 1 9.2 9.3 9.2 9.2 0 0 1 -9.2-9.3z" fill="#010101"/></svg>