<svg height="256" viewBox="0 0 256 256" width="256" xmlns="http://www.w3.org/2000/svg"><path d="m2.7 13.4v230.7h39.7v-30.5h12.8c18.6 0 32.9-16 32.9-34.7v-20.2h14.4a6.8 6.8 0 0 0 6.9-6.8 6.2 6.2 0 0 0 -.5-2.7l-20-48.8s-1.8-18.6-3.5-25.7c-7.4-32.1-43-61.3-81.9-61.3zm54.4 89.4a9.2 9.2 0 1 1 9.1 9.1 9.2 9.2 0 0 1 -9.1-9.1zm64.5 102.5v-165.7l132.2-30v225.6zm11.2-156.8v147.8l109.8 24.9v-197.6zm52.7 43.8a18.4 18.4 0 1 1 -18.4-18.4 18.4 18.4 0 0 1 18.4 18.4zm0 55.3a18.4 18.4 0 1 1 -18.4-18.4 18.4 18.4 0 0 1 18.4 18.4zm46-25.4a18.4 18.4 0 1 1 -18.4-18.4 18.4 18.4 0 0 1 18.4 18.4z" fill="#010101"/></svg>