<svg height="256" viewBox="0 0 256 256" width="256" xmlns="http://www.w3.org/2000/svg"><path d="m2.7 14.4v230.2h39.6v-30.5h12.8c18.5 0 32.8-15.9 32.8-34.5v-20.2h14.4a6.8 6.8 0 0 0 6.9-6.8 6.2 6.2 0 0 0 -.5-2.7l-19.9-48.6s-1.9-18.6-3.5-25.7c-7.4-32.1-43-61.2-81.7-61.2zm54.3 89.2a9.2 9.2 0 1 1 9.1 9.1 9.1 9.1 0 0 1 -9.1-9.1zm64.4 81.7v-140.6l131.9-29.9v200.3zm11.2-131.8v122.8l109.5 24.8v-172.4zm95.6 56.5-38.3-29.3 38.3-20.5zm-69.5 18.5 21.1 20.4-19.9 23-21.1-22.3zm-19.8-56.1 40.9-11.4v52.8l-41.7-5.1zm97 78.6c0 13.4-8.9 24.3-20 24.3s-20-10.9-20-24.3 9-24.4 20-24.4 20 10.9 20 24.4z" fill="#010101"/></svg>