<svg height="256" viewBox="0 0 256 256" width="256" xmlns="http://www.w3.org/2000/svg"><path d="m2.4 13.4v226.1h38.9v-29.9h12.6c18.2 0 32.2-15.6 32.2-34v-19.8h14.2a6.7 6.7 0 0 0 6.8-6.7 5.8 5.8 0 0 0 -.5-2.6l-19.7-47.8s-1.8-18.2-3.4-25.2c-7.2-31.5-42.2-60.1-80.3-60.1zm53.3 87.6a9 9 0 1 1 9 9 9 9 0 0 1 -9-9zm172.1 136.1a5.7 5.7 0 0 1 -9 6.9l-104.7-137a12.4 12.4 0 0 1 1.6-16.5l102.7-81.6a5.8 5.8 0 0 1 8 .9 5.7 5.7 0 0 1 -.9 7.9l-102.6 81.5a3.4 3.4 0 0 0 .2 1.1zm8.7-66.6h16.3l-23.3 40.4-23.3-40.4h16.2v-92.6h-16.2l23.3-40.3 23.3 40.3h-16.3z" fill="#010101"/></svg>