<svg xmlns="http://www.w3.org/2000/svg"><defs><symbol id="_drafts/biplot">null</symbol><symbol id="_drafts/probability-plot">null</symbol><symbol id="alluvial-diagram"><path d="m175.8 73.2c14.4-8 30.6-12.2 47.1-12.2h31.1v-59h-32.8c-17.1 0-33.8 4.9-48.3 14l-68.5 43.5-22-31c-11.4-15.9-29.5-25.7-48.9-26.4v-.1h-31.5v63h29c14.4 0 28.1 5.9 38 16-11.1 5-23.2 7.6-35.5 7.6h-31.5v165.4h34.3c16.7 0 33-4.8 47-13.7l68.6-43.8 22.1 31.1c11.2 15.8 29.2 25.5 48.4 26.4v.1h31.6v-63h-28.6c-14.5 0-28.3-6-38.2-16.2 10.4-4.8 21.8-7.4 33.5-7.4h33.3v-82.8h-32.8c-17 0-33.8 2.5-49.9 7.6l-35.7 11.1-4-5.6zm2.4-48.8c12.9-8.2 27.8-12.5 43-12.5h1.3v39.4c-18 .1-35.8 4.7-51.5 13.4l-45.1 25-15.7-22.1zm-102.8 64.5 14.7 20.7-9.8 5.4c-14.2 7.9-30.2 12-46.4 12h-.4v-28.5c14.6 0 28.9-3.3 41.9-9.6zm2.7 143.1c-12.5 8-26.9 12.2-41.7 12.2h-2.8v-107.3h.4 4.5c14.9 0 29.7-2.2 43.9-6.7l18.5-5.7 45.5 63.9zm144.4-31.2v43.3c-16.1-.9-31-9.1-40.4-22.3l-99.7-140.2c-11.4-15.9-29.5-25.6-48.9-26.4v-43.3c16.2.8 31.4 9 40.8 22.3l99.7 140.2c11.3 15.8 29.2 25.5 48.5 26.4zm-48.3-99.1c15.2-4.7 31.1-7.1 47-7.1h1.3v63h-1.9c-13.9 0-27.5 3.2-39.8 9.4l-39.2-55.1z"/></symbol><symbol id="arc-diagram"><path d="m247.8 174.1c-4.6-62-56.6-111.1-119.8-111.1s-115.2 49.1-119.8 111.1c-3.6 1.4-6.2 5-6.2 9.1 0 5.4 4.4 9.8 9.8 9.8s9.8-4.4 9.8-9.8c0-3.4-1.8-6.4-4.5-8.2 3.4-9.8 12.8-16.9 23.7-16.9s20.3 7.1 23.7 16.9c-2.7 1.7-4.5 4.8-4.5 8.2 0 5.4 4.4 9.8 9.8 9.8s9.8-4.4 9.8-9.8c0-4.5-3.1-8.3-7.2-9.4-4.1-13.6-16.7-23.6-31.6-23.6-6.2 0-12 1.7-16.9 4.7 9.6-15.4 26.6-25.6 46-25.6 26.9 0 49.2 19.6 53.5 45.3-3.1 1.6-5.1 4.9-5.1 8.6 0 5.4 4.4 9.8 9.8 9.8s9.8-4.4 9.8-9.8c0-3.7-2-6.9-5-8.5 3.1-18.8 15.8-34.3 32.9-41.3 8.8 11.7 14.5 25.8 16.1 41.1-3.2 1.6-5.5 4.9-5.5 8.8 0 5.4 4.4 9.8 9.8 9.8s9.8-4.4 9.8-9.8c0-4.1-2.6-7.6-6.2-9.1-1.6-16-7.3-30.8-16.2-43.4 4-1 8.3-1.5 12.6-1.5 26.9 0 49.2 19.7 53.4 45.3-3 1.7-5.1 4.9-5.1 8.6 0 5.4 4.4 9.8 9.8 9.8s9.8-4.4 9.8-9.8c-.1-4.2-2.7-7.7-6.3-9.1zm-119.7-12.4c-8.8-23.5-31.6-40.3-58.1-40.3-14.7 0-28.3 5.2-38.9 13.8 15.1-21.3 39.9-35.3 68-35.3 24.3 0 46.2 10.5 61.4 27.1-14.9 6.8-26.7 19.3-32.4 34.7zm58.1-40.3c-6.2 0-12.2.9-17.8 2.6-16.8-19.6-41.7-32-69.4-32-22.7 0-43.5 8.3-59.5 22.1 20.6-26.3 52.6-43.2 88.5-43.2 47.5 0 88.3 29.7 104.6 71.5-11.3-12.9-28-21-46.4-21z"/></symbol><symbol id="area-chart"><path d="m254 254h-252v-252h11.813v240.188h240.187zm0-27.562v-177.188l-11.813-7.875-35.438 59.063-31.5-3.938-35.438 43.313-43.311 19.687-27.563-27.563-39.375-7.875v102.375h224.438z"/></symbol><symbol id="bagplot"><path d="m241.3 253h-235.8a3.1 3.1 0 0 1 -3.7-2.1 2.8 2.8 0 0 1 -.1-.9v-241.9c0-3.9 6.2-3.9 6.2 0v238.7h233.4c4 0 4 6.2 0 6.2zm-102.1-117.7a1.7 1.7 0 1 1 0-3.4 1.7 1.7 0 1 1 0 3.4zm5.9-36.3a1.7 1.7 0 1 0 3.4 0 1.7 1.7 0 1 0 -3.4 0zm-8.4 46.9a1.7 1.7 0 1 0 0 3.4 1.7 1.7 0 1 0 0-3.4zm13.6-53.1a1.8 1.8 0 0 0 -1.8-1.8 1.8 1.8 0 0 0 -1.7 1.8 1.8 1.8 0 0 0 1.7 1.7 1.8 1.8 0 0 0 1.8-1.7zm-27.1 51.3a1.8 1.8 0 0 0 1.7-1.7 1.8 1.8 0 0 0 -1.7-1.8 1.8 1.8 0 0 0 -1.8 1.8 1.8 1.8 0 0 0 1.8 1.7zm58.9-66.5 28.8-57.4 41 40.1-48.8 24.4zm25.8-6.5a1.7 1.7 0 0 0 1.7 1.7 1.7 1.7 0 1 0 0-3.4 1.7 1.7 0 0 0 -1.7 1.7zm-14.8 23.4a1.8 1.8 0 0 0 1.7 1.8 1.8 1.8 0 0 0 1.8-1.8 1.8 1.8 0 0 0 -1.8-1.7 1.8 1.8 0 0 0 -1.7 1.7zm-70.6 14.7a1.8 1.8 0 0 0 -1.7-1.7 1.8 1.8 0 0 0 -1.8 1.7 1.8 1.8 0 0 0 1.8 1.8 1.8 1.8 0 0 0 1.7-1.8zm33.6-40.4-23.9-62.4 76 12.4-28.9 57.6zm23.2-46.9a1.8 1.8 0 0 0 1.7 1.8 1.8 1.8 0 0 0 1.8-1.8 1.8 1.8 0 0 0 -1.8-1.7 1.8 1.8 0 0 0 -1.7 1.7zm-20.1 77.6a1.8 1.8 0 0 0 1.7 1.7 1.8 1.8 0 0 0 1.8-1.7 1.8 1.8 0 0 0 -1.8-1.8 1.8 1.8 0 0 0 -1.7 1.8zm5.9 20.3a1.8 1.8 0 0 0 1.8 1.7 1.8 1.8 0 0 0 1.7-1.7 1.8 1.8 0 0 0 -1.7-1.8 1.8 1.8 0 0 0 -1.8 1.8zm-48.9-20.8-33.2-39 45.9-54 24.1 63.1zm23-29.3a1.8 1.8 0 0 0 1.8 1.8 1.8 1.8 0 0 0 1.7-1.8 1.8 1.8 0 0 0 -1.7-1.7 1.8 1.8 0 0 0 -1.8 1.7zm-21.2-9.1a1.8 1.8 0 0 0 1.8 1.7 1.8 1.8 0 0 0 1.7-1.7 1.8 1.8 0 0 0 -1.7-1.8 1.8 1.8 0 0 0 -1.8 1.8zm-38.8 97.7-51.7 24.5 12.3 42.6 35.4-49.2zm116-39.9 32.6 37.2-85.7 66.2-18.9-47.7h.8zm-48.4 58.8a1.7 1.7 0 0 0 -1.7-1.7 1.7 1.7 0 1 0 0 3.4 1.7 1.7 0 0 0 1.7-1.7zm34.3-18.9a1.8 1.8 0 0 0 -1.7-1.7 1.8 1.8 0 0 0 -1.8 1.7 1.8 1.8 0 0 0 1.8 1.8 1.8 1.8 0 0 0 1.7-1.8zm14.5-13.7a1.8 1.8 0 0 0 1.7 1.7 1.8 1.8 0 0 0 1.8-1.7 1.8 1.8 0 0 0 -1.8-1.8 1.8 1.8 0 0 0 -1.7 1.8zm-81.7-43.7-32.8-38.6-38.8 51.9 40.5 21.7zm90.6-13.5-7.9 27.3 32.9 38.2 23-89.5zm-84.5 86.9 19.2 48.3-96.9 4.4 35.3-49zm-22.3 27.2a1.7 1.7 0 1 0 -1.7 1.7 1.6 1.6 0 0 0 1.7-1.7zm-2.5-35.5a1.8 1.8 0 0 0 1.7 1.7 1.8 1.8 0 0 0 1.8-1.7 1.8 1.8 0 0 0 -1.8-1.8 1.8 1.8 0 0 0 -1.7 1.8zm-13.5-27.3-40.6-21.7-14.1 62.8 52.7-25zm9.1 5.4a1.8 1.8 0 0 0 1.7 1.8 1.8 1.8 0 0 0 1.8-1.8 1.8 1.8 0 0 0 -1.8-1.7 1.8 1.8 0 0 0 -1.7 1.7z"/></symbol><symbol id="bar-chart"><path d="m238.6 242.2v-178h-40.5v178h-16v-224.4h-40.3v224.4h-15.8v-66.9h-40.3v66.9h-15.8v-114.2h-40.3v114.2h-15.8v-240.2h-11.8v252h252v-11.8z"/></symbol><symbol id="barcode-plot"><path d="M91.3,2h8.2V253H91.3ZM106,253h8.1V2H106Zm22.8,0h8.1V2h-8.1Zm16.3,0h8.2V2h-8.2Zm14.9,0h8.1V2H160Zm20.4,0h6.5V2h-6.5ZM214.6,2V253h3.2V2Zm26,0V253h3.2V2ZM202.4,253h3.2V2h-3.2ZM77.5,2H70.1V253H85.6V2H77.5ZM31,253h8.1V2H31ZM51.4,2H44V253H59.5V2H51.4Zm-31,0H0V253H28.5V2H20.4Z"/></symbol><symbol id="box-plot"><path d="m30.797 43.344h10.828v-9.844h-31.5v9.844h10.828v37.406h-18.703v126h18.703v37.406h-10.828v9.844h31.5v-9.844h-10.828v-37.406h18.703v-126h-18.703zm8.859 153.562h-27.562v-68.906h27.563v68.906zm0-106.312v26.25h-27.562v-26.25zm77.766 0h10.828v-9.844h-31.5v9.844h10.828v37.406h-18.703v78.75h18.703v37.406h-10.828v9.844h31.5v-9.844h-10.828v-37.406h18.703v-78.75h-18.703zm8.859 106.312h-27.562v-23.625h27.563v23.625zm0-59.062v23.625h-27.562v-23.625zm77.766-104.344v-21.656h10.828v-9.844h-31.5v9.844h10.828v21.656h-18.703v126h18.703v37.406h-10.828v9.844h31.5v-9.844h-10.828v-37.406h18.703v-126zm8.859 116.156h-27.563v-21.656h27.563zm-27.562-32.484v-73.828h27.563v73.828z"/></symbol><symbol id="bubble-chart"><path d="m254 254h-252v-252h11.813v240.188h240.187zm-224.437-202.719c0 18.484 14.984 33.469 33.469 33.469s33.468-14.985 33.468-33.469-14.984-33.469-33.469-33.469-33.468 14.984-33.468 33.469zm51.187 76.719c0 26.095 21.155 47.25 47.25 47.25s47.25-21.155 47.25-47.25-21.155-47.25-47.25-47.25-47.25 21.155-47.25 47.25zm104.344 49.158c0 14.679 11.899 26.578 26.578 26.578s26.578-11.899 26.578-26.578-11.899-26.578-26.578-26.578-26.578 11.899-26.578 26.578zm-122.063 26.578c0 12.504 10.137 22.641 22.641 22.641s22.641-10.137 22.641-22.641-10.137-22.641-22.641-22.641-22.641 10.137-22.641 22.641zm106.313-152.455c0 8.698 7.052 15.75 15.75 15.75s15.75-7.052 15.75-15.75-7.052-15.75-15.75-15.75-15.75 7.051-15.75 15.75z"/></symbol><symbol id="bubble-map"><path d="M254,72l-5.1-3.7l-2.6-7.9l-6.5-0.6l-1.6,11.3l-2.1,3.3l-1.3,2.2l-7.6,2.1l-6.3,1.5l-5.1,6.6l1.4,3.1l-10.7,6.8l-3.3,4.2
	l-3.1,2.3l-8.3,4.9l-4.6-1.4l3.5-8.3l-5.2-7.3L184,85l-3.9-2.1l-6.7,6.1l-1.4,5.2l2,6.6l-2,7.5l-3,0.5l-1.7-4.5l-0.9-4.6l1.6-9.5
	l-1.3-1.7l2.1-5.1l12.5-1.8l-4.5-4.5L167,80l-4.8-3.3l-8,3.9l-7.2-0.7l2.5-7.9l-5.1-2.8l-4.5,0.3l-5.8-2.8l-8.2,0l-27.5-1.4l-34-4.6
	l-13.8-2.8l-3.9-0.9l-22.3-6l-1.6,5l-8,0.5l-1.2,13.1L5.9,84.2l-0.1,5.3L2,98.1l0.2,9.7l7.5,30.3l8.7,4.9l4,5.4l0.8,5.2l12.2,1.6
	l-0.8,1.2L52.9,167l10.1,1.6l4.6-2.1l8.8,1.2l7.1,7.4l1.9,6.3l7,4.8l2.8-4.4l6.8,0.2l9.6,14l2.1,7.2l9.8,2l-1.3-5.5l3-6.3l7.7-4.4
	l9.5-7.6l8.2,2.5l2.2-1.9l5.3,4l5.9-2l0.9-4.9l5.8-1.6l5.1-1l7.2,0.3l6.3,3.5l4.6-3.6l8.4,6.4l-0.1,6.6l5.2,7.8l9.9,5.7l0.6-10.9
	l-4-8.6l-7.4-12.6l1.8-8.4l7.4-8.4l2.2-4.7l11.5-14.4l-2.4-3.9l0.1,0l0.2,0l0.4-0.1l0.1,0l-3.9-3.5l0.3-4l-1.3-1.3l4.1,0.3l1.2-0.6
	l0.7-2.9l0.1,0l0,0l-3.6-7.5l1.5-1.7l4.5,0.7l-0.9-7.6l1.2-0.3l7.4-3.9l2-3l0.2,0.1l0.6,0.9l2.1-2.5l-3-5.8l0-1.3l3.9-5.9L254,72z
	 M40.1,100.7c-6.8,0-12.3-5.5-12.3-12.3c0-6.8,5.5-12.3,12.3-12.3s12.3,5.5,12.3,12.3C52.5,95.2,46.9,100.7,40.1,100.7z M81.2,139.3
	c-5.7,0-10.3-4.6-10.3-10.3c0-5.7,4.6-10.3,10.3-10.3s10.3,4.6,10.3,10.3C91.6,134.7,87,139.3,81.2,139.3z M121.1,85.9
	c4.6,0,8.4,3.7,8.4,8.4s-3.7,8.4-8.4,8.4s-8.4-3.7-8.4-8.4S116.5,85.9,121.1,85.9z M122.1,168.5c-8.7,0-15.8-7.1-15.8-15.8
	s7.1-15.8,15.8-15.8s15.8,7.1,15.8,15.8S130.8,168.5,122.1,168.5z M188.3,146.7c-6.4,0-11.6-5.2-11.6-11.6s5.2-11.6,11.6-11.6
	s11.6,5.2,11.6,11.6S194.7,146.7,188.3,146.7z"/></symbol><symbol id="bullet-chart"><path d="m2 191h94.5v15.8h-94.5zm252-141.8h-15.8v-11.8h-11.8v11.8h-224.4v15.8h224.4v11.8h11.8v-11.8h15.8zm-90.6 74.9h11.8v-39.4h-11.8v11.8h-161.4v15.7h161.4zm43.4 7.8h-11.8v11.8h-193v15.8h192.9v11.8h11.8v-11.8h31.5v-15.8h-31.5v-11.8zm-74.9 86.7h11.8v-39.4h-11.8z"/></symbol><symbol id="bump-chart"><path d="M159.2,110.4c2,1.2,4.4,1.9,6.9,1.9c6.1,0,11.2-4,12.9-9.5h50.4c1.7,5.5,6.9,9.5,12.9,9.5c7.5,0,13.5-6.1,13.5-13.5
	s-6.1-13.5-13.5-13.5c-6.1,0-11.2,4-12.9,9.5h-50.4c-1.7-5.5-6.9-9.5-12.9-9.5c-7.5,0-13.5,6.1-13.5,13.5c0,2,0.5,4,1.3,5.7
	l-12.1,11l-21.5-38.8l38.9-35.2c2,1.2,4.4,1.9,6.9,1.9c6.1,0,11.2-4,12.9-9.5h50.4c1.7,5.5,6.9,9.5,12.9,9.5
	c7.5,0,13.5-6.1,13.5-13.5c0-7.5-6.1-13.5-13.5-13.5c-6.1,0-11.2,4-12.9,9.5h-50.4c-1.7-5.5-6.9-9.5-12.9-9.5
	c-7.5,0-13.5,6.1-13.5,13.5c0,2,0.5,4,1.3,5.7l-37.5,34L99.6,39.1c2.3-2.4,3.8-5.7,3.8-9.4c0-7.5-6.1-13.5-13.5-13.5
	c-6.1,0-11.2,4-12.9,9.5H26.5c-1.7-5.5-6.9-9.5-12.9-9.5C6.1,16.1,0,22.2,0,29.7c0,7.5,6.1,13.5,13.5,13.5c6.1,0,11.2-4,12.9-9.5
	h50.4c1.7,5.5,6.9,9.5,12.9,9.5c0.9,0,1.9-0.1,2.8-0.3l17.6,31.9L96.8,87.1c-2-1.2-4.4-1.9-6.9-1.9c-6.1,0-11.2,4-12.9,9.5H26.5
	c-1.7-5.5-6.9-9.5-12.9-9.5C6.1,85.2,0,91.2,0,98.7s6.1,13.5,13.5,13.5c6.1,0,11.2-4,12.9-9.5h50.4c1.7,5.5,6.9,9.5,12.9,9.5
	c7.5,0,13.5-6.1,13.5-13.5c0-2-0.5-4-1.3-5.7l12.1-11l21.5,38.8l-38.9,35.2c-2-1.2-4.4-1.9-6.9-1.9c-7.5,0-13.5,6.1-13.5,13.5
	c0,2,0.5,4,1.3,5.7l-25.9,23.4l-25.9-23.4c0.8-1.7,1.3-3.7,1.3-5.7c0-7.5-6.1-13.5-13.5-13.5c-7.5,0-13.5,6.1-13.5,13.5
	c0,7.5,6.1,13.5,13.5,13.5c2.5,0,4.9-0.7,6.9-1.9l25.3,22.9l-25.3,22.9c-2-1.2-4.4-1.9-6.9-1.9c-7.5,0-13.5,6.1-13.5,13.5
	c0,7.5,6.1,13.5,13.5,13.5c7.5,0,13.5-6.1,13.5-13.5c0-2-0.5-4-1.3-5.7l25.9-23.4l25.9,23.4c-0.8,1.7-1.3,3.7-1.3,5.7
	c0,7.5,6.1,13.5,13.5,13.5c6.1,0,11.2-4,12.9-9.5h50.4c1.7,5.5,6.9,9.5,12.9,9.5s11.2-4,12.9-9.5h50.4c1.7,5.5,6.9,9.5,12.9,9.5
	c7.5,0,13.5-6.1,13.5-13.5c0-7.5-6.1-13.5-13.5-13.5c-6.1,0-11.2,4-12.9,9.5h-50.4c-1.7-5.5-6.9-9.5-12.9-9.5
	c-6.1,0-11.2,4-12.9,9.5h-50.4c-1.7-5.5-6.9-9.5-12.9-9.5c-2.5,0-4.9,0.7-6.9,1.9l-25.3-22.9l25.3-22.9c2,1.2,4.4,1.9,6.9,1.9
	c7.5,0,13.5-6.1,13.5-13.5c0-2-0.5-4-1.3-5.7l37.5-34l16.7,30.3c-2.3,2.4-3.8,5.7-3.8,9.4c0,7.5,6.1,13.5,13.5,13.5
	c6.1,0,11.2-4,12.9-9.5h50.4c1.7,5.5,6.9,9.5,12.9,9.5c7.5,0,13.5-6.1,13.5-13.5c0-7.5-6.1-13.5-13.5-13.5c-6.1,0-11.2,4-12.9,9.5
	h-50.4c-1.7-5.5-6.9-9.5-12.9-9.5c-0.9,0-1.9,0.1-2.8,0.3l-17.6-31.9L159.2,110.4z"/></symbol><symbol id="candlestick-chart"><path d="m26.609 49.25h14.766v141.75h-14.766v63h-9.844v-63h-14.765v-141.75h14.766v-47.25h9.844v47.25zm70.875-47.25h-9.844v78.75h-14.765v157.5h14.766v15.75h9.844v-15.75h14.766v-157.5h-14.767zm70.875 0h-9.844v47.25h-14.765v110.25h14.766v94.5h9.844v-94.5h14.766v-110.25h-14.766v-47.25zm85.641 15.75h-14.766v-15.75h-9.844v15.75h-14.766v63h14.766v173.25h9.844v-173.25h14.766z"/></symbol><symbol id="cartogram"><path d="m88.625 218.781h-47.25v-15.75h-35.437v-15.75h15.75v-23.625h-19.688v-19.688h59.063v-35.438h15.75v-15.75h29.531v88.594h-17.719zm27.563-112.218v-37.407h39.375v-19.687h43.313v33.469h-63v23.625zm0 17.718v-7.875h29.531v-23.625h53.156v15.75h31.5v-15.75h23.625v31.5zm19.687 57.094h-19.688v-47.25h49.219v33.469h-29.531zm39.375-47.25h35.438v33.469h-35.438zm-59.062 57.094h39.375v11.813h-39.375zm59.062-161.438h13.781v9.844h-13.781zm0-27.562v17.719h23.625v19.688h15.75v-37.407z"/></symbol><symbol id="chernoff-faces"><path d="m61.1 2c-32.7 0-59.1 26.4-59.1 59.1s26.4 59.1 59.1 59.1 59.1-26.4 59.1-59.1-26.5-59.1-59.1-59.1zm-23.9 39c5.6 0 10.1 4.5 10.1 10.1s-4.5 10.1-10.1 10.1-10.1-4.5-10.1-10.1 4.5-10.1 10.1-10.1zm24.7 60.5c-14 0-26.5-8.3-32.1-21.1l8.5-3.7c4.1 9.4 13.4 15.5 23.6 15.5s19.5-6.1 23.6-15.5l8.5 3.7c-5.5 12.8-18.1 21.1-32.1 21.1zm23-40.2c-5.6 0-10.1-4.5-10.1-10.1s4.5-10.2 10.1-10.2 10.1 4.5 10.1 10.1-4.5 10.2-10.1 10.2zm-23.8 74.6c-32.7 0-59.1 26.4-59.1 59s26.4 59.1 59.1 59.1 59.1-26.4 59.1-59.1-26.5-59-59.1-59zm-23.9 39c5.6 0 10.1 4.5 10.1 10.1s-4.5 10.1-10.1 10.1-10.2-4.5-10.2-10.1 4.6-10.1 10.2-10.1zm48.3 55.5c-4.1-9.4-13.4-15.5-23.6-15.5s-19.5 6.1-23.6 15.5l-8.5-3.7c5.5-12.8 18.1-21.1 32.1-21.1s26.6 8.4 32.1 21.2zm-.6-35.2c-5.6 0-10.1-4.5-10.1-10.1s4.5-10.1 10.1-10.1 10.1 4.5 10.1 10.1c.1 5.5-4.5 10.1-10.1 10.1zm110-59.3c-32.6 0-59.1 26.4-59.1 59.1s26.4 59.1 59.1 59.1 59.1-26.4 59.1-59.1-26.4-59.1-59.1-59.1zm-23.8 39c5.6 0 10.1 4.5 10.1 10.1s-4.5 10.1-10.1 10.1-10.1-4.5-10.1-10.1c-.1-5.6 4.5-10.1 10.1-10.1zm24.2 57.4c-14.8 0-27.5-8.9-33-21.7h66c-5.5 12.8-18.2 21.7-33 21.7zm23.5-37.1c-5.6 0-10.1-4.5-10.1-10.1s4.5-10.1 10.1-10.1 10.2 4.4 10.2 10-4.6 10.2-10.2 10.2zm-23.9-193.1c-32.6 0-59.1 26.4-59.1 59.1s26.4 59.1 59.1 59.1 59.1-26.5 59.1-59.1-26.4-59.1-59.1-59.1zm-34 49c0-5.6 4.5-10.1 10.1-10.1s10.1 4.5 10.1 10.1-4.5 10.1-10.1 10.1c-5.5.1-10.1-4.4-10.1-10.1zm57.9 41.2h-47.7v-9.4h47.7zm0-31c-5.6 0-10.1-4.5-10.1-10.1s4.5-10.2 10.1-10.2 10.2 4.5 10.2 10.1-4.6 10.2-10.2 10.2z"/></symbol><symbol id="chord-diagram"><path d="m179.888 167.986c16.999 5.904 40.666 17.807 54.094 28.097.144-.206.293-.468.293-.468 12.482-19.549 19.725-42.753 19.725-67.618 0-18.324-3.936-35.745-11-51.468l-.009-.072s-37.381 22.17-60.96 24.637c15.278-22.723 46.903-39.587 51.485-41.9l-.027-.022c-22.448-34.29-61.145-57.023-105.068-57.168 0 0 2.476 46.814-4.709 74.252-12.905-24.284-15.584-67.687-15.889-72.636-31.969 5.168-59.946 22.407-79.093 46.872 0 0 50.634 33.385 78.444 49.956-22.272 9.443-84.687-31.468-88.954-34.238-10.323 18.266-16.22 39.35-16.22 61.787 0 23.577 6.515 45.658 17.831 64.549l.341.571s60.749-34.967 104.581-34.967c13.33 0 26.1 1.852 37.91 4.737 6.053 25.916 19.525 44.101 28.282 53.707-12.362-12.509-39.246-35.488-70.177-38.52-34.703-3.401-87.424 28.539-89.951 30.026.052.063.1.128.152.19-.003.002-.014.009-.014.009l.051.035c18.642 22.468 44.923 38.38 74.823 43.709 0 0 0 0 .166.028.101.018.208.035.313.053 0 0 8.03-55.934 12.799-55.934 4.872 0 6.046 54.857 6.031 57.712 1.254.061 2.254.095 2.861.095 37.224 0 70.551-16.061 93.581-41.756.001-.001-29.086-22.297-41.692-44.255zm-20.171-25.748c-11.939-1.128-23.774-1.854-34.467-1.854-36.567-.001-87.715 7.345-107.639 10.439 18.352-5.256 69.321-20.722 100.478-38.747 1.504-.87 3.001-1.758 4.491-2.66 3.063 1.735 6.082 3.415 9.031 5.016 8.323 4.52 18.036 8.928 28.204 13.076-.086 1.014-.157 2.025-.196 3.033-.154 4.021-.11 7.918.098 11.697zm-17.83-45.599c28.418-20.324 51.685-43.425 61.075-53.185.043.039.087.077.13.116-8.482 9.842-27.275 33.363-37.159 59.018-8.662-.08-16.917-1.799-24.046-5.949zm28.284 34.953s0-.001 0-.002c27.342 10.436 55.672 18.72 67.918 22.154-.003.012-.006.024-.009.036-11.99-2.299-39.272-7.243-67.724-10.44-.577-3.892-.681-7.82-.185-11.748z"/></symbol><symbol id="choropleth-map"><path d="m241.962 101.81-5.698-11.405 6.434-6.433-1.122-11.131 12.424-16.403-11.195-10.545-24.169-.267-3.733 1.781-13.752-14.894-10.794-2.772h-22.745l-4.785 1.916-7.76-7.76-18.102-8.343-6.768-13.548-8.944 5.768-11.087.557-9.525 29.669 1.883 5.271-15.587 7.79-5.511 10.767-15.006-5.534-19.375 10.15-8.369-5.287-12.645-1.647-9.68 3.39-6.362-1.228-7.989 15.135 10.505 31.539 7.974 5.73 4.495 9.826 16.412-1.741 5.871 9.54 15.987-1.697 3.576 6.825-9.248 14.254 6.823 8.944-2.789 2.968.861 14.857 5.446 8.414 3.872 28.919 21.793 4.012 5.238-2.618 5.083 8.336 6.332 3.369-1.028 16.355 21.483 4.356 6.203-8.927 15.482 2.03 6.351-16.871 11.43 1.525 9.778 7.52 14.414-.605 22.908-34.1v-10.139l10.375-7.612 9.924-20.887v-7.003l8.572-8.571-14.235-14.755zm-80.616-62.94 7.449-2.983h20.784l8.285 2.127 15.596 16.891 6.534-3.117 20.343.225 5.427 5.113-10.549 13.926 1.072 10.633-7.503 7.503 6.516 13.044-8.781 25.101-6.541-2.584-6.696-2.646-19.364-1.346h-.001l-5.524 7.178-10.403-8.088-9.1-18.566-22.312-21.27 3.664-8.347-4.102-10.835 8.606-28.561zm-19.194 45.419 8.068 7.691-41.497 41.497-7.88-7.879zm-30.252 52.365-.279-.279 41.566-41.566 8.068 7.691-23.517 23.517-9.291 1.688v.003 3.948zm52.19-31.192 5.184 10.575-19.816 19.816-7.163-8.597zm-11.997 33.553 19.088-19.088 1.913 3.902 5.596 4.351-19.922 19.922-5.103-2.235v-4.962-.003zm19.906 10.224-5.042-2.209-2.873 1.551 17.866-17.866 2.692 2.093-11.784 15.313zm-83.451-40.696 2.018-15.78 56.579-56.579-6.796 22.556-50.762 50.762zm-.102-19.457-3.146-3.151.336-9.8 53.026-53.026 10.789 4.971zm4.156 23.197 48.196-48.197 2.804 7.407-4.344 9.893-41.313 41.313-.033-.033v-5.481-.003zm42.092-91.003-24.682 24.682-2.882-8.065 2.276-7.088 18.876-18.876 4.148 8.303zm-14.249-7.306-8.297 8.297 2.572-8.01zm-28.956 41.686 17.643-8.816-23.29 23.289.126-3.685zm63.203 162.827-6.355 16.882-14.358-1.882-6.032 8.679-12.27-2.489.943-14.959-8.343-4.44-7.151-11.725-8.453 4.227-15.383-2.833-3.464-25.862-5.313-8.208-.615-10.596 4.548-4.839-7.358-9.644 8.848-13.638-5.553-10.597 4.146-10.224 11.929-3.202 7.305 6.74v5.338l18.391 18.391 24.441-7.381v-.001-3.385l3.777-.686 9.144 10.975v6.757.001l14.957 6.553 4.765-2.572 2.886 1.264 1.258 10.583.99 8.334-9.078 16.558 6.878 6.88-1.625 22.851z"/></symbol><symbol id="concept-map"><path d="M230.5,216.7h-38l-41.8-37.3h5.1c10.2,0,18.5-7.3,18.5-16.4s-8.3-16.4-18.5-16.4h-5.3l41.6-37.3h38.5
	c10.2,0,18.5-7.3,18.5-16.4s-8.3-16.4-18.5-16.4H191l-39.8-37.3h4.6c10.2,0,18.5-7.3,18.5-16.4c0-9-8.3-16.4-18.5-16.4h-54.4
	c-10.2,0-18.5,7.3-18.5,16.4c0,9,8.3,16.4,18.5,16.4h3.7L63.4,76.6H23.3C13.1,76.6,4.8,83.9,4.8,93s8.3,16.4,18.5,16.4h54.4
	c10.2,0,18.5-7.3,18.5-16.4s-8.3-16.4-18.5-16.4H74l41.6-37.3h25.3l39.8,37.3h-4.6c-10.2,0-18.5,7.3-18.5,16.4s8.3,16.4,18.5,16.4
	h5.3l-41.6,37.3h-38.5c-10.2,0-18.5,7.3-18.5,16.4s8.3,16.4,18.5,16.4h2l-41.8,37.3H23.3c-10.2,0-18.5,7.3-18.5,16.4
	c0,9,8.3,16.4,18.5,16.4h54.4c10.2,0,18.5-7.3,18.5-16.4c0-9-8.3-16.4-18.5-16.4h-5.5l41.8-37.3h26.2l41.8,37.3h-5.8
	c-10.2,0-18.5,7.3-18.5,16.4c0,9,8.3,16.4,18.5,16.4h54.4c10.2,0,18.5-7.3,18.5-16.4C249,224.1,240.7,216.7,230.5,216.7z"/></symbol><symbol id="connection-map"><path d="m244.9 81.4 9.1-9.4-5.1-3.7-2.6-7.9-6.5-.6-1.6 11.3-2.1 3.3-1.3 2.2-7.6 2.1-6.3 1.5-4.7 6.1c-6.9-34.5-38-60.2-74.6-60.2a77.8 77.8 0 0 0 -39.2 10.8 97.4 97.4 0 0 0 -49.3 21.5l5 1a80.5 80.5 0 0 1 36.7-17.4 79.7 79.7 0 0 0 -19.1 20.2l4.4.6a71.4 71.4 0 0 1 22.8-22 92.8 92.8 0 0 1 10.6-.6c40.2 0 75.1 26.8 84.5 64.2l3.6-2.3c-9.9-39.2-46-65.9-88.1-65.9h-1.9a73.9 73.9 0 0 1 30-6.2c36 0 66.5 28 71.5 62.4l3.7-2.4a8.8 8.8 0 0 0 -.2-1.6l.6 1.4-.4.2a1.3 1.3 0 0 1 .1.6 65.4 65.4 0 0 1 .8 8.8 5.9 5.9 0 0 1 4.3 5.7 6 6 0 0 1 -5.9 5.9 5.9 5.9 0 0 1 -2.4-11.3c-.1-2.4-.3-4.9-.6-7.3l-6.6 4.2-3.3 4.2-1.6 1.2c0 .2.1.5.1.7a83.7 83.7 0 0 1 2.6 20.6h-.2a5.9 5.9 0 1 1 -3.6 0h-.2a81 81 0 0 0 -2.3-19l-6.2 3.7-4.6-1.4 3.5-8.3-5.2-7.3-1.5-6-3.9-2.1-6.7 6.1-1.4 5.2 2 6.6-2 7.5-3 .5-1.7-4.5-.9-4.6 1.6-9.5-1.3-1.7 2.1-5.1 12.5-1.8-4.5-4.5-9.8 2.9-4.8-3.3-8 3.9-7.2-.7 2.5-7.9-5.1-2.8-4.5.3-5.8-2.8h-8.2l-27.5-1.4-18.3-2.5-.6.9-.6.9a69.7 69.7 0 0 0 -10.3 30.5 6 6 0 0 1 3.4 5.4 5.9 5.9 0 0 1 -5.9 5.9 5.9 5.9 0 0 1 -1.5-11.6 73.1 73.1 0 0 1 10.9-32.3l.2-.3-11.3-1.5-6.3-1.3-1.5 1.2a82.1 82.1 0 0 0 -28.9 51 5.9 5.9 0 0 1 3.7 5.5 6 6 0 0 1 -5.9 5.9 5.8 5.8 0 0 1 -5.9-5.9 5.9 5.9 0 0 1 4.1-5.6 85.6 85.6 0 0 1 29.4-53.1l-2.5-.5-3.9-.9-22.3-6-1.6 5-8 .5-1.2 13.1-7.7 14.6v5.3l-3.9 8.6.2 9.7 7.5 30.3 8.7 4.9 4 5.4.8 5.2 12.2 1.6-.8 1.2 18.3 10.6 10.1 1.6 4.6-2.1 8.8 1.2 7.1 7.4 1.9 6.3 7 4.8 2.8-4.4 6.8.2 9.6 14 2.1 7.2 9.8 2-1.3-5.5 3-6.3 7.7-4.4 9.5-7.6 8.2 2.5 2.2-1.9 5.3 4 5.9-2 .9-4.9 5.8-1.7 5.1-1 7.2.3 6.3 3.5 4.6-3.6 8.4 6.4v6.6l5.2 7.8 9.9 5.7.6-10.9-4-8.6-7.5-12.6 1.8-8.4 7.4-8.4 2.2-4.7 11.5-14.4-2.4-3.9h.8l-3.9-3.5.3-4-1.3-1.3 4.1.3 1.2-.6.7-2.9h.1l-3.6-7.5 1.5-1.6 4.5.7-.9-7.6 1.2-.3 7.4-3.9 2-3h.2l.6.9 2.1-2.5-3-5.8v-1.3zm-127.5 53.2a5.9 5.9 0 1 1 5.9-5.9 5.9 5.9 0 0 1 -5.9 5.9zm56.2 23.4a5.8 5.8 0 0 1 -5.9-5.9 6.1 6.1 0 0 1 3.7-5.5c-.1-1.3-.2-2.6-.4-3.9-4.1-26.8-26-46.3-52.2-46.3-21.8 0-41 13.5-49.1 34.5a39.3 39.3 0 0 0 -1.9 5.8 5.9 5.9 0 0 1 -3.2 10.9 5.9 5.9 0 0 1 -.7-11.8 66 66 0 0 1 2-6.3c8.7-22.6 29.5-37.1 52.9-37.1a55.8 55.8 0 0 1 37.1 14.3 59 59 0 0 1 19 35.4 31.2 31.2 0 0 1 .5 4.4 5.7 5.7 0 0 1 4.1 5.6 5.9 5.9 0 0 1 -5.9 5.9z"/></symbol><symbol id="contour-plot"><path d="m71.5 142.1c6.4 5.3 19.5 3.6 29.2-.7a28 28 0 0 0 13.3-12.3 23.4 23.4 0 0 0 2-5.8c1.1-5.6-.2-10.9-3.6-14.5a17.1 17.1 0 0 0 -17.7-4.7c-12.5 3.4-23.9 17.9-26.3 28.8a8.8 8.8 0 0 0 3.1 9.2zm3.8-7.7a26.2 26.2 0 0 1 2.2-5.8c3.9-7.6 11.5-15.6 19.1-17.7 4.3-1.2 7.7-.3 10.6 2.8s2.5 4.9 1.9 8.2c-1.1 5.5-5.3 10.3-11.3 13-9.1 4.1-18.8 4.2-21.9 1.8a2.1 2.1 0 0 1 -.6-2.3zm24.7 27.5c12.8-4.4 46.1-19.5 55.5-38a27.5 27.5 0 0 0 1.5-3.6 18.7 18.7 0 0 0 -2.4-17.1c-7.5-11-32.8-21.9-55.3-20.2-16.1 1.2-27.9 8.6-33.9 21.2-10.2 21.4-17.6 36.9-10 51.8s27.6 11.9 44.6 5.9zm-28.2-54.6a3 3 0 0 1 .4-.8c6.2-12.3 18.4-15.7 27.6-16.4 19.9-1.6 42.6 7.9 48.9 17.1a11.5 11.5 0 0 1 1.6 10.9c-.3.9-.7 1.7-1.1 2.6-7.7 15.1-37.4 29.6-51.5 34.5s-31.4 6.4-36-2.5c-5.7-11.2-.2-23.9 10.1-45.4zm4 79.3c20.6 3.1 39.5-4.8 63.5-14.9 29.6-12.4 45.7-25.3 57.5-46l1.2-2.2c5-9.8 8.5-24.1 4.3-37.2-3.3-10.2-10.5-17.9-21.3-23-27.8-12.9-70.9-21.7-92.3-13.4s-38.9 31.2-46 63.5c-5.3 24-3.3 43.6 5.8 56.8 6.3 9.1 15.5 14.6 27.3 16.4zm-26.2-71.6c6.6-29.9 21.4-50.7 41.7-58.5 18.7-7.3 60.7 1.2 86.7 13.2 9 4.2 14.9 10.5 17.5 18.8 3.8 11.9 0 25.2-4.8 33.7-11 19.2-26.2 31.3-54.1 43-23.9 10-41.1 17.2-59.7 14.4-9.9-1.5-17.4-6-22.5-13.4-7.9-11.4-9.5-29.6-4.8-51.2zm29.8 95.5c19 3.3 40.6.2 60.8-8.8l11.3-4.8c24.8-10.4 52.3-22 70.6-57.9a153.7 153.7 0 0 0 9-22.1c7.3-23.1 6.1-43-3.6-59-14.7-24.3-43.2-30.9-51.7-32.4-13.8-2.4-28-5.4-40.6-7.9-7.7-1.7-14.5-3-20-4.1-25.9-4.8-48.4 4.8-65.2 27.9-13 17.9-22.2 44.2-25.1 72-2.8 26.2.3 50.5 8.2 65 9.5 17.3 25.5 28.3 46.3 32.1zm-47.5-96.4c2.8-26.6 11.5-51.6 23.8-68.6 15.3-21 34.8-29.4 58.2-25 5.5 1 12.2 2.4 19.9 4 12.6 2.6 26.9 5.5 40.8 8 7.7 1.3 33.7 7.4 46.8 29 8.7 14.3 9.6 32.2 2.9 53.2a136.8 136.8 0 0 1 -8.6 21.3c-17 33.4-42.3 44-66.9 54.3l-11.4 4.9c-34.8 15.5-79.6 13.6-98-20.2-7.3-13.3-10.1-36-7.5-60.9zm214.1 110.9v11h-244.5v-234.5h11v223.5z"/></symbol><symbol id="cutaway-drawing"><path d="m89.1 151.9c0 4.6-1.9 8.3-4.1 8.3s-3.9-3.3-4.2-7.5l-28.5-20.7 1.2-6.6 28.5 20.8a3.8 3.8 0 0 1 .9-1.5l-4.8-51.5 3.4-1.2 4.8 52c1.6 1.1 2.8 4.2 2.8 7.9zm148.9 0a102.8 102.8 0 0 1 -139.8 95.8v-.9a39.2 39.2 0 0 0 6-4.3l1.8-1.7c15.8-15.2 26.9-46.9 27.8-84.1h.1v-9.7h-.1c-.9-37.1-12-68.9-27.8-84.1l-1.8-1.6a39.2 39.2 0 0 0 -6-4.3v-.9a102.8 102.8 0 0 1 26.1-6.4v-2.1a22.2 22.2 0 1 1 25 0v2.5a103 103 0 0 1 88.7 101.8zm-46.6 40 .5-.4 11.5 9.5 5.5-5.8-10-11 .3-.6 14.6 3 2.2-7.7-14.1-5c0-.2.1-.5.1-.7l14.3-4.2-1.7-7.8-14.8 2.1-.3-.6 10.7-10.4-5.2-6.1-12 8.8-.6-.4 4.6-14.2-7.4-2.9-6.5 13.4h-.7l-2.7-14.7-7.9.9.6 14.9-.7.2-9.2-11.7-6.6 4.5 7.5 12.9-.5.5-13.6-6-3.8 7 12.7 7.9a6.4 6.4 0 0 0 -.2.7l-14.9 1v8l13.8 1-12.1 6.6 3.3 7.3 14-5.3.4.6-8.2 12.4 6.4 4.9 9.8-11.2.7.3-1.4 14.8 7.8 1.3 3.5-14.5h.7l5.7 13.7 7.6-2.5zm10.7-87.1 3.4-5.9-3.4-2.4-4.4 5.2 1.1-6.7-4.1-1.1-2.2 6.5-1.4-6.7-4.2.5.2 6.8-3.7-5.7-3.7 1.9 2.6 6.3-5.5-4.1-2.8 3.2 4.7 4.9-6.6-1.8-1.5 3.9 6.2 3-6.8.6v4.2l9.2.8-7.9 4.9 1.9 3.7 6.4-2.5-4.2 5.5 3.1 2.8 5.1-4.6-2 6.5 3.9 1.6 3.1-6.1.5 6.8h4.2l.7-6.8 2.9 6.2 3.9-1.4-1.7-6.6 4.9 4.7 3.1-2.7-4-5.5 6.3 2.7 2-3.7-5.7-3.8 6.9.3.5-4.1-6.7-1.6 6.5-2.1-.9-4.1-6.8 1 5.3-4.4-2.4-3.4zm-77.8-65.3v-3.7a6.4 6.4 0 0 1 6.4-6.4h12.2a6.4 6.4 0 0 1 6.4 6.4v3.7a16.2 16.2 0 1 0 -25 0zm-3 117.2c-.9 37.2-12 68.9-27.8 84.1l-1.8 1.7a39.2 39.2 0 0 1 -6 4.3 27.6 27.6 0 0 1 -13.2 3.6c-27 0-49-44.2-49-98.5s22-98.6 49-98.6a26.6 26.6 0 0 1 13.2 3.7 39.2 39.2 0 0 1 6 4.3l1.8 1.6c15.8 15.2 26.9 47 27.8 84.1h.1v9.7zm-10.2-1.4v-6.9l5.4-.7c-.7-29.7-8.6-55.6-20.3-70.7-1.5-1.8-3-3.5-4.5-5a39 39 0 0 0 -6-4.9 25.7 25.7 0 0 0 -11.1-4l-.4 13.6h-3.5l-.4-13.6c-22.5 2.3-40.7 38.7-41.9 84.1l9.3 1.2v6.9l-9.3 1.3c1.2 45.3 19.3 81.7 41.8 84l.5-16.1h3.5l.5 16.1a25.8 25.8 0 0 0 11-4 33.3 33.3 0 0 0 6-4.8 58.3 58.3 0 0 0 4.5-5.1c11.7-15.1 19.6-40.9 20.3-70.6zm80.4-44.2a4.2 4.2 0 1 0 4.2 4.2 4.2 4.2 0 0 0 -4.2-4.2zm-11.8 50.6a11.2 11.2 0 1 0 11.2 11.2 11.2 11.2 0 0 0 -11.2-11.2z"/></symbol><symbol id="dasymetric-map"><path d="m239.343 154.885 6.32-28.405-6.885-18.275 3.939-41.777-29.11-33.368-7.364-20.819-14.192-10.241-26.85 19.149-46.846-3.693-39.999-15.043-30.698 26.647-36.686 21.54 2.084 34.408 8.071 7.908 3.305 32.881-17.69 15.414.929 26.24-5.333 21.484 13.545 28.586 16.984 1.278 6.174 8.361v10.55l19.435 16.29 48.101-7.041 16.174-9.198v-10.72l17.116-8.557 14.472 6.974 4.658-2.513 20.108 28.432 16.31-8.538 19.032-2.655 24.653-16.079-7.559-32.731zm-47.324-140.931 6.08 4.387 6.969 19.706 27.586 31.622-3.757 39.859 6.655 17.667-4.525 20.337-18.958-6.544-7.078-17.494-28.604.667-21.168-28.891 21.485-32.228-4.9-34.671zm-138.67 23.029 27.004-23.441 35.868 13.49 46.097 3.634 4.249 30.07-21.308 31.962-18.477 26.782-11.615 5.452-25.593-10.584-8.212-27.242-27.441-7.703-26.624 5.961-4.772-4.675-1.497-24.729zm174.757 182.694-17.151 11.186-18.552 2.589-10.274 5.379-20.17-28.521-7.868 4.245-15.032-7.244-9.889-51.055-.098-.08-.119-.616-10.503-8.095 1.4-14.002 13.436-6.306 16.127-23.376 22.135 30.21 26.958-.629 6.216 15.368 24.216 8.358-7.35 34.368z"/></symbol><symbol id="dendrogram"><path d="m227.422 96.5v-94.5h-151.594v141.75h-47.25v68.906h-26.578v41.344h9.844v-31.5h43.312v31.5h9.844v-41.344h-26.578v-59.062h84.656v59.062h-26.578v41.344h9.844v-31.5h43.312v31.5h9.844v-41.344h-26.578v-68.906h-47.25v-131.906h131.906v84.656h-26.578v116.156h9.844v-106.312h43.312v147.656h9.844v-157.5z"/></symbol><symbol id="density-plot"><path d="m236.393 189.485c-22.009-24.21-30.812-59.424-48.419-59.424-13.205 0-14.306 13.205-30.812 13.205-35.214 0-26.411-140.856-66.026-140.856-39.616 0-29.652 140.474-70.428 187.075-7.704 8.804-18.708 12.105-18.708 12.105h252s-9.738-3.45-17.607-12.105z"/></symbol><symbol id="dot-distribution-map"><path d="m254 72-5.1-3.7-2.6-7.9-6.5-.6-1.6 11.3-2.1 3.3-1.3 2.2-7.6 2.1-6.3 1.5-5.1 6.6 1.4 3.1-10.7 6.8-3.3 4.2-3.1 2.3-8.3 4.9-4.6-1.4 3.5-8.3-5.2-7.3-1.5-6.1-3.9-2.1-6.7 6.1-1.4 5.2 2 6.6-2 7.5-3 .5-1.7-4.5-.9-4.6 1.6-9.5-1.3-1.7 2.1-5.1 12.5-1.8-4.5-4.5-9.8 2.9-4.8-3.3-8 3.9-7.2-.7 2.5-7.9-5.1-2.8-4.5.3-5.8-2.8h-8.2l-27.5-1.4-34-4.6-13.8-2.8-3.9-.9-22.3-6-1.6 5-8 .5-1.2 13.1-7.7 14.6-.1 5.3-3.8 8.6.2 9.7 7.5 30.3 8.7 4.9 4 5.4.8 5.2 12.2 1.6-.8 1.2 18.3 10.6 10.1 1.6 4.6-2.1 8.8 1.2 7.1 7.4 1.9 6.3 7 4.8 2.8-4.4 6.8.2 9.6 14 2.1 7.2 9.8 2-1.3-5.5 3-6.3 7.7-4.4 9.5-7.6 8.2 2.5 2.2-1.9 5.3 4 5.9-2 .9-4.9 5.8-1.7 5.1-1 7.2.3 6.3 3.5 4.6-3.6 8.4 6.4-.1 6.6 5.2 7.8 9.9 5.7.6-10.9-4-8.6-7.4-12.6 1.8-8.4 7.4-8.4 2.2-4.7 11.5-14.4-2.4-3.9h.1.2l.4-.1h.1l-3.9-3.5.3-4-1.3-1.3 4.1.3 1.2-.6.7-2.9h.1l-3.6-7.5 1.5-1.6 4.5.7-.9-7.6 1.2-.3 7.4-3.9 2-3 .2.1.6.9 2.1-2.5-3-5.8v-1.3l3.9-5.9zm-217.5 70.9c-3.3 0-5.9-2.6-5.9-5.9s2.6-5.9 5.9-5.9 5.9 2.6 5.9 5.9c0 3.2-2.7 5.9-5.9 5.9zm6.8-64.5c-3.5 0-6.4-2.9-6.4-6.4s2.9-6.4 6.4-6.4 6.4 2.9 6.4 6.4-2.8 6.4-6.4 6.4zm26.6 28.1c-3.3 0-5.9-2.6-5.9-5.9s2.6-5.9 5.9-5.9 5.9 2.6 5.9 5.9c0 3.2-2.6 5.9-5.9 5.9zm14.8 18.7c-3.3 0-5.9-2.6-5.9-5.9s2.6-5.9 5.9-5.9 5.9 2.6 5.9 5.9c0 3.2-2.7 5.9-5.9 5.9zm16.2-13.3c-3.3 0-5.9-2.6-5.9-5.9s2.6-5.9 5.9-5.9 5.9 2.6 5.9 5.9c0 3.2-2.6 5.9-5.9 5.9zm24.1 60.5c-3.3 0-5.9-2.6-5.9-5.9s2.6-5.9 5.9-5.9 5.9 2.6 5.9 5.9c.1 3.3-2.6 5.9-5.9 5.9zm33.5-40.3c-3.3 0-5.9-2.6-5.9-5.9s2.6-5.9 5.9-5.9 5.9 2.6 5.9 5.9c0 3.2-2.6 5.9-5.9 5.9zm33.5 16.7c-3.3 0-5.9-2.6-5.9-5.9s2.6-5.9 5.9-5.9 5.9 2.6 5.9 5.9c0 3.2-2.7 5.9-5.9 5.9z"/></symbol><symbol id="dot-plot"><path d="M38.9,226.3c0,10.8-8.7,19.5-19.5,19.5C8.7,245.7,0,237,0,226.3c0-10.8,8.7-19.5,19.5-19.5
			C30.2,206.8,38.9,215.5,38.9,226.3z M91.8,206.8c-10.8,0-19.5,8.7-19.5,19.5c0,10.8,8.7,19.5,19.5,19.5c10.8,0,19.5-8.7,19.5-19.5
			C111.3,215.5,102.6,206.8,91.8,206.8z M164.2,206.8c-10.8,0-19.5,8.7-19.5,19.5c0,10.8,8.7,19.5,19.5,19.5
			c10.8,0,19.5-8.7,19.5-19.5C183.6,215.5,174.9,206.8,164.2,206.8z M236.5,206.8c-10.8,0-19.5,8.7-19.5,19.5
			c0,10.8,8.7,19.5,19.5,19.5c10.8,0,19.5-8.7,19.5-19.5C256,215.5,247.3,206.8,236.5,206.8z M19.5,156.2C8.7,156.2,0,164.9,0,175.6
			c0,10.8,8.7,19.5,19.5,19.5c10.8,0,19.5-8.7,19.5-19.5C38.9,164.9,30.2,156.2,19.5,156.2z M91.8,156.2c-10.8,0-19.5,8.7-19.5,19.5
			c0,10.8,8.7,19.5,19.5,19.5c10.8,0,19.5-8.7,19.5-19.5C111.3,164.9,102.6,156.2,91.8,156.2z M164.2,156.2
			c-10.8,0-19.5,8.7-19.5,19.5c0,10.8,8.7,19.5,19.5,19.5c10.8,0,19.5-8.7,19.5-19.5C183.6,164.9,174.9,156.2,164.2,156.2z
			 M236.5,156.2c-10.8,0-19.5,8.7-19.5,19.5c0,10.8,8.7,19.5,19.5,19.5c10.8,0,19.5-8.7,19.5-19.5
			C256,164.9,247.3,156.2,236.5,156.2z M91.8,105.5c-10.8,0-19.5,8.7-19.5,19.5s8.7,19.5,19.5,19.5c10.8,0,19.5-8.7,19.5-19.5
			S102.6,105.5,91.8,105.5z M164.2,105.5c-10.8,0-19.5,8.7-19.5,19.5s8.7,19.5,19.5,19.5c10.8,0,19.5-8.7,19.5-19.5
			S174.9,105.5,164.2,105.5z M236.5,105.5c-10.8,0-19.5,8.7-19.5,19.5s8.7,19.5,19.5,19.5c10.8,0,19.5-8.7,19.5-19.5
			S247.3,105.5,236.5,105.5z M91.8,54.9c-10.8,0-19.5,8.7-19.5,19.5s8.7,19.5,19.5,19.5c10.8,0,19.5-8.7,19.5-19.5
			S102.6,54.9,91.8,54.9z M164.2,54.9c-10.8,0-19.5,8.7-19.5,19.5s8.7,19.5,19.5,19.5c10.8,0,19.5-8.7,19.5-19.5
			S174.9,54.9,164.2,54.9z M164.2,4.3c-10.8,0-19.5,8.7-19.5,19.5c0,10.8,8.7,19.5,19.5,19.5c10.8,0,19.5-8.7,19.5-19.5
			C183.6,13,174.9,4.3,164.2,4.3z"/></symbol><symbol id="error-bars"><path d="m249.3 254.3h-246.2c.9 0 .8-38.9.8-56.1v-192.6c0-4.4 6.9-4.4 6.9 0v241.8h26.1v-110.8h22.3v18h-12.3c-3.5 0-3.5 3.5 0 3.5h30.6c3.5 0 3.5-3.5 0-3.5h-12.8v-18h24.1v110.8h23.7v-150.1l24.1-.2v38.2h-8.6c-3 0-3 3.5 0 3.5h21.8c3 0 3-3.5 0-3.5h-8.6v-38.2l23.2.2v150.1h24.2v-196.2h22.4v28.3h-10.9c-3.8 0-3.8 3.5 0 3.5h27.6c3.8 0 3.8-3.5 0-3.5h-10.9v-28.3h23.8v196.2h8.7c4.4 0 4.4 6.9 0 6.9zm-184.6-191.1h13.3c3.5 0 3.5-3.4 0-3.4h-30.8c-3.5 0-3.5 3.4 0 3.4h12v73.4h5.5zm76.5 27.1v-10.1h9.3c3 0 3-3.5 0-3.5h-23.2c-3 0-3 3.5 0 3.5h9.3v16.9h4.6zm75.6-61.2v-10.8h11.8c3.7 0 3.7-3.5 0-3.5h-29.3c-3.8 0-3.8 3.5 0 3.5h11.7v32.9h5.8z"/></symbol><symbol id="exploded-view-diagram"><path d="m250.9 174.8h-5.4v-26.3a14.9 14.9 0 0 0 -15.1-14.8h-24.4a2.4 2.4 0 0 1 -1.6-.7l-41.8-45.8a10.8 10.8 0 0 0 -7.3-3.1h-78.5a15.4 15.4 0 0 0 -14.2 9.9l-18.1 38a2.1 2.1 0 0 1 -2.1 1.6c-9.4.1-22.7.1-22.7 17.1v21.9a2.1 2.1 0 0 1 -2.1 2.1h-3.4a2.1 2.1 0 0 0 -2.1 2.1v7a9.6 9.6 0 0 0 9.6 9.5h3.9a2.1 2.1 0 0 0 2.1-1.7 34.6 34.6 0 0 1 68-.1 2 2 0 0 0 2.1 1.7h70a2 2 0 0 0 2-1.7 34.6 34.6 0 0 1 68 0 1.9 1.9 0 0 0 2 1.7h3.6a9.5 9.5 0 0 0 9.6-9.5v-6.9a2 2 0 0 0 -2.1-2zm-141.1-43.9a1.9 1.9 0 0 1 -2 1.9h-45.9a2 2 0 0 1 -2-2.4l13.3-31.6a3.5 3.5 0 0 1 3.4-2.8h31.2a2 2 0 0 1 2 1.9zm72.4 1.4h-55.8a2 2 0 0 1 -1.9-2v-31.8a2 2 0 0 1 1.9-2h27.6a1.5 1.5 0 0 1 1.4.7l28.2 31.8a2 2 0 0 1 -1.4 3.3zm-113.8 69.2a25.8 25.8 0 1 0 25.9 25.8 25.8 25.8 0 0 0 -25.9-25.8zm0 38.4a12.7 12.7 0 1 1 12.7-12.6 12.7 12.7 0 0 1 -12.7 12.6zm150.8-46.3a25.7 25.7 0 1 0 25.8 25.7 25.8 25.8 0 0 0 -25.8-25.7zm0 38.3a12.6 12.6 0 1 1 12.7-12.6 12.7 12.7 0 0 1 -12.7 12.6zm-205.6-173.3a21.2 21.2 0 0 1 37.4 18.6 1.2 1.2 0 0 0 .7 1.5l11.6 5.8 30-60.3-23.1-11.5a9.5 9.5 0 0 0 -10.5 1.6l-20.4 16a1.2 1.2 0 0 1 -1.6.3c-5.2-2.5-12.5-6.2-17.2 3.2l-6 12.2a1.3 1.3 0 0 1 -1.7.5l-1.9-.9a1.3 1.3 0 0 0 -1.7.6l-1.9 3.8a5.8 5.8 0 0 0 2.6 7.9l2.1 1.1a1.2 1.2 0 0 0 1.6-.4zm34.6-24.9 16-13.9a2.2 2.2 0 0 1 2.6-.6l17.2 8.6a1.2 1.2 0 0 1 .5 1.6l-9 18.2a1.3 1.3 0 0 1 -1.7.5l-25.2-12.6a1.2 1.2 0 0 1 -.4-1.8zm115.9 16 3.3 7.7a4.3 4.3 0 0 1 .1.5l18.1 42.5 39.8-17a1.7 1.7 0 0 0 .9-1.8 25.7 25.7 0 0 1 14.9-29.4l-9.1-21.3-41.4-19a7.6 7.6 0 0 0 -5.9 0l-30.9 13.1 10.5 24.5zm4.6-20.8 18.9-8.1a1.1 1.1 0 0 1 1.1 0l28.6 13.7a1.5 1.5 0 0 1 0 2.7l-38.1 16.3a1.4 1.4 0 0 1 -1.9-.8l-9.4-21.9a1.4 1.4 0 0 1 .8-1.9z"/></symbol><symbol id="flow-map"><path d="m254 72-5.1-3.7-2.6-7.9-6.5-.6-1.6 11.3-2.1 3.3-1.3 2.2-7.6 2.1-6.3 1.5-5.1 6.6 1.4 3.1-10.7 6.8-3.3 4.2-3.1 2.3-8.3 4.9-4.6-1.4 3.5-8.3-5.2-7.3-1.5-6.1-3.9-2.1-6.7 6.1-1.4 5.2 2 6.6-2 7.5-3 .5-1.7-4.5-.9-4.6 1.6-9.5-1.3-1.7 2.1-5.1 12.5-1.8-4.5-4.5-9.8 2.9-4.8-3.3-8 3.9-7.2-.7 2.5-7.9-5.1-2.8-4.5.3-5.8-2.8h-8.2l-27.5-1.4-34-4.6-13.8-2.8-3.9-.9-22.3-6-1.6 5-8 .5-1.2 13.1-7.7 14.6-.1 5.3-3.8 8.6.2 9.7 7.5 30.3 8.7 4.9 4 5.4.8 5.2 12.2 1.6-.8 1.2 18.3 10.6 10.1 1.6 4.6-2.1 8.8 1.2 7.1 7.4 1.9 6.3 7 4.8 2.8-4.4 6.8.2 9.6 14 2.1 7.2 9.8 2-1.3-5.5 3-6.3 7.7-4.4 9.5-7.6 8.2 2.5 2.2-1.9 5.3 4 5.9-2 .9-4.9 5.8-1.6 5.1-1 7.2.3 6.3 3.5 4.6-3.6 8.4 6.4-.1 6.6 5.2 7.8 9.9 5.7.6-10.9-4-8.6-7.4-12.6 1.8-8.4 7.4-8.4 2.2-4.7 11.5-14.4-2.4-3.9h.1.2l.4-.1h.1l-3.9-3.5.3-4-1.3-1.3 4.1.3 1.2-.6.7-2.9h.1l-3.6-7.5 1.5-1.7 4.5.7-.9-7.6 1.2-.3 7.4-3.9 2-3 .2.1.6.9 2.1-2.5-3-5.8v-1.3l3.9-5.9zm-98.9 89.3 1.4-8.1-90.3-15.2c-.1-.2-12-21.9-26-37.2l-3 3.2-4.2-14.1 14.3 3.4-3 3.2c9.2 9.9 17.4 22.3 22.3 30.3l18.2-22.7-9-7.2 33.3-13-5.4 35.3-9-7.2-16 20 79 13.3 1.4-8.1 18.8 15.5z"/></symbol><symbol id="flowchart"><path d="m219.542 143.225v-90.575h-40.896l-50.716-50.716-50.717 50.716h-40.79v90.966c-19.374 2.404-34.423 18.959-34.423 38.973v.191c0 21.662 17.623 39.285 39.285 39.285h.191c21.662 0 39.285-17.623 39.285-39.285v-.191c0-20.038-15.084-36.609-34.492-38.981v-81.113h31.051l50.716 50.716 50.716-50.716h30.945v80.73h-34.458v78.761h78.761v-78.761zm-148.626 39.364v.191c0 16.233-13.207 29.44-29.44 29.44h-.191c-16.233 0-29.44-13.207-29.44-29.44v-.191c0-16.233 13.207-29.439 29.44-29.439h.191c16.233 0 29.44 13.207 29.44 29.439zm173.239 29.552h-59.071v-59.071h59.071z"/></symbol><symbol id="forest-plot"><path d="M146.2,151.5l13.9,13.9L174,151.5h60.6V141H173.2l-13.1-13.1L146.9,141H130.2V114.4h42.2V103.9H130.2v-27h11.5L154.8,90,168,76.9h51.3V66.3H168.7L154.8,52.4,140.9,66.3H130.2V50.4l11.4-11.5h17.9V28.4H139.7l-10-10V2.1h-5.2V18.6L114.2,28.8H89.9V39.3h23.2l11.9,12v15H86.4V76.9H125v27h-5.1L106.4,90.3,92.8,103.9H39.5v10.5H92.8l13.6,13.5,13.5-13.5H125V141H81v10.5h44v27.4H109.7L96.6,165.8,83.4,178.9H37.3v10.5H82.7l13.9,13.9,13.9-13.9H125v27H83.1v10.5H125v25.9h5.2V226.9h5.3L149,240.5l13.5-13.6h46.1V216.4H162.5L149,202.9l-13.5,13.5h-5.3v-27h26.7V178.9H130.2V151.5Zm8.6-88.4,8.2,8.1-8.2,8.2-8.1-8.2ZM127.2,26.5l8.1,8.1L128,41.9h-1.7L119,34.6ZM98.9,109.8v-1.4l7.5-7.4,6.6,6.6v3l-6.6,6.7Z"/></symbol><symbol id="four-quadrants-diagram"><path d="M255,137.6H137.6V255h-15V137.6h-.2v-.2H1v-15H122.4V1h15V122.4h.2v.2H255ZM89.2,39.7H29.6V52H89.2ZM80.5,60.3H38.3V72.6H80.5ZM226.8,39.7H167.3V52h59.5Zm-8.6,20.6H175.9V72.6h42.3Zm-129,113H29.6v12.2H89.2Zm-8.7,20.6H38.3v12.3H80.5Zm146.3-20.6H167.3v12.2h59.5Zm-8.6,20.6H175.9v12.3h42.3Z"/></symbol><symbol id="funnel-diagram"><path d="m80.75 160.288h94.5v40.95h-94.5zm-32.127-64.576h158.754l20.373-40.95h-199.5zm32.127 117.338h94.5v40.95h-94.5zm-78.75-211.05 20.374 40.95h211.253l20.373-40.95zm72.873 146.475h106.253l20.374-40.95h-147z"/></symbol><symbol id="funnel-plot"><path d="m253.7 246.4-120-242.8a5.2 5.2 0 0 0 -4.6-2.8 4.8 4.8 0 0 0 -4.5 2.8l-122.3 242.8a5 5 0 0 0 .2 4.9 5.3 5.3 0 0 0 4.4 2.5h242.2a5.3 5.3 0 0 0 4.4-2.5 5 5 0 0 0 .2-4.9zm-124.5-228.7h-.3l.2-.4zm-5.1 9.4v216.4h-108.9zm10 216.4v-216l106.8 216zm-12.7-161a9.2 9.2 0 1 1 -9.2-9.1 9.1 9.1 0 0 1 9.2 9.1zm36.4 6.3a9.1 9.1 0 1 1 -9.1-9.1 9.2 9.2 0 0 1 9.1 9.1zm-40.9 38.7a9.2 9.2 0 1 1 -9.1-9.1 9.2 9.2 0 0 1 9.1 9.1zm-8.3-22.5a9.2 9.2 0 1 1 -9.2-9.2 9.2 9.2 0 0 1 9.2 9.2zm60 28.9a9.1 9.1 0 1 1 -9.1-9.2 9.1 9.1 0 0 1 9.1 9.2zm33.5-48.4a9.1 9.1 0 0 1 -18.2 0 9.1 9.1 0 0 1 18.2 0zm-103.1-46.9a9.1 9.1 0 1 1 -9.1-9.1 9.1 9.1 0 0 1 9.1 9.1zm19 126.1a9.1 9.1 0 1 1 -9.1-9.1 9.2 9.2 0 0 1 9.1 9.1zm-29.4-14.8a9.1 9.1 0 1 1 -9.1-9.2 9.1 9.1 0 0 1 9.1 9.2zm80.8 18.9a9.2 9.2 0 1 1 -9.2-9.1 9.2 9.2 0 0 1 9.2 9.1zm43.5 41.3a9.2 9.2 0 1 1 -9.1-9.1 9.2 9.2 0 0 1 9.1 9.1zm-49.1-6.3a9.2 9.2 0 1 1 -9.1-9.1 9.1 9.1 0 0 1 9.1 9.1zm-76.7-1.1a9.1 9.1 0 1 1 -9.1-9.1 9.1 9.1 0 0 1 9.1 9.1z"/></symbol><symbol id="gantt-chart"><path d="m254 254h-252v-252h11.813v240.188h240.187zm-224.437-47.25v19.688h98.437v-19.688zm67.244-47.25v19.688h109.943v-19.688zm-67.244-47.25v19.688h177.187v-19.688zm0-47.25v19.688h224.437v-19.688zm19.687-47.25v19.688h126v-19.688z"/></symbol><symbol id="gauge-chart"><path d="M127.7,30.4L127.7,30.4C57.3,30.4,0,87.7,0,158.1v13.5h47.1v-16.1h-21c1.3-52,41.8-94.7,93.6-98.8V76h16.1V56.7
		c51.8,4.2,92.2,46.9,93.6,98.8h-21v16.1h47.1v-13.5C255.3,87.7,198.1,30.5,127.7,30.4z"/>,<path d="M110.4,178.8l-0.1,0.2c-3.4,9.6,1.7,20.1,11.2,23.5c2,0.7,4.1,1.1,6.2,1.1c4.8,0,9.6-1.9,13.1-5.3l0.4-0.4l0.1-0.2
		c1-1.2,1.9-2.4,2.6-3.8l58.5-85.4l-84.7,61.2C114.4,171.8,111.8,175.1,110.4,178.8z"/></symbol><symbol id="heatmap"><path d="m131.9 212.3h57.1v39.8h-57.1zm65-52.1h57.1v39.8h-57.1zm-194.9-156.3h57.1v39.8h-57.1zm0 156.3h57.1v39.8h-57.1zm194.9-52.1h57.1v39.8h-57.1zm0-104.2h57.1v39.8h-57.1zm-129.9 52.1h57.1v39.8h-57.1zm64.9-52.1h57.1v39.8h-57.1z" opacity=".5"/>,<path d="m67 212.3h57.1v39.8h-57.1zm-65 0h57.1v39.8h-57.1zm194.9 0h57.1v39.8h-57.1zm-194.9-104.2h57.1v39.8h-57.1zm129.9 0h57.1v39.8h-57.1zm-64.9-104.2h57.1v39.8h-57.1zm129.9 52.1h57.1v39.8h-57.1zm-129.9 104.2h57.1v39.8h-57.1z"/></symbol><symbol id="histogram"><path d="m238.25 242.188v-114.188h-33.469v114.188h-10.336v-177.188h-33.468v177.188h-10.336v-224.438h-33.469v224.438h-10.336v-129.938h-33.469v129.938h-10.336v-98.438h-33.468v98.438h-15.75v-240.188h-11.813v252h252v-11.812z"/></symbol><symbol id="hive-plot"><path d="m254 36.438-6.01-10.41-24.934 14.395c-18.077-23.893-46.257-38.016-76.388-38.016-7.371 0-14.615.864-21.615 2.503-6.848-1.64-13.883-2.503-20.999-2.503-32.009 0-55.604 12.039-75.983 38.898l-21.062-12.16-5.009 8.675 21.279 12.285c-11.481 31.136-8.483 61.663 8.622 86.402 18.88 27.306 52.812 44.894 87.846 45.979v69.107h12.021v-32.24c61.155-2.886 110.021-53.54 110.021-115.397 0-18.531-4.434-36.714-12.873-53.036zm-122.232 70.571 53.363-30.809c-3.019 29.192-24.591 52.971-53.363 58.732zm-6.969-9.857-56.912-32.859c10.53-24.435 31.93-42.412 57.155-49.052 24.167 6.524 45.532 24.016 57.92 48.331zm-60.888-23.588 55.836 32.237v65.928c-33.419-5.504-60.479-36.637-60.479-71.246.001-9.933 1.576-18.951 4.643-26.919zm67.857 134.91v-63.369c31.974-5.547 56.613-30.321 62.436-61.646 5.568 11.777 8.48 24.65 8.48 37.928.001 42.541-29.991 78.704-70.916 87.087zm14.9-196.05c26.56 0 51.426 12.255 67.64 33.05l-22.663 13.084c-10.547-20.458-26.919-36.502-46.062-46.113.362-.004.722-.021 1.085-.021zm-42.614 0c.05 0 .099.003.149.003-19.678 9.783-35.841 26.2-45.038 46.83l-22.348-12.902c18.317-23.72 38.69-33.931 67.237-33.931zm-63.913 118.387c-10.683-15.451-20.365-40.853-8.052-75.619l23.032 13.298c-3.896 9.482-5.869 20.22-5.869 31.994 0 19.931 8.066 40.166 22.129 55.518 1.792 1.956 3.658 3.811 5.59 5.567-14.935-7.296-27.936-17.895-36.83-30.758zm191.631-26.855c0 38.337-20.554 71.961-51.219 90.439 19.843-18.18 32.148-44.283 32.148-73.009 0-18.718-5.192-36.719-15.035-52.424l22.565-13.028c7.568 14.797 11.541 31.252 11.541 48.022z"/></symbol><symbol id="illustrated-diagram"><path d="m254 20a16.3 16.3 0 0 1 -1.5 6.5 15 15 0 0 1 -4.5 4.9 30.7 30.7 0 0 1 -14.2 5.8c-5.9.9-11.5-1.1-17.2-2.2a34.3 34.3 0 0 0 -15.9.7 30.5 30.5 0 0 0 -5.1 1.7l-3.2 1.9a85.4 85.4 0 0 0 -7.8 5.6 44.6 44.6 0 0 0 -8 7 19.4 19.4 0 0 0 -3.4 4.7c-.6 1.5.3 2.6 1.7 3.3a22.6 22.6 0 0 1 5.4 3.2 8.3 8.3 0 0 1 3.1 5.3 24.2 24.2 0 0 1 .7 5.4c0 3.1-.2 8.7 3.4 10a10.2 10.2 0 0 0 4.6.4c2.4-.4 4.9-.6 7.3-.9a42.7 42.7 0 0 1 10.1-.1 51.2 51.2 0 0 1 7.7 2 38.1 38.1 0 0 1 12.6 7 26.6 26.6 0 0 1 5.7 5.9 31.4 31.4 0 0 1 2.8 6.8 17.5 17.5 0 0 1 .8 8.5 33.4 33.4 0 0 1 -1.7 7.6c-1.1 3-2.7 6.6-4.9 9a10.4 10.4 0 0 1 -3.2 2.3 4.2 4.2 0 0 1 -1.3.3 3.9 3.9 0 0 1 .3 1.3 24.1 24.1 0 0 1 -.8 2.5 6.9 6.9 0 0 1 -.7 1.5c-.9 1.7-2.3 2.6-3.8 3.7a17.1 17.1 0 0 1 -5.6 3.1c-2.2.7-4.3 1.6-6.4 2.1a38 38 0 0 1 -7.5.6 75.8 75.8 0 0 1 -8.3-.3 80.5 80.5 0 0 0 -8.4-.5c-6 0-18.2.5-16.6 9.5.5 2.6 1.5 5.5 4.1 6.8a16.9 16.9 0 0 0 4.4 1.2 6.7 6.7 0 0 0 2.8.2l2.5-.4 12.6-2.1c3.3-.4 7.2-.3 10.3 1.1s3.1 1.2 4.3 2.5a18.7 18.7 0 0 1 2 2.9c1.1 1.6 2 3.1 1.2 5.1s-2.6 4.7-3.8 7.1a29.7 29.7 0 0 1 -3.6 5.6c-1.4 1.5-2.6 3.2-4 4.7h-.1l1.4 1.5c4.9 5.8 9.6 11.7 14.4 17.6l6.5 8 1.8 2.2.8.8c.3.3.8 1.2 1.3 1.7l.4-.3a2 2 0 0 1 .8-.4c.2-.2.5-.2.8-.3h.2a4.9 4.9 0 0 1 1.7-.1 4.7 4.7 0 0 1 4.5 1.8c1.3 1.8.9 4.4-.1 6.2a6.7 6.7 0 0 1 -2.3 2.7 6.1 6.1 0 0 1 -2.7 1.5 5.3 5.3 0 0 1 -4.7-1.2 3.6 3.6 0 0 1 -.7-1 3.7 3.7 0 0 1 -1.2-2.1v-.4a1.3 1.3 0 0 1 -.1-.6 5.7 5.7 0 0 1 .8-3.8l-1.8-2-1.9-2.3-14.9-18.3-6.5-7.8-1-1.1c-2.2 1.6-4.8 2.8-6.9 4.2a30.1 30.1 0 0 1 -4.9 2.1c-1.6.6-3.1 1.4-4.8 1.9a19.6 19.6 0 0 1 -18.2-5.3 27.9 27.9 0 0 1 -5.7-8.3c-.6-1.1-1-2.3-1.5-3.4s-.6-2.4-1.5-2.9-3.3 2.7-4.3 4a19.6 19.6 0 0 1 -5.4 5.7c-3.5 2.4-7.4.4-10-2.3-1-1-2.1-1.8-3.1-2.7l-2.7-2.7c-1.6-1.7-4.2-2.7-6.3-3.6s-5.5-.4-7.5.7a12.1 12.1 0 0 0 -4.6 5.2 39.3 39.3 0 0 0 -2 5.4 14.8 14.8 0 0 0 -.2 4.2 8.5 8.5 0 0 0 2.5 5.4c1.6 1.7 4.5 2.8 6.6 3.7a61.6 61.6 0 0 1 6.8 3.4 10.7 10.7 0 0 1 4.5 4.2c1.3 2.2 1.1 4.4 1.1 6.8 0 5-2.5 8.7-6.7 11.3a29.9 29.9 0 0 1 -6.5 3.1c-2.1.7-4.3 1.1-6.4 1.7a59.8 59.8 0 0 0 -7.2 2.2 9.9 9.9 0 0 1 -5.4.8c-2.4-.4-4.3-1.7-6.4-2.9a24 24 0 0 1 -2.7-1.6l-2.6-2.4-5.3-4c-1.2-.9-2.4-2.3-4.1-2.3-5.3.1-6.7 7.7-9.4 11s-3.4 5.2-5.7 7.1a30.4 30.4 0 0 1 -7.2 4.6 14.6 14.6 0 0 1 -12.7.9c-1.8-.7-2.3-2.2-2.6-3.9a21.6 21.6 0 0 1 .7-8 19.1 19.1 0 0 1 4.1-7.5c2.3-2.8 4.9-5.5 7.1-8.4s6-6.7 8.1-10.6a29.3 29.3 0 0 0 2.1-4.4 41.3 41.3 0 0 0 1.7-4.5c.6-2 .2-4.3.2-6.4s-.4-4.2-.4-6.3 0-3.2 0-4.7.3-1.7.4-2.6l-3-.3h-4.7l-21 .4-11.3.2h-3.5c-1.2.1-2.3.4-3.5.6a6.1 6.1 0 0 1 -.7 1.4 5.3 5.3 0 0 1 -6 2.2h-.3a3.3 3.3 0 0 1 -1.7-.1 5.3 5.3 0 0 1 -2.9-2l-.6-.8a3.9 3.9 0 0 1 .1-4.6 5.8 5.8 0 0 1 2-1.8 6 6 0 0 1 4.1-1.4 5.3 5.3 0 0 1 2.8.7 4.4 4.4 0 0 1 2.9 2.3 1.1 1.1 0 0 1 .3.7h.3a15 15 0 0 1 3.7-.5h4.3l23.8-.4h8.9a27.8 27.8 0 0 1 5 0l1.3.2c.3-1.7.9-3.4 1.3-5.1a42.2 42.2 0 0 1 1.8-4.5c.6-1.5 1.4-3 2-4.5a40.6 40.6 0 0 1 4.7-8.7c1.8-2.3 3.6-4.6 5.5-6.8.5-.5 1.1-.9 1.6-1.5l1.1-1.5a39.7 39.7 0 0 0 2.8-3 20.2 20.2 0 0 0 2.7-3.8c.6-1.1 1.1-2.2 1.7-3.2a19.4 19.4 0 0 0 2.6-6.1 13.1 13.1 0 0 0 -2-11.8c-2.5-3.5-5.9-6.4-7.7-10.4s-.2-7.2 1.5-10.3c.4-.8.8-1.7 1.3-2.6h-52.5a5.6 5.6 0 1 1 .5-3.4h54.3l.3-.5c.9-1.5 2.2-3.5 2.3-5.3a8.4 8.4 0 0 0 -1.1-5.6 15.5 15.5 0 0 0 -5.3-4.9 17.3 17.3 0 0 0 -3.8-2.4c-1-.5-2-.6-3-1.1s-3-1.5-3.7-2.7a13.9 13.9 0 0 1 -.6-1.9c-.7-2.3-1.2-5.4.1-7.6s1.7-3.7 3.5-5.2a35.8 35.8 0 0 1 3.7-2.8 27.7 27.7 0 0 1 8.3-3.6 10 10 0 0 1 8.5 1.9 17.3 17.3 0 0 1 1.7 2.1l1.2 1.5c.7 1.3 1.1 2.8 1.8 4.2s2.2 4.6 3.9 6.5 2.7 1.9 4.5 2.6a6.5 6.5 0 0 0 3.4.3c.8 0 1.4-.3 2.2-.3l2.3-.5c2.1-.5 3.7-1.2 3.8-3.6s-1.3-3.6-2.3-5.3a26.6 26.6 0 0 1 -3-6.1c-.7-2.2 0-3.9 1.1-5.8s2.4-4.2 4.3-5.9a23 23 0 0 1 5.2-3.3c3.2-1.6 7.5-2.7 11.1-1.9 1.9.5 4.5.8 5.2 2.8a2.7 2.7 0 0 1 .1 2c-.1.5-.2 1.4.6 1.5l-1.5 1.1-.3-.2c.8 1.1 2-.7 2.5-1.3a3.9 3.9 0 0 0 1.2-3c-.2-1.5-1.1-2.6-1.9-3.9s-1.5-3-2.3-4.4a11.8 11.8 0 0 0 -6.5-5.1c-2.4-.7-5.1-1.2-7.6-1.7l-4.1-.4a17.8 17.8 0 0 1 -3.3-.9c-1.9-.7-5.3-1.3-6-3.6s2.5-6.1 4.4-7.7 4.3-3 6.9-2.9h7.5a29.8 29.8 0 0 1 5.2.2l5.4 1.2a48.1 48.1 0 0 1 11.7 4.2 16.3 16.3 0 0 1 3.9 3.5 5.7 5.7 0 0 1 1.3 2.1l2.7-1.1a43 43 0 0 1 11-3.1 56.4 56.4 0 0 1 11.6-.5 58.9 58.9 0 0 1 10.2 1.8 11.7 11.7 0 0 1 3.5 1.4l.8.4c-.2-1.6 1.1-3.7 2.1-4.8a14.1 14.1 0 0 1 3.9-2.4 38.2 38.2 0 0 1 5.5-2.4c4.3-1.4 8.8-2.7 13.3-2.8 7-.2 14.4.8 20.4 4.8a13.5 13.5 0 0 1 5.4 5.7c.9 1.9 2.1 3.9 1.9 6.1zm-231.6 87.2a8.2 8.2 0 0 0 3.4-.6 12.8 12.8 0 0 1 3.3-.6h4.3c1.2-.1 2.3-.6 3.5-.7a1.8 1.8 0 0 0 1.2-2.1 1.7 1.7 0 0 0 -2.1-1.2c-1.1.1-2.1.5-3.1.6h-4.1a14.3 14.3 0 0 0 -3.5.6 7.9 7.9 0 0 1 -2.9.6 1.7 1.7 0 0 0 -1.7 1.7c0 1.1.7 1.6 1.7 1.7zm11.4 2.4h4.6a1.7 1.7 0 0 1 0 3.4h-8.4l-3.5.6h-2.2a1.5 1.5 0 0 1 -1.8.5h-.4a1.7 1.7 0 0 1 -.7-2.9 4.1 4.1 0 0 1 2.1-1h1.7a27.6 27.6 0 0 0 4-.6 35.3 35.3 0 0 1 4.6 0zm-31 87.8a1.8 1.8 0 0 1 .6-2.3l.6-.2h1.4l3.5-.8 3.7-.4 2.7-.5c3.5-.6 7.7-.9 10.6 1.5a1.7 1.7 0 0 1 -.7 2.9h-.4a1.4 1.4 0 0 1 -2-1 9.5 9.5 0 0 0 -3.7-.5 25.2 25.2 0 0 0 -4.7.6c-2.4.6-4.9.6-7.3 1.2s-3.3 1-4.3-.5zm2.3.7-.2.2zm17.6 4.9c-3 .2-6 0-9.1-.1s-6.1.8-9.2.9-2.2 3.4 0 3.4 5-.6 7.4-.8 5.2.2 7.7.1a39.1 39.1 0 0 0 6.8-.6l1.7-.2h.4a1.7 1.7 0 0 0 3.3.1c1.4-5.1-6.5-3-9-2.8zm198.8 41.9c1.3-.2 2.4-1.1 3.7-1.3a33.8 33.8 0 0 1 4.5.1c2.7 0 5.8-.7 8.4.4a1.8 1.8 0 0 0 2.3-.6 1.8 1.8 0 0 0 -.6-2.4c-3.2-1.3-6.4-.9-9.8-.8-1.7 0-3.3-.2-5-.1s-2.9 1.1-4.4 1.4a1.7 1.7 0 0 0 -1.2 2.1 1.7 1.7 0 0 0 2.1 1.2zm16.4 4.5-4.5-.2h-7.2a14.5 14.5 0 0 0 -3.6.2 9.2 9.2 0 0 1 -2.9.4 1.7 1.7 0 0 0 -1.7 1.7 1.8 1.8 0 0 0 1.7 1.7c1.9.2 3.8-.6 5.7-.6h11.2a10.8 10.8 0 0 1 1.9.3l.9.2.3.2c1.4 1.7 3.8-.7 2.4-2.4s-2.8-1.3-4.2-1.5z"/></symbol><symbol id="ishikawa-diagram"><path d="m254 128.1-47.2-27.6v20.7h-24.8l-71.9-71.9h17.9v-23.6h-47.3v23.6h18.3l71.9 71.9h-67.9l-71.8-71.9h18.1v-23.6h-47.3v23.6h18.1l71.9 71.9h-90v13.8h90l-71.9 71.9h-18.1v23.4h47.2v-23.4h-18l71.9-71.9h67.9l-71.9 71.9h-18.4v23.4h47.3v-23.4h-17.8l71.9-71.9h24.6v20.7z"/></symbol><symbol id="isopleth-map"><path d="m147.168 116.933c-2.426 0-4.824-.321-7.135-.977-6.414-1.821-11.207-6.017-13.15-11.512-2.63-7.438-1.053-14.841 4.441-20.843 10.235-11.184 31.384-15.373 43.969-12.138 4.273 1.099 7.118 3.975 8.01 8.098 2.047 9.462-6.628 22.26-16.256 30.011-5.966 4.803-13.033 7.361-19.879 7.361zm18.804-38.27c-9.91 0-22.319 3.725-28.544 10.525-3.475 3.798-4.372 7.885-2.742 12.496 1.036 2.932 3.809 5.231 7.606 6.309 6.258 1.775 13.571-.043 19.564-4.868 9.073-7.305 14.321-17.359 13.358-21.815-.187-.865-.584-1.473-1.982-1.833-2.129-.547-4.605-.814-7.26-.814zm-46.296 78.727c-1.548 0-3.056-.107-4.522-.334-7.318-1.132-12.851-5.041-16.446-11.618-7.454-13.64-5.504-45.74 8.263-68.282 9.851-16.131 23.703-24.446 40.048-24.01 27.726.718 47.757 1.237 59.169 17.067 10.343 14.346-2.23 35.023-17.445 49.591-11.437 10.947-44.767 37.584-69.067 37.586zm26.185-95.984c-16.149 0-26.203 10.855-31.827 20.063-12.142 19.881-14.305 48.579-8.063 60 2.326 4.256 5.744 6.68 10.448 7.407 1.081.168 2.208.248 3.371.248 19.82.002 50.66-23.265 63.229-35.299 13.079-12.521 23.238-29.365 16.455-38.773-8.593-11.922-24.787-12.911-52.669-13.633-.317-.008-.633-.013-.944-.013zm-49.031 139.999c-12.858 0-29.581-3.962-41.015-15.265-8.901-8.8-13.157-20.375-12.648-34.404 1.294-35.705 15.012-85.3 34.92-103.164 21.022-18.865 53.197-23.898 90.594-14.174 27.711 7.205 47.084 19.711 56.022 36.167 6.154 11.329 7.03 23.815 2.604 37.112-7.671 23.05-26.008 38.572-49.225 58.222-28.557 24.173-50.535 34.108-78.389 35.438-.928.045-1.886.068-2.863.068zm2.468-8.334.198 4.133-.198-4.133c25.834-1.234 46.425-10.623 73.438-33.488 23.095-19.549 39.781-33.673 46.72-54.52 3.672-11.036 2.991-21.315-2.025-30.549-7.705-14.186-25.758-25.588-50.833-32.108-34.625-9.004-64.096-4.625-82.983 12.324-17.452 15.661-30.964 63.85-32.176 97.303-.421 11.621 3.009 21.114 10.195 28.22 10.397 10.281 26.278 13.364 37.664 12.818zm.901 41.654c-8.567 0-17.805-.748-27.832-2.392-27.949-4.586-47.988-16.372-59.562-35.034-17.434-28.112-9.234-61.407-6.306-70.941 4.814-15.679 9.308-32.045 13.271-46.483 2.459-8.958 4.584-16.695 6.443-23.037v-.001c8.66-29.523 30.636-47.881 63.552-53.088 25.604-4.051 57.788.343 88.302 12.055 28.772 11.044 52.454 27.162 63.348 43.115 12.926 18.932 15.965 41.462 8.789 65.153-6.527 21.549-21.221 42.392-41.371 58.688-3.684 2.979-7.419 6.138-11.031 9.192-23.938 20.244-50.582 42.773-97.603 42.773zm-66.044-175.559c-1.84 6.274-3.955 13.978-6.404 22.899-3.979 14.495-8.49 30.925-13.341 46.721-2.669 8.692-10.166 39.004 5.428 64.151 10.258 16.54 28.381 27.047 53.868 31.228 9.641 1.582 18.495 2.303 26.67 2.304 43.797.002 68.278-20.705 92.082-40.836 3.646-3.083 7.415-6.272 11.17-9.309 34.554-27.944 56.281-75.642 30.951-112.739-9.981-14.617-32.216-29.592-59.478-40.056-29.199-11.207-59.834-15.439-84.044-11.607-29.952 4.74-49.097 20.635-56.902 47.244z"/></symbol><symbol id="joy-plot"><path d="M197.7,136.7c15,0,22.5,13,41.3,33.6c6.7,7.4,15,10.3,15,10.3H43.3c0,0,9.4-2.8,15.9-10.3c34.8-39.7,33.6-60.9,54.3-60.9
	c21.7,0,27.9,38.6,57.9,38.6C185.5,147.9,186.5,136.7,197.7,136.7z M113.6,103.7c11.6,0,19.3,8.8,27.5,18.2c1.4,1.6,2.8,3.2,4.2,4.8
	h61.2c0,0-8.3-2.9-15-10.3c-18.8-20.6-26.3-33.6-41.3-33.6C139,82.7,138,94,124,94c-30,0-22.5-84-56.3-84
	c-33.8,0-16,66.6-50.8,106.3c-6.6,7.5-15.9,10.3-15.9,10.3h82.8C93.3,112.3,99.6,103.7,113.6,103.7z M191.5,222.2
	c-5.2-5.8-14.4-21.6-29.4-21.6c-11.3,0-27.8,22.2-41.8,22.2c-30,0-42.3-21.7-58.3-21.7s-14.8,10-32.9,21.7
	c-10.5,6.4-28.1,9.8-28.1,9.8H222C222,232.5,198.2,229.6,191.5,222.2z"/></symbol><symbol id="kagi-chart"><path d="m254 254h-34.453v-165.375h-17.719v102.375h-37.406v-179.156h-17.719v147.656h-37.406v-86.625h-17.719v145.688h-37.406v-66.938h-17.719v102.375h-34.453v-9.844h24.609v-102.375h37.407v66.938h17.718v-145.688h37.407v86.625h17.718v-147.656h37.407v179.156h17.718v-102.375h37.407v165.375h24.609z"/></symbol><symbol id="line-graph"><path d="m254 242.188v11.812h-252v-252h11.813v240.188zm-211.723-15.75c7.068 0 12.797-5.729 12.797-12.797 0-3.39-1.328-6.464-3.48-8.753l28.738-64.107c.112.003.222.017.335.017 4.674 0 8.751-2.514 10.984-6.256l86.889 12.413c1.424 5.514 6.417 9.593 12.376 9.593 7.068 0 12.797-5.729 12.797-12.797 0-2.719-.854-5.236-2.301-7.309l37.514-58.845c.714.124 1.444.201 2.193.201 7.068 0 12.797-5.729 12.797-12.797s-5.729-12.797-12.797-12.797-12.797 5.729-12.797 12.797c0 2.719.854 5.236 2.301 7.309l-37.514 58.845c-.714-.124-1.444-.201-2.193-.201-4.674 0-8.751 2.514-10.984 6.256l-86.889-12.413c-1.424-5.514-6.417-9.593-12.376-9.593-7.068 0-12.797 5.729-12.797 12.797 0 3.39 1.327 6.463 3.479 8.753l-28.738 64.108c-.112-.003-.222-.017-.335-.017-7.068 0-12.797 5.729-12.797 12.797s5.731 12.796 12.798 12.796z"/></symbol><symbol id="marimekko-chart"><path d="M2,72.9V41.4h77.4v31.5H2z M79.4,131.9V82.7H2v49.2H79.4z M166.7,94.5V41.4H89.3v53.2H166.7z M254,126V41.4h-77.4V126H254z
	 M176.6,157.5H254v-21.7h-77.4V157.5z M2,141.8v72.8h77.4v-72.8L2,141.8z M176.6,167.4v47.2H254v-47.2H176.6z M89.3,141.8h77.4
	v-37.4H89.3V141.8z M89.3,151.6v63h77.4v-63H89.3z"/></symbol><symbol id="matrix-table"><path d="M7.2,3V252.4H247V3Zm230,47.9H130.6V12.8H237.2ZM49.9,194.7V156.6h70.9v38.1Zm70.9,9.8v38.1H49.9V204.5Zm0-143.8V98.8H49.9V60.7ZM49.9,50.9V12.8h70.9V50.9Zm70.9,57.7v38.2H49.9V108.6ZM40.1,98.8H17V60.7H40.1Zm0,9.8v38.2H17V108.6Zm0,48v38.1H17V156.6Zm90.5,0H237.2v38.1H130.6Zm0-9.8V108.6H237.2v38.2Zm0-48V60.7H237.2V98.8Zm-90.5-86V50.9H17V12.8ZM17,204.5H40.1v38.1H17Zm113.6,38.1V204.5H237.2v38.1Z"/></symbol><symbol id="mindmap"><path d="m80.7 122.6h62.9v12.9h-62.9zm138.9 86.2c-2.4-.3-4.9-.4-7.4-.4-1.4 0-2.7 0-4.1.1l-5.8-5-45.7-40c18.2-8 29.9-20.8 29.9-35.1 0-12.9-9.4-24.5-24.4-32.4l14.6-13.5c6.8 7.3 20.4 12.2 36 12.2 22.6 0 40.9-10.3 40.9-23.1s-18.3-23.1-40.9-23.1-40.9 10.3-40.9 23.1c0 1 .1 1.9.3 2.9l-18.7 17.4c-11.7-4.6-25.9-7.3-41.2-7.3-6 0-11.8.4-17.5 1.2l-10.8-39.4c8.7-2.4 15.7-6.5 19.5-11.5l2.5-4.6c.5-1.5.8-3 .8-4.6 0-12.8-18.3-23.1-40.9-23.1s-40.6 10.2-40.6 23c0 7.9 7 15 17.8 19.1l6.2 2c5.1 1.3 10.7 2 16.8 2 3.2 0 6.2-.2 9.2-.6l10.6 39.2c-28.1 6.2-48.1 22.3-48.1 41.1 0 13 9.5 24.6 24.6 32.6l-20.2 12.6c-21.5.6-38.7 10.7-38.7 23.1 0 10.3 12 19.1 28.5 22l-6.5 10.8c-.6 0-1.3 0-1.9 0-.8 0-1.5 0-2.2.1l-6.3.9c-8 1.9-13.6 6.3-13.6 11.6 0 .6.1 1.2.2 1.8 1.6 6 10.7 10.7 21.8 10.7 12.2 0 22.1-5.6 22.1-12.5 0-5.4-6.1-10.1-14.7-11.8l6.5-10.8c2.3.2 4.6.3 7 .3 11.5 0 21.9-2.7 29.3-7l.3-.2 13.4 9.1c-3.7 2.2-5.9 5.2-5.9 8.5 0 6.9 9.9 12.5 22.1 12.5s22.1-5.6 22.1-12.5-9.9-12.5-22.1-12.5c-3.9 0-7.6.6-10.7 1.6l-14.4-9.8.3-.2c4.1-3.6 6.5-7.9 6.5-12.6 0-10.2-11.6-18.9-27.8-21.9l15-9.3c11.5 4.3 25.2 6.8 39.9 6.8 12.7 0 24.5-1.9 34.9-5.1l41.2 35.9 8.1 7.1c-14.8 3.5-25.1 11.7-25.1 21.4 0 1.1.2 2.3.4 3.3 2.9 11.1 19.9 19.8 40.4 19.8 22.6 0 40.9-10.3 40.9-23.1-.1-11.3-14.5-20.8-33.5-22.8zm-28.7-140h43.4v6.4h-43.4zm-146.6-39.5v-6.4h43.4v6.4zm-9.8 210.5v3.5h-8-15.5v-3.5h20.2zm57.2-11.3h23.4v3.5h-23.4zm-25.7-34.7v6.4h-43.4v-6.4zm46.1-44.6c-33.3 0-51.4-14.8-51.4-20.9 0-6 18-20.9 51.4-20.9s51.4 14.9 51.4 20.9c0 6.1-17.9 20.9-51.4 20.9zm120.5 84.6h-14.9-28.5v-6.4h37.5 5.9z"/></symbol><symbol id="multiple-exposure-diagram"><path d="M65,104H50v-2H65Zm-8,5H48v2h9Zm53-38.8a17,17,0,0,1,2.7-12.4,16.7,16.7,0,0,1,23-4.1,16.5,16.5,0,0,1-9.5,30A16.3,16.3,0,0,1,110,70.2ZM135.6,77H116.9l1.6,1.3A13.7,13.7,0,0,0,135.6,77Zm-20-18H137a15.8,15.8,0,0,0-3-2.8,13.7,13.7,0,0,0-7.7-2.4A13.4,13.4,0,0,0,115.6,59Zm-2.4,5h26.2a13.4,13.4,0,0,0-1.2-3H115V59.8A11.2,11.2,0,0,0,113.2,64Zm-.2,5.7h0V69h26v2H113.3a12.6,12.6,0,0,0,2.7,5.1V75h21v.4l.3-.4a13.2,13.2,0,0,0,2.4-9H113V64.8A13.4,13.4,0,0,0,113,69.7Zm84.2,9.9a15.2,15.2,0,0,0,20.9-3.7,15,15,0,1,0-20.9,3.7Zm54.7,12.9-17.6,25.3a6.7,6.7,0,0,1-9.2,1.7l-25.3-17.6-27,40.1,23.1,16.1a9.2,9.2,0,0,1,3.9,6l6.6,36.9a9.5,9.5,0,0,1-18.7,3.2L181.9,171l-29-20.6s-15.3,22.1-16.4,23.4-2,3.2-3.7,4.1a9.8,9.8,0,0,1-7.2,1l-1.2-.3,3.9,22.1a11.2,11.2,0,0,1-8.9,12.7h-1.7a11.2,11.2,0,0,1-11-9.1l-5.6-32.1-11.7-3.1a9.4,9.4,0,0,1-6.8-10.4l-8.9-6.3c-3.3,4.7-14.6,21.1-15.6,22.3a8.6,8.6,0,0,0-.7,1,11.7,11.7,0,0,1-3.5,3.5,11.4,11.4,0,0,1-8.2,1L9.5,170.6a10.8,10.8,0,1,1,5.7-20.9l28.6,7.6.2-.2V156h.7L89,91.7H74.4L59.3,113.4a7.8,7.8,0,0,1-5.2,3.4,8.2,8.2,0,0,1-6.1-1.2,8,8,0,0,1-3.4-5.2,8.3,8.3,0,0,1,1.3-6.1L63.5,79.1a7.5,7.5,0,0,1,7.1-3.4h30.3a23.4,23.4,0,0,1,13.8,4.4l9.7,6.9,10,7.1L144.2,80a6.1,6.1,0,0,1,5.9-2.8h30.3a21.7,21.7,0,0,1,12.9,4.1l9.7,6.9,24,16.9,14.1-19.9a6.6,6.6,0,0,1,9.2-1.8A6.4,6.4,0,0,1,251.9,92.5Zm-106.7,9.2,1.9,1.3,9.1-12.8h-3.1Zm-1.8,2.4-4.7,6.9h18.4l4.1-6H151v-2h11.6l2.7-4H155V97.1l-7.2,10.1Zm-5.6,8.1.2.2v-.5ZM65.9,80.8,64.4,83h49.2l-.7-.5a20.4,20.4,0,0,0-12-3.8H70.4A4.7,4.7,0,0,0,65.9,80.8ZM69.1,94H57v-.4L48.3,106a5.2,5.2,0,0,0-.7,3.9,4.6,4.6,0,0,0,2.1,3.2,5.8,5.8,0,0,0,3.9.8,5.4,5.4,0,0,0,3.2-2.1Zm25.6-5.3L93.1,91h31.7l-2.1-1.5L116,84.7V85H64V83.6L58.1,92H70.5l2.3-3.3ZM84.9,103H117v1.2l2.9-4.4,7,4.9,5.8-8.2L126,91.8V93H91.7ZM105,121v1l5.4-8H78v-1l-5.5,8Zm-33,2v-1.3L64.9,132H98v.4l6.3-9.4Zm44.4-18H84v-.7L78.7,112h33ZM5.2,157H30.9l-16.5-4.4A7.8,7.8,0,0,0,5.2,157ZM5,163H62.7c1.2-1.6,2.4-3.3,3.5-5H47l-1.9,2.8L36,158.4v.6H5v-1.6a1.9,1.9,0,0,0-.2.7A7.4,7.4,0,0,0,5,163Zm49.9,11.1H33.7l12.7,3.4a8.9,8.9,0,0,0,6.1-.7A8.6,8.6,0,0,0,54.9,174.1Zm6.5-9.1H6.1a7.3,7.3,0,0,0,4.1,2.7L31,173.3V172H56v.6Zm48.2-9.8L91.2,142.4l5.7-8.4H64v-.7L56.6,144H91v2H56v-1.1L48.4,156H67v.9l5.1-7.4.9-1.2,10.6,7.5a9.3,9.3,0,0,1,10.7-4.6Zm-5.3,18,2,11.8h16.2l-.5-3H106v-2h15.6l-.4-2.3Zm3.7,21.2V193h15.9l-1.1-6H106.7Zm17.4,6.8-1.1-6.2H108.1l1.6,8.9A7.9,7.9,0,0,0,125,205H110v-2h15.4A5.4,5.4,0,0,0,125.4,201.2Zm24-79.1a8.4,8.4,0,0,1-4.6-1.3l-9.1-6.4a6.7,6.7,0,0,1-7.3-.1,6.2,6.2,0,0,1-2.7-6.8l-5-3.5L95.4,141.6l21.8,15.3.7.5L124,159Zm6.3-9.1H138.9l7.6,5.3a5.3,5.3,0,0,0,5.4.2Zm15.7-22.8H159.8L155.1,97h11.6Z"/></symbol><symbol id="network-diagram"><path d="M228.6,195.4l-2.3-64c12-2.1,21.1-12.5,21.1-25.1c0-14.1-11.4-25.5-25.5-25.5c-14.1,0-25.5,11.4-25.5,25.5
	c0,4.1,1,8,2.7,11.4l-16,11l-41.3-81.3c6.6-4.6,11-12.3,11-20.9c0-14.1-11.4-25.5-25.5-25.5c-14.1,0-25.5,11.4-25.5,25.5
	c0,2.9,0.5,5.8,1.4,8.4l-54.7,28C43.8,56.4,36.2,52,27.5,52C13.4,52,2,63.5,2,77.6c0,14.1,11.4,25.5,25.5,25.5
	c8.2,0,15.4-3.8,20.1-9.8l51,26.7c-1,2.7-1.5,5.6-1.5,8.6c0,6.8,2.7,13,7.1,17.6l-48.6,61.3c-3.8-2.2-8.2-3.5-13-3.5
	c-14.1,0-25.5,11.4-25.5,25.5c0,14.1,11.4,25.5,25.5,25.5c13.3,0,24.3-10.2,25.4-23.2l132.9-6.3c2.2,11.9,12.6,20.8,25.1,20.8
	c14.1,0,25.5-11.4,25.5-25.5C251.5,207.6,241.5,196.7,228.6,195.4z M65.4,218.1l115.1-79l30.9,60.8c-6,4.2-10.2,10.9-10.8,18.7
	l-132.9,6.3C67.3,222.4,66.5,220.2,65.4,218.1z M203.1,123.5c4.1,4.5,9.8,7.5,16.3,8.2l2.3,64c-1.4,0.2-2.7,0.6-3.9,1L186.3,135
	L203.1,123.5z M177.3,132.8L61.5,212.3c-0.1-0.1-0.3-0.3-0.4-0.4l48.6-61.3c3.8,2.2,8.2,3.5,13,3.5c14.1,0,25.5-11.4,25.5-25.5
	c0-12.5-9-22.9-20.9-25.1l2.3-51.6c2.1-0.2,4.1-0.6,6-1.3L177.3,132.8z M51.2,87.2c1.2-3,1.9-6.2,1.9-9.6c0-2.9-0.5-5.8-1.4-8.4
	l54.7-28c3.8,5.4,9.6,9.2,16.3,10.5l-2.3,51.6c-7.6,0.7-14.2,4.7-18.4,10.6L51.2,87.2z"/></symbol><symbol id="onion-diagram"><path d="m128 96.5c17.397 0 31.5 14.103 31.5 31.5s-14.103 31.5-31.5 31.5-31.5-14.103-31.5-31.5 14.103-31.5 31.5-31.5zm0 88.594c-31.482 0-57.094-25.612-57.094-57.094s25.612-57.094 57.094-57.094 57.094 25.612 57.094 57.094-25.612 57.094-57.094 57.094zm0-104.344c-26.054 0-47.25 21.196-47.25 47.25s21.196 47.25 47.25 47.25 47.25-21.196 47.25-47.25-21.196-47.25-47.25-47.25zm0 135.844c-48.851 0-88.594-39.743-88.594-88.594s39.743-88.594 88.594-88.594 88.594 39.743 88.594 88.594-39.743 88.594-88.594 88.594zm0-167.344c-43.423 0-78.75 35.327-78.75 78.75s35.327 78.75 78.75 78.75 78.75-35.327 78.75-78.75-35.327-78.75-78.75-78.75zm0 204.75c-69.477 0-126-56.524-126-126 0-69.477 56.523-126 126-126 69.476 0 126 56.523 126 126 0 69.476-56.524 126-126 126zm0-242.156c-64.049 0-116.156 52.107-116.156 116.156s52.107 116.156 116.156 116.156 116.156-52.107 116.156-116.156-52.107-116.156-116.156-116.156z"/></symbol><symbol id="open-high-low-close-chart"><path d="m241.3 253h-235.8a3 3 0 0 1 -3.8-3v-1.6-240.3c0-3.9 6.2-3.9 6.2 0v238.7h233.4c4 0 4 6.2 0 6.2zm-201.6-99.4h13.2v85.6a4.7 4.7 0 0 0 4.6 4.7 4.8 4.8 0 0 0 4.7-4.7v-101.2h10.6a4.6 4.6 0 0 0 3.2-1.3 4.2 4.2 0 0 0 1.4-3.3 4.7 4.7 0 0 0 -4.6-4.6h-10.6v-57.5a4.8 4.8 0 0 0 -4.7-4.7 4.7 4.7 0 0 0 -4.6 4.7v73h-13.2c-2.4 0-4.8 2.1-4.6 4.6a4.7 4.7 0 0 0 4.6 4.7zm54.5-17.3h9.4v71.9a4.7 4.7 0 1 0 9.3 0v-110.4h10.4a4.5 4.5 0 0 0 3.3-1.4 5 5 0 0 0 1.4-3.3 4.7 4.7 0 0 0 -1.4-3.2 4.5 4.5 0 0 0 -3.3-1.4h-10.4v-66.4a4.7 4.7 0 1 0 -9.3 0v104.9h-9.4a4.8 4.8 0 0 0 -4.7 4.7 4.7 4.7 0 0 0 4.7 4.6zm54.4-39.7h11.4v48.8a4.7 4.7 0 1 0 9.3 0v-77h9.2c2.4 0 4.8-2.1 4.6-4.6a4.7 4.7 0 0 0 -4.6-4.6h-9.2v-43.1a4.7 4.7 0 0 0 -4.6-4.7 4.8 4.8 0 0 0 -4.7 4.7v71.2h-11.4a5.2 5.2 0 0 0 -3.3 1.4 4.4 4.4 0 0 0 -1.3 3.3 4.7 4.7 0 0 0 4.6 4.6zm62.2-9.1h12.2v51.1a4.7 4.7 0 0 0 4.7 4.6 4.7 4.7 0 0 0 4.6-4.6v-21.5h12.1a4.7 4.7 0 0 0 4.6-4.6 4.7 4.7 0 0 0 -4.6-4.7h-12.1v-96.6a4.7 4.7 0 0 0 -4.6-4.7 4.9 4.9 0 0 0 -4.7 4.7v67h-12.2a4.7 4.7 0 0 0 -4.7 4.6 4.8 4.8 0 0 0 4.7 4.7z"/></symbol><symbol id="parallel-coordinates"><path d="m238.25 2v40.056l-102.375-27.3v-12.756h-15.75v15.056l-102.375 67.686v-82.742h-15.75v252h15.75v-83.335l102.375 68.25v15.085h15.75v-16.953l65.556-69.927 36.819 24.546v62.334h15.75v-252zm0 50.244v61.21l-38.297 40.85-64.078-42.719v-86.641zm-118.125 54-97.539-12.898 97.539-64.489zm-102.375 52.591v-56.198l102.375 13.537v110.911zm118.125 63.818v-99.238l57.253 38.168zm72.382-62.814 29.993-31.993v51.988z"/></symbol><symbol id="periodic-table"><path d="M226,26.5V48.2H181.1V92H51.4V48.3H29V27.5H1.5V184.3h252V26.5ZM24,179.3H6.5V162.5H24Zm0-21.8H6.5V140.7H24Zm0-21.8H6.5V118.8H24Zm0-21.9H6.5V97H24ZM24,92H6.5V75.2H24Zm0-21.8H6.5V53.3H24Zm0-21.9H6.5V31.5H24Zm22.4,131H29V162.5H46.4Zm0-21.8H29V140.7H46.4Zm0-21.8H29V118.8H46.4Zm0-21.9H29V97H46.4Zm0-21.8H29V75.2H46.4Zm0-21.8H29V53.3H46.4ZM68.9,179.3H51.4V162.5H68.9Zm0-21.8H51.4V140.7H68.9Zm0-21.8H51.4V118.8H68.9Zm0-21.9H51.4V97H68.9Zm22.4,65.5H73.9V162.5H91.3Zm0-21.8H73.9V140.7H91.3Zm0-21.8H73.9V118.8H91.3Zm0-21.9H73.9V97H91.3Zm22.5,65.5H96.3V162.5h17.5Zm0-21.8H96.3V140.7h17.5Zm0-21.8H96.3V118.8h17.5Zm0-21.9H96.3V97h17.5Zm22.4,65.5H118.8V162.5h17.4Zm0-21.8H118.8V140.7h17.4Zm0-21.8H118.8V118.8h17.4Zm0-21.9H118.8V97h17.4Zm22.5,65.5H141.2V162.5h17.5Zm0-21.8H141.2V140.7h17.5Zm0-21.8H141.2V118.8h17.5Zm0-21.9H141.2V97h17.5Zm22.4,65.5H163.7V162.5h17.4Zm0-21.8H163.7V140.7h17.4Zm0-21.8H163.7V118.8h17.4Zm0-21.9H163.7V97h17.4Zm5-60.8h17.3V70.5l-17.3.2Zm0,22.7,17.4-.2V92H186.1Zm0,21.3h17.4v16.8H186.1Zm0,21.8h17.4v16.9H186.1Zm0,21.9h17.4v16.8H186.1Zm0,38.6V162.5h17.5v16.8Zm39.9,0H208.6V162.5H226Zm0-21.8H208.6V140.7H226Zm0-21.8H208.5V118.8H226Zm0-21.9H208.5V97H226ZM226,92H208.5V75.5H226Zm0-21.6H208.4V53.1H226Zm22.5,108.9H231V162.5h17.5Zm0-21.8H231V140.7h17.5Zm0-21.8H231V118.8h17.5Zm0-21.9H231V97h17.5Zm0-21.8H231V75.3h17.5Zm0-21.8H231V53.2h17.5Zm0-21.9H231V31.5h17.5ZM69.7,249.2H231.6V200.8H69.7Zm134.7-5H186.9V227.3h17.5Zm5-38.7h17.4v16.8H209.4Zm0,21.8h17.4v16.9H209.4Zm-5-21.8v16.8H186.8V205.5Zm-39.9,0h17.3v16.8H164.5Zm0,21.8h17.4v16.9H164.5ZM142,205.5h17.5v16.8H142Zm0,21.8h17.5v16.9H142Zm-22.4-21.8H137v16.8H119.6Zm0,21.8H137v16.9H119.6ZM97.1,205.5h17.5v16.8H97.1Zm0,21.8h17.5v16.9H97.1ZM74.7,205.5H92.1v16.8H74.7Zm0,21.8H92.1v16.9H74.7Z"/></symbol><symbol id="pictogram-chart"><path d="M37.4,67.7c8.3,0,15.1-6.8,15.1-15.1c0-8.3-6.8-15.1-15.1-15.1c-8.3,0-15.1,6.8-15.1,15.1C22.4,60.9,29.1,67.7,37.4,67.7z
	 M72.8,116.1v-25C72.5,81,64.2,72.8,54.3,72.8h-34C10.1,72.8,2,81,2,91.1v25H72.8z M37.5,170.1c8.3,0,15.1-6.8,15.1-15.1
	c0-8.3-6.8-15.1-15.1-15.1c-8.3,0-15.1,6.8-15.1,15.1C22.4,163.3,29.1,170.1,37.5,170.1z M72.8,218.5v-25
	c-0.3-10.1-8.6-18.3-18.6-18.3h-34c-10.1,0-18.3,8.1-18.3,18.3v25H72.8z M128,67.7c8.3,0,15.1-6.8,15.1-15.1
	c0-8.3-6.8-15.1-15.1-15.1c-8.3,0-15.1,6.8-15.1,15.1S119.7,67.7,128,67.7z M163.4,116.1v-25c-0.3-10.1-8.6-18.3-18.6-18.3h-34
	c-10.1,0-18.3,8.1-18.3,18.3v25C92.6,116.1,163.4,116.1,163.4,116.1z M218.6,67.7c8.3,0,15.1-6.8,15.1-15.1
	c0-8.3-6.8-15.1-15.1-15.1c-8.3,0-15.1,6.8-15.1,15.1S210.3,67.7,218.6,67.7z M254,116.1v-25c-0.3-10.1-8.6-18.3-18.6-18.3h-34
	c-10.1,0-18.3,8.1-18.3,18.3v25H254z M128,147.1c4.3,0,7.9,3.5,7.9,7.9s-3.5,7.9-7.9,7.9s-7.9-3.5-7.9-7.9S123.7,147.1,128,147.1
	 M128,139.2c-8.7,0-15.8,7.1-15.8,15.8s7.1,15.8,15.8,15.8c8.7,0,15.8-7.1,15.8-15.8C143.8,146.3,136.7,139.2,128,139.2z
	 M144.8,183.1c5.7,0,10.5,4.7,10.7,10.5v17h-55.1v-17.1c0-5.8,4.6-10.4,10.4-10.4H144.8z M144.8,175.2h-34
	c-10.1,0-18.3,8.1-18.3,18.3v25h70.8v-25C163.1,183.4,154.8,175.2,144.8,175.2z M218.6,147.1c4.3,0,7.9,3.5,7.9,7.9
	s-3.5,7.9-7.9,7.9s-7.9-3.5-7.9-7.9S214.3,147.1,218.6,147.1 M218.6,139.2c-8.7,0-15.8,7.1-15.8,15.8s7.1,15.8,15.8,15.8
	s15.8-7.1,15.8-15.8C234.4,146.3,227.3,139.2,218.6,139.2z M235.4,183.1c5.7,0,10.5,4.7,10.7,10.5v17H191v-17.1
	c0-5.8,4.6-10.4,10.4-10.4L235.4,183.1z M235.4,175.2h-34c-10.1,0-18.3,8.1-18.3,18.3v25H254v-25
	C253.7,183.4,245.4,175.2,235.4,175.2L235.4,175.2z"/></symbol><symbol id="pictogram"><path d="m133.4 69.1a14.6 14.6 0 1 0 -13.5-15.7 14.6 14.6 0 0 0 13.5 15.7m-12.4 6a15.2 15.2 0 0 1 10.1-3 16 16 0 0 1 11.6 7.1l14.6 29.1 20 13.9a7 7 0 0 1 2.6 5.7 6.7 6.7 0 0 1 -10.2 4.9l-21.4-14.6a8.7 8.7 0 0 1 -1.7-2.1l-5.6-10.9-6.5 29 25.9 30.7a13 13 0 0 1 1.3 3l6.9 37v2.1a9.9 9.9 0 0 1 -10.6 9.1 10.2 10.2 0 0 1 -8.9-7.8l-6.5-34.4-21.1-23.4-4.8 22.5a30.5 30.5 0 0 1 -2.1 4l-20.1 34.1c-2.1 3.1-5.3 5.2-9.2 4.8a9.9 9.9 0 0 1 -9.2-10.6 10.9 10.9 0 0 1 1.4-4.3l18.8-31.4 15.6-69.2-10.2 8.2-5.5 24.6a7.1 7.1 0 0 1 -7 5.6c-3.6-.1-6.3-3.5-6.1-7.1a2.8 2.8 0 0 1 .1-.8l6.3-28.7a5.6 5.6 0 0 1 2.1-3.1zm59 178.9h-104.1l-73.5-73.6v-104.1l73.5-73.6h104.1l73.6 73.6v104.1zm-98.7-13h93.3l66-66v-93.3l-66-66h-93.3l-65.9 66v93.3z"/></symbol><symbol id="pictorial-map"><path d="M121.4,138.2h9.9V149h-9.9Zm0-18.9h9.9V108.5h-9.9ZM57.9,196.5h0L43.1,178.8,28.2,196.5h0v20.9h9.4V204.8H48.8v12.6h9.1V196.6h0ZM244.4,65.8l4.3,6.4-1.6,2.7-.8-1h-.2l-1.4,3.4-6.8,4.4-1.1.3,2.4,8.8-4.8-.8-1.2,1.9,5.3,9h-.1l-.2,3.5-1.1.8-4.4-.4,1.6,1.6.5,5,4.9,4.4h-.8l3.5,5-9.7,19.3-1.5,6.5-6.7,12-.4,12.5,11.5,19.5,7,14,2.1,18.6-13.9-9.8-8.1-13.1-1.2-10.6-11.3-10.1-4.9,5.6-8.1-5.4-8.6-.5-6,1.5-6.7,2.7-.6,7.7-7,3.3-6.7-6.4-2.6,3-10-4-11.4,12.2-9.4,7.3-3.9,10.7,1.5,9.6-12.3-3.5L111.2,211l-10.9-22.9-8.2-.4-3.8,7.1-7.9-7.7-1.6-9.8-7.4-11.2-10.1-1.8-5.7,1L44.1,163,25.3,149.7l1.2-1.7L13,145.8l.4-7.2-3.1-7.3L2,124.8V87.3l2.2-11L10,66.8l1.3-5.7L22,46l3.6-12.9,7.6-.5,2.4-4.8,19.9,5.8,3.6.8,12.7,2.8,31.9,4.5L130,43.1h7.8l5.6,2.8,4.3-.3,5,2.8-2.2,8.2,7.1.7,7.7-4.1,4.9,3.5,9.3-3,4.8,4.7-12.1,1.9-1.8,5.4,1.5,1.9-1,10.5,1.3,5.2,2.1,5.2,3-.6,1.5-8.6-2.6-7.4.9-5.6,6.2-6.6,4,2.3,2.1,6.5,6.1,8.1-2.6,9.5,4.9,1.6,7.9-5.7,2.8-2.6,2.8-4.7,9.6-7.5L219,63.9l4-7,5.9-1.6,7-2.2.9-2.2,1.4-3.4-.6-11.2,6.3.6,4,7.8,5.7,3.7-6.8,9.7-2.6,6.3ZM70.3,97.2h0L55.5,79.4,40.6,97.2h0v20.9H50V105.5H61.2v12.6h9.1V97.2Zm70.9,4.1h0L126.3,83.5l-14.9,17.7h0v56.5h29.8V101.3Zm72,22.7h0l-14.9-17.8L183.4,124h0v20.9h9.5V132.2h11.2v12.7h9.1V124Z"/></symbol><symbol id="pie-chart"><path d="m122.1 133.9h121.136c-.282 66.377-54.172 120.1-120.615 120.1-66.617 0-120.621-54.004-120.621-120.621 0-66.443 53.723-120.333 120.1-120.615zm131.9-11.813c-.521-66.092-53.995-119.566-120.087-120.087v120.087z"/></symbol><symbol id="point-and-figure-chart"><path d="m52.4 65.4 17.6 21.3h-17.2l-8.8-11.1-8.8 11.1h-17.1l17.6-21.3-16.6-20h17.3l7.6 9.9 7.6-9.9h17.4zm16.6 61.3h-17.4l-7.6 9.9-7.6-9.9h-17.3l16.6 20-17.6 21.3h17.1l8.8-11.1 8.8 11.1h17.2l-17.6-21.3zm0 78h-17.4l-7.6 9.9-7.6-9.9h-17.3l16.6 20-17.6 21.3h17.1l8.8-11.1 8.8 11.1h17.2l-17.6-21.3zm113.8-159.3h-17.4l-7.6 9.9-7.6-9.9h-17.3l16.6 20-17.6 21.3h17.1l8.8-11.1 8.8 11.1h17.2l-17.6-21.3zm0 81.3h-17.4l-7.6 9.9-7.6-9.9h-17.3l16.6 20-17.6 21.3h17.1l8.8-11.1 8.8 11.1h17.2l-17.6-21.3zm-61.9-107.6a23.2 23.2 0 0 1 2.8 11.4 23.6 23.6 0 0 1 -2.8 11.5 18.8 18.8 0 0 1 -7.9 7.4 24.6 24.6 0 0 1 -11.9 2.7 26.5 26.5 0 0 1 -12-2.6 18.4 18.4 0 0 1 -7.9-7.5 23.3 23.3 0 0 1 -2.7-11.5 23.2 23.2 0 0 1 2.7-11.4 18.4 18.4 0 0 1 7.9-7.5 26.5 26.5 0 0 1 12-2.6 25.8 25.8 0 0 1 11.9 2.6 19.7 19.7 0 0 1 7.9 7.5zm-11.8 11.4c0-3.5-.7-6.2-2-7.9s-3.3-2.5-6-2.5-4.7.8-6.1 2.5-2 4.4-2 7.9.7 6.3 2 8.1 3.4 2.5 6.1 2.5c5.3 0 8-3.5 8-10.6zm11.8 69.9a22.9 22.9 0 0 1 2.8 11.4 23.6 23.6 0 0 1 -2.8 11.5 18.8 18.8 0 0 1 -7.9 7.4 24.6 24.6 0 0 1 -11.9 2.7 26.5 26.5 0 0 1 -12-2.6 19 19 0 0 1 -7.9-7.5 23.5 23.5 0 0 1 -2.7-11.5 22.9 22.9 0 0 1 2.7-11.4 18.4 18.4 0 0 1 7.9-7.5 26.5 26.5 0 0 1 12-2.6 25.8 25.8 0 0 1 11.9 2.6 19.7 19.7 0 0 1 7.9 7.5zm-11.8 11.4c0-3.5-.7-6.2-2-7.9s-3.3-2.5-6-2.5-4.7.8-6.1 2.5-2 4.4-2 7.9.7 6.3 2 8 3.4 2.6 6.1 2.6c5.3 0 8-3.5 8-10.6zm11.8 66.7a24.6 24.6 0 0 1 0 22.8 19.7 19.7 0 0 1 -7.9 7.5 25.8 25.8 0 0 1 -11.9 2.6 25.3 25.3 0 0 1 -12-2.6 18.4 18.4 0 0 1 -7.9-7.5 22.9 22.9 0 0 1 -2.7-11.4 23.5 23.5 0 0 1 2.7-11.5 19.7 19.7 0 0 1 7.9-7.5 26.5 26.5 0 0 1 12-2.6 24.6 24.6 0 0 1 11.9 2.7 18.4 18.4 0 0 1 7.9 7.5zm-11.8 11.4c0-3.6-.7-6.2-2-7.9s-3.3-2.6-6-2.6-4.7.8-6.1 2.6-2 4.3-2 7.9.7 6.3 2 8a7.4 7.4 0 0 0 6.1 2.6c5.3 0 8-3.6 8-10.6zm85.9-147.9a23.3 23.3 0 0 1 -2.7-11.5 23.2 23.2 0 0 1 2.7-11.4 18.4 18.4 0 0 1 7.9-7.5 26.7 26.7 0 0 1 12.1-2.6 26.4 26.4 0 0 1 11.9 2.6 19.4 19.4 0 0 1 7.8 7.5 23.2 23.2 0 0 1 2.8 11.4 23.6 23.6 0 0 1 -2.8 11.5 18.6 18.6 0 0 1 -7.8 7.4 25.2 25.2 0 0 1 -11.9 2.7 26.7 26.7 0 0 1 -12.1-2.6 18.4 18.4 0 0 1 -7.9-7.5zm11.8-11.5c0 3.7.7 6.3 2.1 8.1s3.3 2.5 6.1 2.5c5.3 0 7.9-3.5 7.9-10.6 0-3.5-.6-6.2-2-7.9s-3.3-2.5-5.9-2.5-4.8.8-6.1 2.5-2.1 4.4-2.1 7.9zm27.9 69.9a22.9 22.9 0 0 1 2.8 11.4 23.6 23.6 0 0 1 -2.8 11.5 18.6 18.6 0 0 1 -7.8 7.4 25.2 25.2 0 0 1 -11.9 2.7 26.7 26.7 0 0 1 -12.1-2.6 19 19 0 0 1 -7.9-7.5 23.5 23.5 0 0 1 -2.7-11.5 22.9 22.9 0 0 1 2.7-11.4 18.4 18.4 0 0 1 7.9-7.5 26.7 26.7 0 0 1 12.1-2.6 26.4 26.4 0 0 1 11.9 2.6 19.4 19.4 0 0 1 7.8 7.5zm-11.8 11.4c0-3.5-.6-6.2-2-7.9s-3.3-2.5-5.9-2.5-4.8.8-6.1 2.5-2.1 4.4-2.1 7.9.7 6.3 2.1 8 3.3 2.6 6.1 2.6c5.3 0 7.9-3.5 7.9-10.6zm11.8 66.7a24.6 24.6 0 0 1 0 22.8 19.4 19.4 0 0 1 -7.8 7.5 26.4 26.4 0 0 1 -11.9 2.6 25.4 25.4 0 0 1 -12.1-2.6 18.4 18.4 0 0 1 -7.9-7.5 22.9 22.9 0 0 1 -2.7-11.4 23.5 23.5 0 0 1 2.7-11.5 19.7 19.7 0 0 1 7.9-7.5 26.7 26.7 0 0 1 12.1-2.6 25.2 25.2 0 0 1 11.9 2.7 18.2 18.2 0 0 1 7.8 7.5zm-11.8 11.4c0-3.6-.6-6.2-2-7.9s-3.3-2.6-5.9-2.6-4.8.8-6.1 2.6-2.1 4.3-2.1 7.9.7 6.3 2.1 8 3.3 2.6 6.1 2.6c5.3 0 7.9-3.6 7.9-10.6z"/></symbol><symbol id="polar-chart"><path d="m91.93 129.082v-74.015c-20.024 1.14-38.234 9.148-52.309 21.707zm9.884-101.048v101.049l71.222-71.222c-18.921-17.528-43.814-28.629-71.222-29.827zm-9.884 172.848v-47.937l-33.88 33.879c9.299 7.894 21.021 13.005 33.88 14.058zm-59.31-131.11c15.881-14.34 36.562-23.457 59.31-24.616v-43.156c-34.634 1.216-66.083 15.149-89.816 37.268zm-11.912 154.394c18.921 17.53 43.812 28.636 71.221 29.834v-43.208c-15.579-1.093-29.762-7.304-40.881-16.966zm64.233-78.21h-47.938c1.053 12.859 6.165 24.58 14.058 33.88zm-52.299-62.184c-12.556 14.076-20.573 32.277-21.712 52.3h74.012zm134.001 52.3h69.243c-1.216-34.633-15.15-66.082-37.269-89.816l-48.941 48.941c9.658 11.12 15.874 25.298 16.967 40.875zm24.082 91.808c20.87-22.499 32.774-51.236 33.931-81.923h-115.853zm-88.911-.922c20.023-1.14 38.231-9.15 52.305-21.709l-52.305-52.305zm40.853-124.751-33.864 33.864h47.922c-1.054-12.853-6.168-24.566-14.058-33.864z"/></symbol><symbol id="population-pyramid"><path d="m4 218.5h122.7v33.9h-122.7zm27.6-43h95.2v33.9h-95.2zm25.4-43h69.7v33.9h-69.7zm32.4-43h37.3v33.9h-37.3zm13.5-42.9h23.8v33.9h-23.8zm12.8-43h11v33.9h-11zm137.3 248.7h-120.5v-33.9h120.5zm-19.2-42.9h-101.3v-33.9h101.3zm-18.4-42.9h-82.8v-33.9h82.8zm-12.9-43h-70v-33.9h70zm-23.5-43h-46.5v-33.9h46.5zm-15.7-42.9h-30.8v-34h30.8z"/></symbol><symbol id="proportional-area-chart"><path d="M1,70h118.4v118.4H1V70z M143.3,188.4h59.2v-59.2h-59.2V188.4z M226.4,158.8v29.6H256v-29.6H226.4z"/></symbol><symbol id="pyramid-diagram"><path d="m75.238 107.525h105.525l20.475 40.95h-146.475zm52.762-105.525-20.475 40.95h40.95zm-99.619 199.237h199.237l-20.475-40.95h-158.287zm-26.381 52.763h252l-20.475-40.95h-211.05zm99.619-199.238-20.475 40.95h93.713l-20.475-40.95z"/></symbol><symbol id="radar-chart"><path d="m128 8.2-126 91.5 48.1 148.1h155.7l48.2-148.1zm-3 128.4-108.5-35.3 108.5-78.8zm6-114.1 108.5 78.8-108.5 35.3zm-116.3 84.5 108.5 35.3-67.1 92.3zm113.3 38.7 67.1 92.3h-134.2zm71.8 88.8-67.1-92.3 108.6-35.2z"/>,<path d="m128 90.8 87.7 20.9-36.7 97.8-118.1 22.5 27.1-104z" opacity=".66"/></symbol><symbol id="renko-chart"><path d="m251.8 254h-246.5a3.1 3.1 0 0 1 -3-2.2 2.9 2.9 0 0 1 -.3-1.4v-242.6c0-4.3 6.6-4.2 6.6 0v239.6h243.2c4.3 0 4.3 6.6 0 6.6zm-189.5-23.4h-23.4v-68.1h23.4zm-4.4-63.7h-14.6v59.3h14.6zm30.2-6.9h-23.3v-68.1h23.3zm-4.4-63.7h-14.5v59.3h14.5zm30.2-6.9h-23.3v-68.1h23.3zm-4.4-63.7h-14.5v59.3h14.5zm80.2 134.3h-23.4v-68.1h23.4zm-4.4-63.7h-14.6v59.3h14.6zm30.2-6.9h-23.3v-68.1h23.3zm-4.4-63.7h-14.5v59.3h14.5zm-71.3 66.2h-23.4v68.1h23.4zm25.8 68.9h-23.4v68.1h23.4z"/></symbol><symbol id="sankey-chart"><path d="m254 118.6-20.7-23.6h-101.4c15.2 0 27.6-12.4 27.6-27.6v-15.7h11.8l-23.6-20.7-23.6 20.7h11.8v15.8c0 2.2-1.8 3.9-3.9 3.9h-51.2-3-75.8l15.8 51.2-15.8 51.2h78.8 15.8v23.6h-15.8l31.5 27.6 31.5-27.6h-15.8v-23.6c0-17.4-14.1-31.5-31.5-31.5h136.8z"/></symbol><symbol id="scatter-plot"><path d="m39.406 206.75c5.437 0 9.844 4.407 9.844 9.844s-4.407 9.844-9.844 9.844-9.844-4.407-9.844-9.844 4.408-9.844 9.844-9.844zm35.438-51.187c5.437 0 9.844 4.407 9.844 9.844s-4.407 9.844-9.844 9.844-9.844-4.408-9.844-9.845 4.407-9.843 9.844-9.843zm94.5 3.832c5.437 0 9.844 4.407 9.844 9.844s-4.407 9.844-9.844 9.844-9.844-4.407-9.844-9.844 4.407-9.844 9.844-9.844zm-15.75-66.832c5.437 0 9.844 4.407 9.844 9.844s-4.407 9.844-9.844 9.844-9.844-4.407-9.844-9.844 4.407-9.844 9.844-9.844zm-31.5-74.813c5.437 0 9.844 4.407 9.844 9.844s-4.407 9.844-9.844 9.844-9.844-4.407-9.844-9.844 4.407-9.844 9.844-9.844zm90.562 74.813c5.437 0 9.844 4.407 9.844 9.844s-4.407 9.844-9.844 9.844-9.844-4.407-9.844-9.844 4.408-9.844 9.844-9.844zm15.75-59.063c5.437 0 9.844 4.407 9.844 9.844s-4.407 9.844-9.844 9.844-9.844-4.407-9.844-9.844 4.408-9.844 9.844-9.844zm25.594 208.688h-240.187v-240.188h-11.813v252h252z"/></symbol><symbol id="slopegraph"><path d="M225,85.7c6.4,0,11.6-5.2,11.6-11.6s-5.2-11.6-11.6-11.6c-6.2,0-11.3,4.8-11.6,11L130,96.6l-40-34L216,26.7
		c2.1,2.6,5.4,4.2,9,4.2c6.4,0,11.6-5.2,11.6-11.6S231.4,7.7,225,7.7c-6,0-11,4.6-11.6,10.4L81.8,55.6L43.5,23
		c0.4-1.1,0.6-2.4,0.6-3.6c0-6.4-5.2-11.6-11.6-11.6s-11.6,5.2-11.6,11.6S26,31,32.4,31c1.9,0,3.6-0.4,5.2-1.2l33.9,28.8L41.7,67
		c-2.1-2.8-5.5-4.7-9.3-4.7c-6.4,0-11.6,5.2-11.6,11.6S26,85.7,32.4,85.7c5.8,0,10.6-4.3,11.5-9.9l35.7-10.2l39.9,34l-78.1,21.8
		c-2.1-2.6-5.4-4.3-9.1-4.3c-6.4,0-11.6,5.2-11.6,11.6s5.2,11.6,11.6,11.6c6,0,10.9-4.5,11.6-10.3l83.8-23.5l86.1,73.3
		c-0.4,1.1-0.6,2.3-0.6,3.5c0,6.4,5.2,11.6,11.6,11.6s11.6-5.2,11.6-11.6s-5.2-11.6-11.6-11.6c-1.9,0-3.7,0.5-5.3,1.3l-81.5-69.4
		l78.1-21.8C218.5,84.2,221.6,85.7,225,85.7z"/>,<path d="M225,226.5c-3.7,0-7,1.8-9.2,4.5L44,182c-0.7-5.8-5.6-10.3-11.6-10.3c-6.4,0-11.6,5.2-11.6,11.6s5.2,11.6,11.6,11.6
		c3.7,0,7-1.7,9.1-4.4l171.9,48.9c0.7,5.7,5.6,10.1,11.5,10.1c6.4,0,11.6-5.2,11.6-11.6S231.4,226.5,225,226.5z"/></symbol><symbol id="small-multiples"><path d="m93.8 2.5h-68.5c-12.6 0-22.8 10.2-22.8 22.8v68.5c0 12.6 10.3 22.8 22.8 22.8h68.5c12.6 0 22.8-10.3 22.8-22.8v-68.5c0-12.6-10.3-22.8-22.8-22.8zm-63.3 93.9c-4.7 0-8.6-3.8-8.6-8.6 0-4.7 3.8-8.6 8.6-8.6s8.6 3.8 8.6 8.6c0 4.7-3.8 8.6-8.6 8.6zm57.3-56.8c-4.7 0-8.6-3.8-8.6-8.6s3.8-8.6 8.6-8.6 8.6 3.8 8.6 8.6-3.8 8.6-8.6 8.6zm142.9-37.1h-68.5c-12.6 0-22.8 10.3-22.8 22.8v68.5c0 12.6 10.3 22.8 22.8 22.8h68.5c12.6 0 22.8-10.3 22.8-22.8v-68.5c0-12.6-10.2-22.8-22.8-22.8zm-62.6 93.9c-4.7 0-8.6-3.8-8.6-8.6 0-4.7 3.8-8.6 8.6-8.6 4.7 0 8.6 3.8 8.6 8.6-.1 4.7-3.9 8.6-8.6 8.6zm28.6-28.3c-4.7 0-8.6-3.8-8.6-8.6s3.8-8.6 8.6-8.6c4.7 0 8.6 3.8 8.6 8.6s-3.9 8.6-8.6 8.6zm28.3-28.5c-4.7 0-8.6-3.8-8.6-8.6s3.8-8.6 8.6-8.6c4.7 0 8.6 3.8 8.6 8.6s-3.9 8.6-8.6 8.6zm-131.2 99.8h-68.5c-12.6 0-22.8 10.3-22.8 22.8v68.5c0 12.6 10.3 22.8 22.8 22.8h68.5c12.6 0 22.8-10.3 22.8-22.8v-68.5c0-12.5-10.3-22.8-22.8-22.8zm-63.3 20.2c4.7 0 8.6 3.8 8.6 8.6 0 4.7-3.8 8.6-8.6 8.6s-8.6-3.8-8.6-8.6c.1-4.8 3.9-8.6 8.6-8.6zm.4 73.9c-4.7 0-8.6-3.8-8.6-8.6 0-4.7 3.8-8.6 8.6-8.6 4.7 0 8.6 3.8 8.6 8.6s-3.9 8.6-8.6 8.6zm56.9 0c-4.7 0-8.6-3.8-8.6-8.6 0-4.7 3.8-8.6 8.6-8.6 4.7 0 8.6 3.8 8.6 8.6s-3.8 8.6-8.6 8.6zm0-56.8c-4.7 0-8.6-3.8-8.6-8.6 0-4.7 3.8-8.6 8.6-8.6 4.7 0 8.6 3.8 8.6 8.6s-3.8 8.6-8.6 8.6zm142.9-37.3h-68.5c-12.6 0-22.8 10.3-22.8 22.8v68.5c0 12.6 10.3 22.8 22.8 22.8h68.5c12.6 0 22.8-10.3 22.8-22.8v-68.5c0-12.5-10.2-22.8-22.8-22.8zm-62.9 20.2c4.7 0 8.6 3.8 8.6 8.6 0 4.7-3.8 8.6-8.6 8.6-4.7 0-8.6-3.8-8.6-8.6.1-4.8 3.9-8.6 8.6-8.6zm.4 73.9c-4.7 0-8.6-3.8-8.6-8.6 0-4.7 3.8-8.6 8.6-8.6 4.7 0 8.6 3.8 8.6 8.6-.1 4.8-3.9 8.6-8.6 8.6zm28.5-28.5c-4.7 0-8.6-3.8-8.6-8.6 0-4.7 3.8-8.6 8.6-8.6 4.7 0 8.6 3.8 8.6 8.6s-3.9 8.6-8.6 8.6zm28.4 28.5c-4.7 0-8.6-3.8-8.6-8.6 0-4.7 3.8-8.6 8.6-8.6 4.7 0 8.6 3.8 8.6 8.6s-3.8 8.6-8.6 8.6zm0-56.8c-4.7 0-8.6-3.8-8.6-8.6 0-4.7 3.8-8.6 8.6-8.6 4.7 0 8.6 3.8 8.6 8.6s-3.8 8.6-8.6 8.6z"/></symbol><symbol id="sparkline"><path d="m237.8 109.9c-7.9 0-14.5 5.1-17 12.1-2.2-.8-3.4-2.2-5-4.1-3-3.5-7-8.3-17.6-8.3-.2 0-.3 0-.5 0-12.1.2-16.7 12.8-20.7 23.9-3.6 10.1-6.6 17.2-11.3 17.3 0 0-2.5-.8-5.8-11.7-2.4-7.9-4.4-18.5-6.4-28.7-5.2-27.1-9.3-48.5-22-48.5-.1 0-.1 0-.2 0-12.3.1-16.2 22.5-22.7 65.3-2.1 13.7-4.2 27.9-6.7 38.8-3.2 14.1-5.8 17.3-6.6 18-1.1-.3-2.9-2.2-4.8-7-2.3-5.8-4.1-14-5.8-21.9-4.2-19.1-8.1-36.9-20.7-36.9-.1 0-.1 0-.2 0-11.4.2-16 8-19.4 13.7s-5.4 8.7-10.9 8.8c-6.3.1-9-3-12.8-7.3-4.2-4.8-9.4-10.7-20.1-10.7-.1 0-.3 0-.4 0l.1 10c6.3-.1 9 3 12.8 7.3 4.2 4.8 9.5 10.9 20.5 10.7 11.4-.2 16-8 19.4-13.7s5.4-8.7 10.9-8.8c1.1 0 3 1.9 5.1 7.1 2.3 5.8 4.1 14 5.8 21.9 4.2 18.9 8.1 36.8 20.7 36.8h.2c12.3-.2 16.2-22.5 22.7-65.3 2.1-13.7 4.2-27.9 6.7-38.8 3.1-13.6 5.6-17.1 6.5-17.9.7.5 2.9 2.6 5.6 11.5 2.4 7.9 4.4 18.5 6.4 28.7 5.2 27.1 9.3 48.5 22 48.5h.2c12.1-.2 16.6-12.8 20.6-23.9 3.6-10.1 6.6-17.2 11.4-17.3 6.2-.1 7.8 1.7 10.4 4.7 2.4 2.8 5.5 6.5 12.2 7.8 1.9 7.9 9 13.7 17.5 13.7 9.9 0 18-8.1 18-18s-8.2-17.7-18.1-17.8z"/></symbol><symbol id="stem-and-leaf-plot"><path d="m.4 1.1h40.7v40.7h-40.7zm55.5 0v40.7h199.1v-40.7zm-31.2 75.1h-4.3l-8.6 4.9v6.3l5.6-3.2v14h-6v5.8h19.3v-5.8h-6zm-.1 83.2a20.1 20.1 0 0 0 3.2-4.5 9.2 9.2 0 0 0 1-4.4 7.1 7.1 0 0 0 -1.2-4.1 8.9 8.9 0 0 0 -3.5-2.8 14.4 14.4 0 0 0 -5.3-.9 16.4 16.4 0 0 0 -5.4.8 12 12 0 0 0 -4.4 2.1l2.3 5.2a15.7 15.7 0 0 1 3.7-1.8 10.9 10.9 0 0 1 3.4-.7c2.2 0 3.2.9 3.2 2.7s-.8 3.2-2.5 5l-9.1 9.5v5.4h19.6v-5.9h-10.6zm-1.7 65.2a6.3 6.3 0 0 0 4.3-6.2 6.8 6.8 0 0 0 -1.2-4 7.4 7.4 0 0 0 -3.5-2.7 13.8 13.8 0 0 0 -5.2-.9 17.5 17.5 0 0 0 -5.5.8 12.9 12.9 0 0 0 -4.4 2.1l2.3 5.2a13.5 13.5 0 0 1 3.6-1.8 9.1 9.1 0 0 1 3.5-.7 4 4 0 0 1 2.6.8 2.9 2.9 0 0 1 .9 2.3 2.1 2.1 0 0 1 -1 2 5.8 5.8 0 0 1 -3.1.6h-3.6v5.6h4.3a5.2 5.2 0 0 1 3.2.7 2.3 2.3 0 0 1 1 2.2 2.4 2.4 0 0 1 -1 2.3 5.6 5.6 0 0 1 -3.3.7 12.7 12.7 0 0 1 -7.4-2.5l-2.4 5.2a13.9 13.9 0 0 0 4.4 2.2 22.4 22.4 0 0 0 5.7.8 17.2 17.2 0 0 0 5.8-1 8.3 8.3 0 0 0 3.8-2.7 7.5 7.5 0 0 0 1.3-4.2 7.3 7.3 0 0 0 -1.3-4.3 7.3 7.3 0 0 0 -3.8-2.5zm33-111.6h31.3v-44.9h-31.3zm48 0h31.3v-44.9h-31.3zm48 0h31.2v-44.9h-31.2zm47.9 0h31.3v-44.9h-31.3zm-143.9 67.4h31.3v-44.9h-31.3zm48 0h31.3v-44.9h-31.3zm48 0h31.2v-44.9h-31.2zm-96 67.4h31.3v-45h-31.3zm48 0h31.3v-45h-31.3z"/></symbol><symbol id="streamgraph"><path d="m233.311 115.098 20.689-6.464v56.838l-13.112 17.316c-8.995 11.879-27.02 11.337-35.285-1.06l-.687-1.031c-5.42-8.13-17.894-6.083-20.432 3.353l-11.708 43.539c-3.853 14.33-24.043 14.719-28.445.548l-12.363-39.793c-2.36-7.596-9.389-12.773-17.344-12.773-5.239 0-10.199-2.361-13.503-6.427l-3.337-4.107c-7.019-8.638-20.887-5.556-23.587 5.242l-3.535 14.138c-2.02 8.081-12.903 9.492-16.917 2.193l-22.571-41.038c-5.851-10.64-17.032-17.25-29.175-17.25v-19.687l22.993 2.874c5.513.689 10.64 3.196 14.569 7.126l4.122 4.122c3.297 3.297 8.377 4.016 12.459 1.764l17.6-9.709c2.645-1.459 5.616-2.227 8.636-2.231 3.435-.005 6.801.977 9.694 2.829l7.618 4.876c7.679 4.915 17.494 5.002 25.259.223l8.827-5.432c2.66-1.637 5.72-2.503 8.844-2.503 7.635 0 14.319 5.127 16.297 12.501l6.964 25.957c.299 1.12 1.316 1.9 2.478 1.9s2.178-.78 2.479-1.902l6.91-25.755c1.945-7.25 8.998-11.904 16.428-10.843l17.11 2.444c7.383 1.053 14.907.447 22.025-1.778zm6.575-73.536c-9.212-10.36-25.434-10.247-34.502.237l-5.207 6.02c-4.248 4.911-12.169 3.694-14.746-2.266l-15.463-35.757c-4.124-9.538-17.528-9.868-22.118-.545l-15.236 30.949c-2.233 4.536-8.308 5.447-11.773 1.765l-.922-.98c-3.908-4.151-10.669-3.553-13.786 1.221l-17.4 26.639c-4.116 6.302-12.986 7.223-18.308 1.901l-9.608-9.608c-6.388-6.388-16.745-6.388-23.133 0l-11.99 11.99c-5.086 5.086-11.985 7.944-19.178 7.944h-4.516v19.688l35.241-3.204c5.353-.486 10.607-1.747 15.596-3.744l5.923-2.369c3.936-1.574 8.379-1.241 12.036.903l14.902 8.736c4.292 2.516 9.814.977 12.188-3.394l12.008-22.121c.992-1.828 3.631-1.784 4.562.077l10.147 20.294c2.081 4.162 6.335 6.791 10.989 6.791 4.943 0 9.405-2.962 11.322-7.518l11.397-27.069c.72-1.708 2.392-2.819 4.246-2.819 1.745 0 3.34.986 4.121 2.547l10.032 20.064c2.648 5.296 8.414 8.274 14.266 7.365l37.111-5.759c6.508-1.01 13.151.599 18.475 4.477l7.437 5.416.001-42z"/></symbol><symbol id="strip-plot"><path d="m19.6 219.6a15.2 15.2 0 1 1 12.3-8.7 15.2 15.2 0 0 1 -12.3 8.7zm-16.6 11.4a15.2 15.2 0 1 0 25.2-11.5 18.2 18.2 0 0 1 -20 .1 15.1 15.1 0 0 0 -5.2 11.4zm125.1-45.9a15.2 15.2 0 1 0 -15.2 15.3h.9a15.4 15.4 0 0 0 14.3-15.2c-.1-8.4 0 5.1 0-.1zm-30.4 26.8a15.2 15.2 0 1 0 25.1-11.6 18.2 18.2 0 0 1 -19.7 0 15.1 15.1 0 0 0 -5.4 11.6zm1.7 12.1a15.2 15.2 0 1 0 27 0 18.1 18.1 0 0 1 -25.5 1.4l-1.5-1.4c-1.2 2.1.5.5 0 0zm26.4-152.1a15.2 15.2 0 1 0 15 12.6 15.4 15.4 0 0 0 -15-12.6zm117.8 57.7a15.2 15.2 0 1 0 -18 11.8l1.4.2a15.4 15.4 0 0 0 16.6-12c1.7-8.2-1.1 5.1 0 0zm-5.7 26.9a15.2 15.2 0 0 0 -3.3-13 18.2 18.2 0 0 1 -18.4-3.9 15.2 15.2 0 1 0 21.7 16.9zm-29.7 17.8a15.2 15.2 0 1 0 28-8.3 18.2 18.2 0 0 1 -25.5 0 15.3 15.3 0 0 0 -2.5 8.2zm-95.3-64.7a15.2 15.2 0 1 0 14.4 10.4 15.2 15.2 0 0 0 -14.4-10.5zm-15.2 35a15.2 15.2 0 1 0 28.5-7.5 18.1 18.1 0 0 1 -25.6 1l-1-1a15.1 15.1 0 0 0 -1.9 7.5zm-65.9 40.6a15.2 15.2 0 1 0 -15.2-15.2 15.2 15.2 0 0 0 15.2 15.2zm34.7 24.7a15.2 15.2 0 0 0 -5.9-12 18.2 18.2 0 0 1 -18.8 0 15.2 15.2 0 1 0 24.7 11.9zm-30.5 21.1a15.2 15.2 0 1 0 28-8.3 18.2 18.2 0 0 1 -25.5 0 15.3 15.3 0 0 0 -2.5 8.3zm15.2-63.9h-.8a18.8 18.8 0 0 1 -13.3 20.9 15.2 15.2 0 0 0 14.1 9.6h1.4a15.2 15.2 0 0 0 -1.4-30.5zm172.2 32.1a15.2 15.2 0 1 0 15 12.6 15.4 15.4 0 0 0 -14.9-12.6zm-7.8 32a18.6 18.6 0 0 1 -10.7-15.4h-.1a15.2 15.2 0 1 0 15.2 16.8 18.6 18.6 0 0 1 -4.4-1.4zm26.3-15a18.5 18.5 0 0 1 -18.3 16.7 15.2 15.2 0 1 0 18.3-16.7zm-28.3-137.1a15.2 15.2 0 1 0 14.4 10.4 15.2 15.2 0 0 0 -14.4-10.4zm-52.4 128.9a15.2 15.2 0 0 0 -30.5 0 15.2 15.2 0 0 0 30.5 0m-15.2 18.6a16.5 16.5 0 0 1 -15-9.5 15.2 15.2 0 1 0 29.9 0 16.5 16.5 0 0 1 -15 9.4zm0 11.3a16.5 16.5 0 0 1 -15-9.5 15.2 15.2 0 1 0 29.9 0 16.5 16.5 0 0 1 -15 9.4zm10.9-72.7a15.2 15.2 0 0 0 -30.5 0 15.2 15.2 0 0 0 30.5 0m5.6-33.3a15.2 15.2 0 0 0 -15.2-15.2 15.2 15.2 0 1 0 15.2 15.2m-118-22.3a15.2 15.2 0 1 0 15 12.6 15.4 15.4 0 0 0 -15-12.6zm81.8-72.8a15.2 15.2 0 1 0 15 12.6 15.4 15.4 0 0 0 -14.9-12.7zm105.4 4.7a15.2 15.2 0 1 0 15 12.6 15.4 15.4 0 0 0 -14.9-12.6zm-197.8 26.6a15.2 15.2 0 1 0 15.1 12.6 15.4 15.4 0 0 0 -15.1-12.6zm91.9-66.1a15.2 15.2 0 1 0 15 12.6 15.4 15.4 0 0 0 -15-12.6zm125.7 249h-246v4h246zm3.8 0h-254.2v4h254.2z"/></symbol><symbol id="sunburst-chart"><path d="m69.796 128.876-26.165 2.453c-.013-.507-.039-1.011-.039-1.521 0-31.403 24.496-57.176 55.38-59.256v26.281c-16.125 1.958-28.717 15.506-29.176 32.043zm66.432.932c0 7.92-2.79 15.199-7.432 20.914l18.254 18.902c9.539-10.543 15.358-24.512 15.358-39.817 0-31.403-24.495-57.176-55.38-59.256v26.281c16.428 1.996 29.2 16.018 29.2 32.976zm-33.228 33.228c-3.983 0-7.804-.706-11.346-1.997l-11.903 23.434c7.145 3.05 15.002 4.742 23.249 4.742 14.561 0 27.907-5.274 38.25-14.001l-18.247-18.895c-5.568 4.213-12.498 6.717-20.003 6.717zm-32.459-26.14-26.172 2.454c2.855 17.603 13.467 32.633 28.208 41.46l11.9-23.429c-6.983-4.707-12.084-11.996-13.936-20.485zm-5.747-62.648-13.379-22.553c-8.243 5.462-15.575 12.19-21.716 19.908l21.186 15.414c4.012-4.877 8.699-9.176 13.909-12.769zm105.669 55.56c0 17.576-6.762 33.598-17.813 45.617l18.205 18.852c15.972-16.803 25.788-39.511 25.788-64.468 0-10.932-1.89-21.43-5.348-31.192l-24.29 9.912c2.231 6.694 3.458 13.844 3.458 21.279zm-134.926 0c0-13.344 3.911-25.785 10.623-36.268l-21.202-15.424c-9.852 14.824-15.601 32.598-15.601 51.693 0 1.584.041 3.158.119 4.723l26.119-2.449c-.026-.757-.058-1.512-.058-2.275zm85.045 65.125 5.603 25.612c14.636-3.742 27.9-10.944 38.874-20.675l-18.209-18.856c-7.512 6.442-16.446 11.264-26.268 13.919zm-21.61-132.457v-26.219c-14.671.624-28.48 4.634-40.659 11.276l13.375 22.547c8.243-4.339 17.483-7.024 27.284-7.604zm65.038 38.573 24.272-9.905c-14.221-31.243-45.12-53.349-81.254-54.887v26.218c25.196 1.493 46.71 16.87 56.982 38.574zm-61.01 96.222c-9.559 0-18.652-2.01-26.899-5.611l-11.875 23.378c11.821 5.399 24.952 8.412 38.774 8.412 5.21 0 10.32-.435 15.301-1.257l-5.607-25.629c-3.167.459-6.402.707-9.694.707zm24.907 31.145 5.596 25.584c20.936-5.143 39.866-15.449 55.346-29.495l-18.193-18.839c-12.035 10.745-26.631 18.677-42.749 22.75zm-80.605-183.654-10.726-18.082-2.755-4.375c-12.178 7.863-22.938 17.739-31.812 29.152l21.172 15.403c6.792-8.594 14.943-16.066 24.121-22.098zm123.525 9.34 18.035-18.979c-21.785-19.773-50.399-32.145-81.834-33.123v26.197c24.457.958 46.723 10.591 63.799 25.905zm24.919 33.996 24.245-9.894c-6.192-13.984-14.819-26.656-25.342-37.479l-18.037 18.982c7.876 8.267 14.377 17.854 19.134 28.391z"/></symbol><symbol id="tally-chart"><path d="m167.4 44c-.1.2-.1.3-.2.4s.2-.3.2-.4zm12.4-.6a5.8 5.8 0 0 1 -3.8 4.1h-.1l-3.1 4-1 1.2a1.5 1.5 0 0 1 -.5.6l-1.8 2.5c-2.7 3.4-5.5 6.7-8.3 10s-5.3 6.1-8.2 9-4.3 4.6-6.5 6.9v140.8a4.5 4.5 0 0 1 -9 0v-131.6a18.5 18.5 0 0 0 -1.4 1.4c-2.9 2.9-6.1 5.5-9 8.4-1.3 1.4-2.4 3.1-3.8 4.5s-3 2.9-4.5 4.3c-3 2.9-5.9 5.9-8.8 8.9l-2.9 3.1v103.1a4.6 4.6 0 0 1 -4.5 4.5 4.5 4.5 0 0 1 -4.5-4.5v-94.2l-1.2 1-1.1 1.2-.3.4a24.7 24.7 0 0 1 -2.1 2.7 52.3 52.3 0 0 1 -4.2 3.9c-1.4 1.4-2.6 2.9-3.9 4.4-2.5 3.1-5 6.1-7.7 9.1s-3.8 4.2-5.8 6.2v66.3a4.5 4.5 0 0 1 -4.5 4.5 4.5 4.5 0 0 1 -4.5-4.5v-56.9l-2.6 2.8c-2.8 3-5.5 6.2-8.3 9.2s-5.6 5.6-8.4 8.4-5.6 5.8-8.3 8.7l-3.3 3.3v22.4a4.5 4.5 0 0 1 -9 0v-13.4l-.2.2-.6.8-1.2 1.5-1.9 2.4-2.1 2.6-.9 1.1-.4.5h-.1c-.6.8-1.1 1.6-1.8 2.4l-.5.5a4.4 4.4 0 0 1 -4.2 3.3 4.5 4.5 0 0 1 -4.5-4.5 9 9 0 0 1 2.9-5.7l.3-.5 1.4-1.7 1.8-2.3c1.3-1.5 2.8-3.4 3.8-4.8q-.1.4.3-.3a1.8 1.8 0 0 0 .5-.7 1 1 0 0 0 .4-.5l1-1.1 2-2.1 4-3.9v-149.3a4.5 4.5 0 0 1 9 0v140.2c2.8-2.9 5.5-5.8 8.5-8.5 6.1-5.7 11.2-12.4 17.1-18.4l5.3-5.5v-109.7a4.6 4.6 0 0 1 4.5-4.5 4.5 4.5 0 0 1 4.5 4.5v100c1.1-1.1 2.1-2.3 3.1-3.5 2.6-3.1 4.9-6.3 7.8-9.2 1.3-1.3 2.9-2.5 4.2-3.9l.4-.5.2-.3.9-1.2a25.7 25.7 0 0 1 2.1-2.4c2.5-2.5 5.1-4.8 7.6-7.2v-73.1a4.5 4.5 0 0 1 4.5-4.5 4.6 4.6 0 0 1 4.5 4.5v63.7l1.4-1.4c2.9-3 6.1-5.8 8.9-8.8 1.4-1.5 2.5-3.2 4-4.6l4.6-4.3c3.2-2.8 6.2-5.8 9.1-8.9l2.4-2.4v-38a4.5 4.5 0 1 1 9 0v28.6c1.9-2 3.9-3.9 5.7-6s5.4-6.3 8-9.5l1.2-1.5.5-.7 1.8-2.3 2.4-3.1 1.1-1.3c.1-.1.2-.2.2-.3a30.7 30.7 0 0 1 2.8-3.5 8.1 8.1 0 0 1 5.3-2.8c3-.4 4.9 3.2 4.3 5.7zm-12.6 1c.1-.1.1-.2.2-.4s-.1.2-.2.4zm56.6-13a4.5 4.5 0 0 0 -4.5 4.5v186.1a4.5 4.5 0 0 0 4.5 4.5 4.7 4.7 0 0 0 4.5-4.5v-186.1a4.5 4.5 0 0 0 -4.5-4.5zm25.2-3a4.6 4.6 0 0 0 -4.5 4.5v192a4.5 4.5 0 0 0 4.5 4.5 4.6 4.6 0 0 0 4.5-4.5v-192a4.5 4.5 0 0 0 -4.5-4.5z"/></symbol><symbol id="tape-diagram"><path d="m2 104.4v47.2h252v-47.2zm130.9 9.8h53.2v27.6h-53.2zm-9.8 27.6h-53.2v-27.6h53.2zm-111.3-27.6h48.2v27.6h-48.2zm232.4 27.6h-48.2v-27.6h48.2zm-242.2-104.2v47.3h193.9v-47.3zm130.9 9.8h53.2v27.6h-53.2zm-9.8 27.6h-53.2v-27.6h53.2zm-111.3-27.6h48.2v27.6h-48.2zm-9.8 123.8v47.2h130.9v-47.2zm121.1 37.4h-53.2v-27.6h53.2zm-111.3-27.6h48.2v27.6h-48.2zm232.4-96.3"/></symbol><symbol id="taylor-diagram"><path d="M103.1,152.9a12,12,0,0,1-23.9,0,12,12,0,1,1,23.9,0ZM88.8,74.2a12,12,0,1,0,0,23.9,12,12,0,0,0,0-23.9ZM131,185.9a12,12,0,0,0,0,23.9,12,12,0,1,0,0-23.9Zm19-66.3a12,12,0,1,0,12,12A11.9,11.9,0,0,0,150,119.6ZM46.2,104a12,12,0,1,0,0,23.9,12,12,0,0,0,0-23.9Zm147.3,92.7a12,12,0,0,0,0,23.9,12,12,0,1,0,0-23.9ZM80.4,171.4a12,12,0,0,0,0,23.9,12,12,0,1,0,0-23.9Zm174.5,81.5H254V254H2V2H3V1A250.1,250.1,0,0,1,181.1,74.8,250.1,250.1,0,0,1,254.9,252.9Zm-80.8-171a246.8,246.8,0,0,0-35-29.1L100,114.7a170.3,170.3,0,0,1,45.8,48l63-37.1A241.5,241.5,0,0,0,174.1,81.9ZM75.3,204.1l61.8-36.4a159.1,159.1,0,0,0-42.4-44.5L56.4,183.9A88.5,88.5,0,0,1,75.3,204.1ZM51,192.4,25.2,233.5l41.4-24.4A77.2,77.2,0,0,0,51,192.4ZM13.8,84.3a167.8,167.8,0,0,1,77.9,24.9l39-61.8A240,240,0,0,0,13.8,11.2Zm0,82a85.1,85.1,0,0,1,34.4,12l38.2-60.7A158.4,158.4,0,0,0,13.8,94.3Zm0,10.1v56.3l29-46A78,78,0,0,0,13.8,176.4Zm65.7,65.8a77.9,77.9,0,0,0-7.7-24.5L30.1,242.2Zm82.1,0a156.9,156.9,0,0,0-19.4-65.9L80.4,212.6a87.4,87.4,0,0,1,9.2,29.6Zm83.1,0a240.9,240.9,0,0,0-30.8-108l-63,37.1a168.4,168.4,0,0,1,20.7,70.9Z"/></symbol><symbol id="ternary-plot"><path d="m128.5 11-127.9 221.5h255.8zm59.2 120.6 53.1 91.9h-105.6zm-59.2 89.4-52.4-94h106.2zm52.5-101h-105l52.5-91zm-111 10.4 51.9 93.1h-105.7z"/></symbol><symbol id="time-series"><path d="m254 125.047h-20.593l-12.885-53.186-12.886 21.469-17.138-42.84-23.969 74.557h-20.091l-30.506-107.533-27.376 107.533h-74.743v-123.047h-11.813v252h252v-11.813h-240.187v-111.234h73.237l-15.927 62.587-18.024-48.372-23.497 65.52h10.454l13.22-36.855 19.619 52.664 24.314-95.543h40.674l17.384 61.297 19.707-61.297h49.74l3.101 12.797h10.129l-3.101-12.797h19.157zm-155.285 0 17.729-69.654 19.756 69.654zm57.143 33.203-7.747-27.297h16.518zm21.006-33.203 14.638-45.537 14.362 35.91 10.74-17.906 6.674 27.533z"/></symbol><symbol id="timeline"><path d="m110 38.7v39.6a12.4 12.4 0 0 1 0 24.4v41.6a12.4 12.4 0 0 1 0 24.4v48.6a12.5 12.5 0 1 1 -5 0v-48.6a12.4 12.4 0 0 1 0-24.4v-41.6a12.4 12.4 0 0 1 0-24.4v-39.6a12.5 12.5 0 1 1 5 0zm31-22.7v8h90v-8zm0 21h90v-8h-90zm0 51h90v-8h-90zm0 13h90v-8h-90zm0 53h90v-8h-90zm0 13h90v-8h-90zm0 60h90v-8h-90zm0 13h90v-8h-90zm-84-214.2a9.4 9.4 0 0 0 3.5-7.3 9.5 9.5 0 0 0 -19 0 9.4 9.4 0 0 0 3.5 7.3c-7.8 2.3-13.5 8.6-13.5 16.2h39c0-7.6-5.7-13.9-13.5-16.2zm0 64a9.4 9.4 0 0 0 3.5-7.3 9.5 9.5 0 0 0 -19 0 9.4 9.4 0 0 0 3.5 7.3c-7.8 2.3-13.5 8.6-13.5 16.2h39c0-7.6-5.7-13.9-13.5-16.2zm0 67a9.4 9.4 0 0 0 3.5-7.3 9.5 9.5 0 0 0 -19 0 9.4 9.4 0 0 0 3.5 7.3c-7.8 2.3-13.5 8.6-13.5 16.2h39c0-7.6-5.7-13.9-13.5-16.2zm0 72a9.4 9.4 0 0 0 3.5-7.3 9.5 9.5 0 0 0 -19 0 9.4 9.4 0 0 0 3.5 7.3c-7.8 2.3-13.5 8.6-13.5 16.2h39c0-7.6-5.7-13.9-13.5-16.2z" fill-rule="evenodd"/></symbol><symbol id="transit-map"><path d="M244.9,221.1v-45.7c4.3-2.3,7.1-6.8,7.1-12c0-7.6-6.1-13.7-13.7-13.7c-1.9,0-3.7,0.4-5.4,1.1l-20.1-15.4
	c0.1-0.7,0.2-1.5,0.2-2.3c0-5.2-2.9-9.7-7.1-12V27.7c4.3-2.3,7.1-6.8,7.1-12C213,8.1,206.9,2,199.3,2c-7.6,0-13.7,6.1-13.7,13.7
	c0,5.2,2.9,9.7,7.1,12v93.4c-2.3,1.3-4.2,3.2-5.5,5.5h-32.1c-2.3-4.3-6.8-7.1-12-7.1c-0.2,0-0.3,0-0.5,0c-4.9,0.2-9.1,2.9-11.4,6.9
	l-31.3,0.2c-1.5-3.3-4.1-6-7.3-7.5l-0.1-43.6c3.3-1.8,5.7-4.8,6.7-8.5c0-0.1,0-0.1,0-0.2c0.1-0.3,0.2-0.6,0.2-0.9
	c0-0.2,0-0.3,0.1-0.5c0-0.2,0.1-0.5,0.1-0.7c0-0.4,0.1-0.8,0.1-1.3c0-7.6-6.1-13.7-13.7-13.7c-0.4,0-0.9,0-1.3,0.1
	c-0.3,0-0.6,0.1-1,0.1c-0.1,0-0.2,0-0.3,0c-0.4,0.1-0.8,0.2-1.2,0.3c0,0,0,0,0,0c-2,0.6-3.9,1.6-5.4,3c0,0-0.1,0.1-0.1,0.1
	c-0.4,0.4-0.8,0.7-1.1,1.1c0,0,0,0,0,0c-0.7,0.8-1.3,1.7-1.8,2.7c0,0.1-0.1,0.2-0.1,0.3c-0.2,0.4-0.4,0.8-0.5,1.2
	c0,0.1-0.1,0.2-0.1,0.3C72.8,60,72.5,61,72.4,62c0,0,0,0,0,0c-0.1,0.5-0.1,1-0.1,1.5c0,0.4,0,0.8,0.1,1.2c0,0.1,0,0.2,0,0.3
	c0,0.4,0.1,0.7,0.2,1.1c0,0,0,0.1,0,0.1c0.1,0.4,0.2,0.8,0.3,1.2c0,0.1,0.1,0.2,0.1,0.3c0.1,0.3,0.2,0.6,0.3,0.9
	c0,0.1,0.1,0.2,0.1,0.2c0.2,0.4,0.3,0.7,0.5,1c0.1,0.1,0.1,0.2,0.2,0.3c0.1,0.3,0.3,0.5,0.5,0.8c0.1,0.1,0.1,0.2,0.2,0.3
	c0.2,0.3,0.4,0.6,0.7,0.9c0.1,0.1,0.2,0.2,0.2,0.3c0.2,0.2,0.4,0.4,0.6,0.6c0.1,0.1,0.2,0.2,0.3,0.3c0.3,0.3,0.5,0.5,0.8,0.7
	c0.1,0.1,0.2,0.1,0.3,0.2c0.2,0.2,0.4,0.3,0.6,0.5c0.1,0.1,0.2,0.2,0.3,0.2c0.3,0.2,0.6,0.4,0.9,0.6c0,0,0,0,0,0l-0.1,43.7
	c-5,2.5-8.4,7.6-8.4,13.6l-47.1,20.7c-2.2-1.5-4.8-2.3-7.6-2.3c-7.6,0-13.7,6.1-13.7,13.7c0,7.6,6.1,13.7,13.7,13.7
	c7.5,0,13.6-6,13.7-13.5l46.6-20.4c0.8,0.7,1.7,1.2,2.6,1.7l-0.2,75c-4.3,2.3-7.2,6.8-7.2,12c0,7.6,6.1,13.7,13.7,13.7
	c7.6,0,13.7-6.1,13.7-13.7c0-5.2-2.9-9.7-7.1-12l0.2-74.6c3.2-1.4,5.7-3.9,7.3-6.9h31.5c2.3,4.3,6.8,7.1,12,7.1
	c5.2,0,9.7-2.9,12-7.1h32.1c2.3,4.3,6.8,7.1,12,7.1c1.9,0,3.7-0.4,5.4-1.1l20.1,15.4c-0.1,0.7-0.2,1.5-0.2,2.3c0,5.2,2.9,9.7,7.1,12
	v45.7c-4.3,2.3-7.1,6.8-7.1,12c0,7.6,6.1,13.7,13.7,13.7c7.6,0,13.7-6.1,13.7-13.7C252,228,249.1,223.5,244.9,221.1z M16.3,172
	c-3.9,0-7.1-3.2-7.1-7.1c0-3.9,3.2-7.1,7.1-7.1c3.9,0,7.1,3.2,7.1,7.1C23.4,168.8,20.2,172,16.3,172z M86.1,56.3
	c3.6,0,6.5,2.9,6.5,6.5c0,3.6-2.9,6.5-6.5,6.5c-3.6,0-6.5-2.9-6.5-6.5C79.7,59.2,82.6,56.3,86.1,56.3z M92.7,233.3
	c0,3.9-3.2,7.1-7.1,7.1c-3.9,0-7.1-3.2-7.1-7.1c0-3.9,3.2-7.1,7.1-7.1C89.5,226.2,92.7,229.4,92.7,233.3z M86.1,139.3
	c-3.6,0-6.5-2.9-6.5-6.5c0-3.6,2.9-6.5,6.5-6.5c1.7,0,3.2,0.7,4.4,1.7c0.7,0.6,1.2,1.4,1.6,2.3c0.3,0.8,0.5,1.6,0.5,2.5
	C92.6,136.4,89.7,139.3,86.1,139.3z M143.3,140.3C143.3,140.3,143.3,140.3,143.3,140.3c-0.1,0-0.2,0-0.2,0c-1,0-2-0.2-2.8-0.6
	c-2.4-1-4-3.3-4.3-5.9c0-0.1,0-0.1,0-0.2c0-0.1,0-0.3,0-0.4c0,0,0-0.1,0-0.1c0,0,0-0.1,0-0.1c0-4.1,3.3-7.3,7.3-7.3
	c4.1,0,7.3,3.3,7.3,7.3C150.7,137,147.4,140.3,143.3,140.3z M192.1,15.5c0-4.1,3.3-7.3,7.3-7.3c4.1,0,7.3,3.3,7.3,7.3
	c0,4.1-3.3,7.3-7.3,7.3C195.4,22.8,192.1,19.5,192.1,15.5z M205.9,136c-0.7,1.7-2.1,3-3.7,3.7c-0.9,0.4-1.8,0.6-2.8,0.6
	c-0.6,0-1.2-0.1-1.8-0.2l-1-0.3c-2.5-1.1-4.3-3.6-4.3-6.6c0-3.9,3.2-7.1,7.1-7.1c2.7,0,5.1,1.5,6.3,3.8c0.1,0.2,0.2,0.4,0.3,0.5
	c0.4,0.9,0.6,1.8,0.6,2.8C206.5,134.2,206.2,135.2,205.9,136z M231.3,163.5c0-3.8,3.1-7,7-7s7,3.1,7,7c0,3.8-3.1,7-7,7
	S231.3,167.3,231.3,163.5z M238.3,240.3c-3.9,0-7.1-3.2-7.1-7.1c0-3.9,3.2-7.1,7.1-7.1c3.9,0,7.1,3.2,7.1,7.1
	C245.4,237.1,242.2,240.3,238.3,240.3z"/></symbol><symbol id="tree-diagram"><path d="m248.12 233.548v-35.657h-19.713v-19.721c4.133-1.839 7.019-5.974 7.019-10.79s-2.886-8.951-7.019-10.79v-33.512h-35.314v-10.772c5.366-1.998 9.195-7.152 9.195-13.214s-3.829-11.216-9.195-13.214v-36.628h-69.459v-15.446c6.586-2.087 11.361-8.245 11.361-15.521-.002-8.993-7.292-16.283-16.285-16.283s-16.283 7.29-16.283 16.283c0 7.276 4.775 13.434 11.361 15.521v15.446h-69.46v36.63c-5.363 1.999-9.19 7.152-9.19 13.212s3.827 11.213 9.19 13.212v10.774h-35.437v33.574c-4.064 1.867-6.891 5.963-6.891 10.728 0 6.524 5.289 11.813 11.813 11.813s11.813-5.289 11.813-11.813c0-4.765-2.827-8.861-6.891-10.728v-23.73h61.031v23.73c-4.063 1.868-6.891 5.963-6.891 10.728 0 6.524 5.289 11.813 11.813 11.813s11.812-5.289 11.812-11.813c0-4.765-2.827-8.861-6.891-10.728v-33.574h-35.437v-10.774c5.363-1.999 9.19-7.152 9.19-13.212s-3.827-11.213-9.19-13.212v-26.786h129.076v26.788c-5.361 2.001-9.185 7.152-9.185 13.21s3.825 11.209 9.185 13.21v10.776h-35.561v33.635c-3.994 1.895-6.763 5.952-6.763 10.667 0 4.714 2.769 8.772 6.763 10.667v19.844h-19.687v35.256c-3.608 1.808-6.09 5.53-6.09 9.841 0 6.082 4.93 11.012 11.012 11.012s11.012-4.93 11.012-11.012c0-4.31-2.482-8.032-6.09-9.841v-25.413h29.531v25.413c-3.608 1.808-6.09 5.53-6.09 9.841 0 6.082 4.93 11.012 11.012 11.012s11.012-4.93 11.012-11.012c0-4.31-2.482-8.032-6.09-9.841v-35.256h-19.688v-19.721c4.133-1.839 7.019-5.974 7.019-10.79s-2.886-8.951-7.019-10.79v-23.668h61.031v23.791c-3.994 1.895-6.763 5.952-6.763 10.667 0 4.714 2.769 8.772 6.763 10.667v19.844h-19.662v35.46c-3.504 1.793-5.907 5.431-5.907 9.637 0 5.98 4.848 10.828 10.828 10.828s10.828-4.848 10.828-10.828c0-4.206-2.403-7.843-5.906-9.636v-25.617h29.531v25.788c-3.517 1.788-5.932 5.433-5.932 9.649 0 5.98 4.848 10.828 10.828 10.828s10.83-4.848 10.83-10.828c0-4.196-2.391-7.826-5.88-9.624z"/></symbol><symbol id="tree-map"><path d="m107.328 2h-105.328v252h105.328 146.672v-252zm136.828 9.844v79.734h-126.984v-79.734zm-48.234 89.578h48.234v100.406h-48.234zm-184.078 142.734v-232.312h95.484v232.313h-95.484zm105.328-142.734h68.906v142.734h-68.906zm78.75 142.734v-32.484h48.234v32.484z"/></symbol><symbol id="unit-chart"><path d="m213.8 178.3h-33.9v-47.5h33.9zm0 5.4h-33.9v47.6h33.9zm-38.2-52.9h-33.9v47.5h33.9zm0 52.9h-33.9v47.6h33.9zm38.2-105.9h-33.9v47.5h33.9zm38.2 0h-33.9v47.5h33.9zm0-53h-33.9v47.6h33.9zm-76.4 53h-33.9v47.5h33.9zm76.4 53h-33.9v47.5h33.9zm0 52.9h-33.9v47.6h33.9zm-215.9-52.9h-33.9v47.5h33.9zm38.2 52.9h-33.9v47.6h33.9zm-38.2 47.6v-47.6h-33.9v47.6zm38.2-100.5h-33.9v47.5h33.9zm0-53h-33.9v47.5h33.9zm38.2 53h-33.9v47.5h33.9zm0 52.9h-33.9v47.6h33.9zm0-105.9h-33.9v47.5h33.9zm101.2-53h-34v47.5h34z"/></symbol><symbol id="venn-diagram"><path d="m177.5 51.5c-18.2 0-35.6 6.4-49.4 18.1l-.1-.1-.1.1c-13.8-11.7-31.1-18.1-49.4-18.1-42.2 0-76.5 34.3-76.5 76.5s34.3 76.5 76.5 76.5c18.2 0 35.6-6.4 49.4-18.1l.1.1.1-.1c13.8 11.7 31.1 18.1 49.4 18.1 42.2 0 76.5-34.3 76.5-76.5s-34.3-76.5-76.5-76.5zm-66.7 76.5c0-16.8 6.1-32.5 17.2-44.7 10.9 12 17.2 28.1 17.3 44.3.1 16.5-6.2 32.9-17.3 45.2-11.1-12.3-17.2-28-17.2-44.8zm-99 0c0-36.8 29.9-66.7 66.7-66.7 15.6 0 30.4 5.4 42.3 15.2-12.9 14.1-19.9 32.2-19.9 51.5s7.1 37.4 19.9 51.5c-11.9 9.8-26.7 15.2-42.3 15.2-36.7 0-66.7-29.9-66.7-66.7z"/></symbol><symbol id="violin-plot"><path d="m57.893 88.409-.197-.325c-3.219-6.103-8.466-16.055-11.685-22.148l-10.434-22.513c-.266-.571-.827-.925-1.447-.925s-1.191.354-1.447.925l-10.434 22.512c-3.514 7.57-7.412 14.972-11.685 22.148l-.197.325c-7.757 13.053-10.247 28.586-6.94 43.411l18.742 84.085c1.447 6.457 5.631 12.403 10.277 17.207.423.433 1.004.669 1.614.669h.138c.61 0 1.191-.236 1.614-.669 4.646-4.804 8.83-10.749 10.277-17.207l18.743-84.085c3.308-14.824.818-30.358-6.939-43.41zm-18.841 61.739h-9.844v-63.984h9.844zm-4.922-38.882c2.175 0 3.937 1.763 3.937 3.937s-1.763 3.937-3.937 3.937-3.937-1.763-3.937-3.937 1.763-3.937 3.937-3.937zm119.031 40.103-7.432-24.521c-2.943-9.706-3.947-19.884-2.973-29.974l1.801-18.526c.827-8.485.089-17.049-2.175-25.259l-13.299-44.277c-.148-.482-.581-.807-1.083-.807s-.935.325-1.083.807l-13.299 44.277c-2.264 8.21-3.002 16.774-2.175 25.259l1.801 18.526c.975 10.09-.03 20.268-2.973 29.974l-7.432 24.521c-5.266 17.394-4.351 36.077 2.599 52.861l21.39 49.002c.197.463.66.768 1.171.768.512 0 .975-.305 1.181-.768l21.381-49.002c6.951-16.784 7.866-35.467 2.6-52.861zm-20.239 58.403h-9.844v-72.932h9.844zm-4.922-47.976c2.175 0 3.937 1.763 3.937 3.938s-1.763 3.938-3.937 3.938c-2.175 0-3.938-1.763-3.938-3.938s1.764-3.938 3.938-3.938zm118.529-101.354-3.416-6.231c-6.133-11.192-10.966-23.044-14.401-35.329l-4.508-16.075c-.129-.472-.572-.807-1.064-.807-.502 0-.935.335-1.073.807l-4.499 16.085c-3.445 12.275-8.279 24.127-14.401 35.319l-3.416 6.231c-4.902 8.948-7.481 18.979-7.481 29.177 0 7.166 1.27 14.273 3.75 20.997l7.905 21.449c5.887 15.976 10.405 32.425 13.496 49.169l4.676 19.52c.118.473.551.817 1.043.817s.915-.344 1.034-.817l4.676-19.52c3.101-16.744 7.609-33.193 13.506-49.169l7.895-21.449c2.481-6.723 3.75-13.83 3.75-20.997-.001-10.198-2.57-20.229-7.472-29.177zm-18.467 49.879h-9.844v-51.68h9.844zm-4.925-24.157c2.175 0 3.938 1.763 3.938 3.937 0 2.175-1.763 3.938-3.938 3.938s-3.937-1.763-3.937-3.938c-.001-2.174 1.762-3.937 3.937-3.937z"/></symbol><symbol id="waterfall-chart"><path d="m69.9 242.2v-98.4h56.1v-35.4h56.2v-70.9h15.9v137.5h40.5v-141.5h-96.8v70.9h-56.1v35.5h-56.2v102.3h-15.7v-240.2h-11.8v252h252v-11.8z"/></symbol><symbol id="word-cloud"><path d="m103.6 62.2-20.2 69.5h-18.9l-12-42.3-12.4 42.3h-18.9l-20.2-69.5h18.1l12.6 44.3 13.2-44.3h16.2l12.6 44.8 13.1-44.8zm12.2 66.8c-9.8-5.6-14.9-17.7-12.8-29.8a26.3 26.3 0 0 1 22.1-21.9c10.8-1.6 22.8 2.4 28.6 13.2s4.2 24.5-3.3 33.1-23.8 11.5-34.6 5.3zm21.3-14.8c3.1-3.7 3.5-9.9 2.2-14.6s-5.6-7.9-10.2-7.6-8.1 3.8-9.1 8.8-.3 10.8 3.3 14.2a9.5 9.5 0 0 0 13.8-.8zm50.6-35.3a23.2 23.2 0 0 1 9.5-1.8v16.9l-3.8-.3q-5.4 0-8.5 3.3t-3.1 10v24.7h-16.9v-53.8h16.1v6.4a16 16 0 0 1 6.7-5.5zm67.3-20.8v73.6h-16.1v-5.4c-4.4 5.8-11.9 7-18.3 5.9a23.2 23.2 0 0 1 -16.7-13.3c-6.9-14.6-1.8-35.1 12.9-40.5 6.9-2.6 16-2.1 21.3 4.2v-24.5zm-19.5 56.1c3.1-3.7 3.5-9.9 2.2-14.6s-5.5-7.9-10.1-7.6-8.1 3.8-9.1 8.8-.3 10.8 3.3 14.2a9.4 9.4 0 0 0 13.7-.8zm-168 39.2-11.2 38.4h-10.4l-6.6-23.4-6.9 23.4h-10.5l-11.2-38.4h10.1l7 24.5 7.2-24.5h9l7 24.8 7.2-24.8zm6.8 37c-5.4-3.1-8.2-9.8-7.1-16.5a14.6 14.6 0 0 1 12.2-12.1c6-.9 12.6 1.3 15.8 7.3s2.3 13.6-1.8 18.3-13.2 6.4-19.1 2.9zm11.8-8.2c1.7-2.1 2-5.5 1.2-8.1a5.5 5.5 0 0 0 -5.6-4.2 5.7 5.7 0 0 0 -5 4.8c-.5 2.7-.1 6 1.8 7.9a5.3 5.3 0 0 0 7.7-.5zm28-19.5a12.8 12.8 0 0 1 5.3-1v9.4l-2.1-.2a6.1 6.1 0 0 0 -4.7 1.8q-1.7 1.8-1.7 5.5v13.7h-9.4v-29.9h8.9v3.6a8.9 8.9 0 0 1 3.7-3zm37.3-11.5v40.7h-8.9v-3c-2.4 3.2-6.6 3.9-10.1 3.3a12.8 12.8 0 0 1 -9.3-7.4c-3.8-8.1-1-19.4 7.1-22.4 3.8-1.4 8.9-1.1 11.8 2.3v-13.6h9.4zm-10.8 31c1.7-2.1 2-5.5 1.2-8.1a5.4 5.4 0 0 0 -5.6-4.2 5.7 5.7 0 0 0 -5 4.8c-.5 2.7-.1 6 1.8 7.9a5.2 5.2 0 0 0 7.6-.5zm56.8-21.7-6.9 23.8h-6.5l-4.1-14.5-4.3 14.5h-6.5l-6.9-23.8h6.2l4.3 15.2 4.5-15.2h5.5l4.3 15.3 4.5-15.3h5.8zm4.2 22.8a9.7 9.7 0 0 1 -4.4-10.2 9 9 0 0 1 7.6-7.5 9.3 9.3 0 0 1 9.8 4.5 10.4 10.4 0 0 1 -1.1 11.3 9.6 9.6 0 0 1 -11.8 1.8zm7.3-5.1a5.8 5.8 0 0 0 .8-5 3.4 3.4 0 0 0 -3.5-2.6 3.5 3.5 0 0 0 -3.1 3 5.4 5.4 0 0 0 1.1 4.9 3.2 3.2 0 0 0 4.7-.3zm17.3-12.1a7.9 7.9 0 0 1 3.2-.6v5.8h-1.3a3.8 3.8 0 0 0 -2.9 1.1 4.9 4.9 0 0 0 -1.1 3.4v8.4h-5.8v-18.4h5.5v2.2a5.5 5.5 0 0 1 2.4-1.9zm23-7.1v25.2h-5.5v-1.8a6.3 6.3 0 0 1 -6.2 2 7.9 7.9 0 0 1 -5.7-4.5c-2.4-5-.6-12 4.4-13.9 2.4-.9 5.5-.7 7.3 1.4v-8.4h5.8zm-6.7 19.2a5.8 5.8 0 0 0 .8-5 3.4 3.4 0 0 0 -3.5-2.6 3.5 3.5 0 0 0 -3.1 3 5.4 5.4 0 0 0 1.1 4.9 3.2 3.2 0 0 0 4.7-.3zm-121.6-175.2-12.5 42.9h-11.6l-7.4-26.1-7.7 26.1h-11.7l-12.5-42.9h11.2l7.8 27.4 8.2-27.4h10l7.8 27.6 8-27.6zm7.5 41.3c-6.1-3.5-9.2-10.9-7.9-18.4a16.3 16.3 0 0 1 13.7-13.5c6.7-1 14.1 1.5 17.7 8.2s2.6 15.1-2 20.4-14.7 7.1-21.4 3.3zm13.2-9.2c1.9-2.3 2.2-6.1 1.4-9a6.1 6.1 0 0 0 -6.3-4.7c-2.8.2-5 2.4-5.6 5.4s-.2 6.7 2 8.8a5.9 5.9 0 0 0 8.5-.5zm31.3-21.8a14.3 14.3 0 0 1 5.9-1.1v10.5l-2.4-.2a6.9 6.9 0 0 0 -5.3 2q-1.9 2-1.9 6.2v15.2h-10.4v-33.2h10v4a9.9 9.9 0 0 1 4.1-3.4zm41.6-12.8v45.4h-10v-3.3c-2.7 3.6-7.3 4.3-11.3 3.6a14.3 14.3 0 0 1 -10.3-8.2c-4.3-9-1.1-21.7 8-25 4.3-1.6 9.9-1.3 13.2 2.6v-15.1h10.5zm-12 34.6c1.9-2.3 2.2-6.1 1.4-9a6.1 6.1 0 0 0 -6.3-4.7c-2.8.2-5 2.4-5.6 5.4s-.2 6.7 2 8.8a5.8 5.8 0 0 0 8.5-.5zm-81.9 172.5-6.3 21.7h-5.9l-3.7-13.2-3.9 13.2h-5.9l-6.3-21.7h5.7l3.9 13.8 4.1-13.8h5.1l3.9 14 4.1-14h5.3zm3.8 20.8a8.9 8.9 0 0 1 -4-9.3 8.2 8.2 0 0 1 6.9-6.8 8.5 8.5 0 0 1 8.9 4.1 9.5 9.5 0 0 1 -1 10.3 8.8 8.8 0 0 1 -10.8 1.7zm6.6-4.6a5.2 5.2 0 0 0 .7-4.5 3.1 3.1 0 0 0 -3.2-2.4 3.2 3.2 0 0 0 -2.8 2.7 5 5 0 0 0 1 4.4 3 3 0 0 0 4.3-.3zm15.8-11a7.2 7.2 0 0 1 3-.6v5.3h-1.2a3.5 3.5 0 0 0 -2.7 1 4.4 4.4 0 0 0 -1 3.1v7.7h-5.3v-16.8h5v2a5 5 0 0 1 2.2-1.7zm21-6.5v23h-5v-1.7a5.7 5.7 0 0 1 -5.7 1.8 7.2 7.2 0 0 1 -5.2-4.1c-2.2-4.5-.6-11 4-12.6 2.2-.8 5-.6 6.7 1.3v-7.6h5.3zm-6.1 17.5a5.3 5.3 0 0 0 .7-4.5 3.1 3.1 0 0 0 -3.2-2.4 3.2 3.2 0 0 0 -2.8 2.7 5 5 0 0 0 1 4.4 2.9 2.9 0 0 0 4.3-.3z"/></symbol></defs></svg>