<svg xmlns="http://www.w3.org/2000/svg" width="214" height="48" viewBox="0 0 214 48"><title>logo</title><path d="M17.9,8.5V9l-1,2.4h2.3Z" fill="#514361"/><path d="M41.3,29.4,37.7,19a55.6,55.6,0,0,0-.8-5.6C35.3,6.3,27.5,0,19,0A18.6,18.6,0,0,0,.3,18.5,18.8,18.8,0,0,0,7.5,33.3V47.5H27.4V43.4h2.9a7.3,7.3,0,0,0,7.3-7.3h0V31.5h2.2a1.5,1.5,0,0,0,1.7-1.3V30h0ZM16.2,20.6c-8.9,0-8.8,7.5-8.8,9.2l-.6-.7A16.1,16.1,0,1,1,30.6,7.4S32.9,20.7,16.2,20.6Zm16.9,1.8a1.8,1.8,0,0,1-1.9-1.7h0a1.8,1.8,0,1,1,3.6,0A1.8,1.8,0,0,1,33.1,22.4ZM17.9,5a6.4,6.4,0,0,0,0,12.8,6.4,6.4,0,0,0,6.4-6.4h0A6.4,6.4,0,0,0,17.9,5Zm2.8,10.4-1.1-2.6H16.2l-1.1,2.6H13.4L17.9,5l4.5,10.4Z" fill="#514361"/><path d="M70,21.3V32.7a14.8,14.8,0,0,1-.1,2.1,6.5,6.5,0,0,1-3,4.5,7.8,7.8,0,0,1-6.5.5A11.3,11.3,0,0,1,57,37.5l1.9-2,.6.5,1.7,1.1a6.4,6.4,0,0,0,2,.3,4.1,4.1,0,0,0,3.3-1.5,3.3,3.3,0,0,0,.6-1.9c0-.2.1-1.3.1-1.7a7.4,7.4,0,0,1-1.3,1.2,5.6,5.6,0,0,1-3.3.8,6.5,6.5,0,0,1-6.3-6.6h0a6.7,6.7,0,0,1,2.6-5.4,6.4,6.4,0,0,1,6-1,5.4,5.4,0,0,1,2.2,1.5c0-.5.1-1,.1-1.5m-8,6.3a3.7,3.7,0,0,0,2.2,3.5,4.3,4.3,0,0,0,4.6-.7,3.9,3.9,0,0,0,0-5.5,3.8,3.8,0,0,0-3.5-1.1,3.9,3.9,0,0,0-3.3,3.8c.1.5.1-.5.1,0Zm21.4-2.9a4.8,4.8,0,0,0-2.9.9,3.3,3.3,0,0,0-1.3,2.6V34H73.5V21.3H76l.3,3.3a5.5,5.5,0,0,1,2-2.3,5,5,0,0,1,2.9-1.2Zm1.5,3.1a6.8,6.8,0,0,1,3.7-6.1,6.7,6.7,0,0,1,3.7-.7,4.8,4.8,0,0,1,3.3,1.8V21.3h3.1V34H93V32.7a5.4,5.4,0,0,1-3.3,1.6,7.2,7.2,0,0,1-3.8-.7,6.7,6.7,0,0,1-3.7-5.8Zm2.9-.2a3.7,3.7,0,0,0,2.5,3.7,3.9,3.9,0,0,0,5.1-2.1,3.8,3.8,0,0,0-.3-3.6,4.1,4.1,0,0,0-4.2-1.7,3.7,3.7,0,0,0-3,3.7Zm17.2,12.5H99.3V21.3h2.9v1.6a4.9,4.9,0,0,1,1.3-1.2,5.7,5.7,0,0,1,3.4-.7,6.1,6.1,0,0,1,5.3,3.1,7.4,7.4,0,0,1,.9,3.6,6.5,6.5,0,0,1-3.8,6.1,7.1,7.1,0,0,1-3.8.5,5.3,5.3,0,0,1-3.1-1.7m7.7-5a3.7,3.7,0,0,0-2.3-3.7,4,4,0,0,0-4.4,1.1,3.8,3.8,0,0,0,.4,5.5,3.7,3.7,0,0,0,3.2.9,3.7,3.7,0,0,0,3-3.8Zm5.9-17h2.9V24.4a6.4,6.4,0,0,1,1.8-2.5,4.9,4.9,0,0,1,3.1-.9,4.7,4.7,0,0,1,3.2,1,3.6,3.6,0,0,1,1.2,2.8V34h-2.8V26.1a2.9,2.9,0,0,0-.7-1.6,2.4,2.4,0,0,0-1.8-.7,4.1,4.1,0,0,0-1.6.3,3,3,0,0,0-1.3.9,2.6,2.6,0,0,0-.8,1.3,4.5,4.5,0,0,0-.3,1.6V34h-3V10.6Zm14.8,17a5.8,5.8,0,0,1,.5-2.6,5.1,5.1,0,0,1,1.5-2.1,6.4,6.4,0,0,1,2.2-1.4,7.5,7.5,0,0,1,2.6-.5,6.5,6.5,0,0,1,2.7.5,6.4,6.4,0,0,1,3.5,3.5,7,7,0,0,1,0,5.2,6,6,0,0,1-1.4,2.1,6.7,6.7,0,0,1-4.8,2,7.1,7.1,0,0,1-4.8-1.9,6.6,6.6,0,0,1-2-4.9h0Zm2.8,0a4,4,0,0,0,.3,1.5,2.5,2.5,0,0,0,.8,1.2,3.6,3.6,0,0,0,1.2.8,3.9,3.9,0,0,0,3,0l1.2-.8a5,5,0,0,0,.8-1.2,3.9,3.9,0,0,0,0-3,5,5,0,0,0-.8-1.2l-1.2-.8a3.9,3.9,0,0,0-3,0,3.6,3.6,0,0,0-1.2.8,2.5,2.5,0,0,0-.8,1.2,2.8,2.8,0,0,0-.4,1.5Zm16.2,12.5h-2.9V21.3h2.9m0,1.6.6-.7a5.3,5.3,0,0,1,2.1-1.1,7,7,0,0,1,5.3.8,6.1,6.1,0,0,1,2.7,4.4,7.7,7.7,0,0,1-1.1,5.3,6.7,6.7,0,0,1-4.3,2.6c-1.8.3-4.1-.1-5.3-1.6m7.7-5a3.7,3.7,0,0,0-2.3-3.6,4,4,0,0,0-4.4,1,3.8,3.8,0,0,0,.2,5.5,4,4,0,0,0,3.3,1,3.8,3.8,0,0,0,3.2-3.9c0-1-.1.6-.1,0Zm16.8,4.9a7.3,7.3,0,0,1-10.2-.6l-.4-.6a6.3,6.3,0,0,1-.8-5.8,7,7,0,0,1,3.8-4.1,6.2,6.2,0,0,1,6.3.8,7.1,7.1,0,0,1,2.3,3.4l-9.5,3.7a4,4,0,0,0,1.4,1.5,4.5,4.5,0,0,0,3.6.3,5.7,5.7,0,0,0,1.3-.8ZM171.8,25a3.3,3.3,0,0,0-3.3-1.2,3.9,3.9,0,0,0-2.8,2.3,3.2,3.2,0,0,0-.3,1.4h0Zm5,2.6a6.5,6.5,0,0,1,3.6-6.1c2.3-1.1,5.6-.9,7.1,1.3V10.6h2.9V34h-2.9V32.6a6.4,6.4,0,0,1-7.2,1.1,6.6,6.6,0,0,1-3.5-6.1c-.1-.9-.1.9-.1,0Zm2.9,0a3.7,3.7,0,0,0,2.2,3.5,4.3,4.3,0,0,0,4.6-.7,3.9,3.9,0,0,0,0-5.5,3.8,3.8,0,0,0-3.5-1.1,3.9,3.9,0,0,0-3.3,3.8c-.1.5-.1-.5-.1,0Zm14-11.3a1.8,1.8,0,0,1,3.6,0,1.8,1.8,0,0,1-1.7,1.8,1.8,1.8,0,0,1-2-1.6v-.2ZM196.8,34h-2.9V21.3h2.9Zm2.7-6.2a6.9,6.9,0,0,1,3.8-6.1c2.2-1.1,5.5-1.1,7,1.1V21.3h2.8V34h-2.9V32.7a6.1,6.1,0,0,1-1.6,1.2,5.9,5.9,0,0,1-3.2.5,6.6,6.6,0,0,1-5.1-3.1A6.2,6.2,0,0,1,199.5,27.8Zm2.9-.2a3.7,3.7,0,0,0,2.6,3.7,3.9,3.9,0,0,0,4.7-5.8,4.1,4.1,0,0,0-4.3-1.6,3.8,3.8,0,0,0-2.9,3.7Z" fill="#918da0"/></svg>