<svg enable-background="new 0 0 42 48" height="48" viewBox="0 0 42 48" width="42" xmlns="http://www.w3.org/2000/svg"><g fill="#514361"><path d="m17.5 8.5v.5l-1 2.4h2.3z"/><path d="m40.9 29.4-3.6-10.4s-.4-4.1-.8-5.6c-1.6-7.1-9.4-13.4-17.9-13.4-10.3-.1-18.6 8.2-18.7 18.5 0 5.8 2.6 11.3 7.2 14.8v14.2h19.9v-4.1h2.9c4 0 7.3-3.3 7.3-7.3v-4.6h2.2c.8.1 1.6-.5 1.7-1.3 0-.1 0-.1 0-.2zm-25.1-8.8c-8.9 0-8.8 7.5-8.8 9.2l-.6-.7c-6-6.6-5.5-16.8 1.1-22.8s16.8-5.5 22.8 1.1c-.1 0 2.2 13.3-14.5 13.2zm16.9 1.8c-1 .1-1.8-.7-1.9-1.7v-.1c0-1 .8-1.8 1.8-1.8s1.8.8 1.8 1.8-.7 1.7-1.7 1.8zm-15.2-17.4c-3.5 0-6.4 2.9-6.4 6.4s2.9 6.4 6.4 6.4 6.4-2.9 6.4-6.4c0-3.5-2.9-6.4-6.4-6.4zm2.8 10.4-1.1-2.6h-3.4l-1.1 2.6h-1.7l4.5-10.4 4.5 10.4z"/></g></svg>