<svg xmlns="http://www.w3.org/2000/svg" width="256" height="256" viewBox="0 0 256 256"><title>visual-appearance</title><path d="M76.3,117.9l26.2-49.7,17.8,36.5L138.1,93l23.8,22.6V55H76.3ZM146.5,62a8.7,8.7,0,1,1-8.7,8.7A8.7,8.7,0,0,1,146.5,62Zm86.7,89.6L213.4,99.3s-2.1-20.7-4-28.7C201.1,35,161.2,2.5,118,2.5A95.4,95.4,0,0,0,59.1,172.8v80.8H160.8V226.5h14.9A37.6,37.6,0,0,0,213.3,189V162.2h12.6a7.7,7.7,0,0,0,7.8-7.7A5.9,5.9,0,0,0,233.2,151.6Zm-65.5-22.9a6,6,0,0,1-6,6H76.3a5.9,5.9,0,0,1-5.9-6V55.1a5.9,5.9,0,0,1,5.9-6h85.4a6,6,0,0,1,6,6Z" fill="#010101"/></svg>