<svg xmlns="http://www.w3.org/2000/svg" width="256" height="256" viewBox="0 0 256 256"><title>point-in-time</title><path d="M233.1,151.4,213.5,99.8s-2.1-20.5-4-28.4C201.4,36.1,162,4,119.2,4A94.2,94.2,0,0,0,61,172.3v79.9H161.5V225.4h14.7a37.2,37.2,0,0,0,37.2-37.1h0V161.9h12.5a7.7,7.7,0,0,0,7.7-7.7h0A5.6,5.6,0,0,0,233.1,151.4Zm-113.8-5.1a50.2,50.2,0,1,1,50.2-50.2A50.1,50.1,0,0,1,119.3,146.3Zm0-90.6a40.4,40.4,0,0,0,0,80.7c22,0,40.1-18.1,40.4-40.3A40.4,40.4,0,0,0,119.3,55.7ZM116,102.9a4.3,4.3,0,0,1-2.2-3.6V71.7a3.8,3.8,0,0,1,3.9-3.9l1.3.2h0l1.2.7h0a4.2,4.2,0,0,1,1.2,3v21h.1l17.9-8a3.6,3.6,0,0,1,3.5,0h.1a3.5,3.5,0,0,1,1.3,1.4h0a3.9,3.9,0,0,1,.4,3.2,4,4,0,0,1-2,2.4l-23,10.9a4.6,4.6,0,0,1-2,.5l-1.7-.5Z" fill="#010101"/></svg>