<svg xmlns="http://www.w3.org/2000/svg" width="256" height="256" viewBox="0 0 256 256"><title>proportion</title><path d="M235.8,151.4,216.1,99.3s-2.1-20.7-4-28.6c-8.3-35.6-48-68-91.2-68A95.1,95.1,0,0,0,62.2,172.5v80.6H163.6v-27h14.9A37.5,37.5,0,0,0,216,188.6V162h12.6a7.8,7.8,0,0,0,7.7-7.8A5.8,5.8,0,0,0,235.8,151.4ZM155,55.6,135.8,74.3a26.6,26.6,0,0,0-30.4.4L87.2,55.8A53,53,0,0,1,155,55.6Zm3.5,78A52.6,52.6,0,0,1,80.7,62.9L99,81.3a26.4,26.4,0,0,0,3.1,33.7c15.7,15.6,32.4,5.1,37.5,0a26.6,26.6,0,0,0,2.8-34.2l19.2-18.2A52.7,52.7,0,0,1,158.5,133.6Z" fill="#010101"/></svg>