<svg xmlns="http://www.w3.org/2000/svg" width="256" height="256" viewBox="0 0 256 256"><title>quantity</title><path d="M236.1,153.9l-19.9-52.5s-2.2-20.9-4-29c-8.4-35.9-48.5-68.5-92-68.5A95.9,95.9,0,0,0,60.9,175.2v77.4H163.2V229.3h15.1a37.8,37.8,0,0,0,37.8-37.8V164.7h12.8a7.7,7.7,0,0,0,7.7-7.8A7.6,7.6,0,0,0,236.1,153.9ZM66.6,92.9H53A65.9,65.9,0,0,1,69,53.8l9.6,9.6A52.8,52.8,0,0,0,66.6,92.9Zm8.6-45.4a65.9,65.9,0,0,1,39.6-16.6V44.5a53.4,53.4,0,0,0-30,12.6Zm60.4,19-8.4,22.2a12.2,12.2,0,0,1,4,9,12,12,0,1,1-12.4-12l8.5-22.4a4.4,4.4,0,1,1,8.3,3.2Zm-11.9-22V30.9a65.6,65.6,0,0,1,39.5,16.5L153.6,57A52.6,52.6,0,0,0,123.7,44.5Zm48.2,48.3a53.5,53.5,0,0,0-12-29.5l9.6-9.6a66.4,66.4,0,0,1,16.1,39.1Z" fill="#010101"/></svg>