<svg xmlns="http://www.w3.org/2000/svg" width="256" height="256" viewBox="0 0 256 256"><title>relationships-between-entities</title><path d="M238,151.2,218.2,99.1s-2.1-20.6-4-28.5C206,35,166.3,2.7,123.2,2.7A94.9,94.9,0,0,0,64.6,172.3v80.5H165.8v-27h14.9a37.5,37.5,0,0,0,37.4-37.4h0V161.8h12.6a7.8,7.8,0,0,0,7.8-7.8h0A5.4,5.4,0,0,0,238,151.2ZM156.6,72.4a18.5,18.5,0,0,1-7.7-1.8L137.8,83.1a20.9,20.9,0,0,1-16.5,33.6h-.7l-4.7,21.2A14.3,14.3,0,0,1,102.1,163a14.3,14.3,0,0,1,6-26.9l4.8-21.3a20.9,20.9,0,0,1-10.6-27.4l.3-.6L88.3,76.3A13.6,13.6,0,1,1,93,69.9l14.3,10.5A20.8,20.8,0,0,1,132,77.8l11-12.5a16.6,16.6,0,0,1,27.3-19,16.8,16.8,0,0,1-4.2,23.2,17.1,17.1,0,0,1-9.5,2.9Z" fill="#010101"/></svg>