<svg xmlns="http://www.w3.org/2000/svg" width="256" height="256" viewBox="0 0 256 256"><title>spatial-location</title><path d="M100.2,102H85.4a38.6,38.6,0,0,1-1.6-11.3,40.9,40.9,0,0,1,1.4-10.5h14.9a89.8,89.8,0,0,0-.6,10.5A102.3,102.3,0,0,0,100.2,102Zm5.8,20.9a58.3,58.3,0,0,1-4.4-12.8H88.7a40.8,40.8,0,0,0,20.2,18A41.9,41.9,0,0,1,106,122.9Zm2.2-42.7a87.4,87.4,0,0,0-.6,10.5,80.1,80.1,0,0,0,.8,11.3H140a80.1,80.1,0,0,0,.8-11.3,86.7,86.7,0,0,0-.7-10.5Zm16-28.6c-5.5,0-11.4,7.9-14.5,20.5h29C135.6,59.5,129.7,51.6,124.2,51.6ZM106,58.5a50.6,50.6,0,0,1,2.9-5.2A41.1,41.1,0,0,0,88.3,72.1h13.1A58.7,58.7,0,0,1,106,58.5Zm32.5,51.6H109.9c3.1,12.1,8.9,19.7,14.3,19.7S135.3,122.2,138.5,110.1Zm1-56.8a50.6,50.6,0,0,1,2.9,5.2,63.8,63.8,0,0,1,4.5,13.6h13.2A41.1,41.1,0,0,0,139.5,53.3Zm7.3,56.8a64.1,64.1,0,0,1-4.4,12.8,41.9,41.9,0,0,1-2.9,5.2,40.1,40.1,0,0,0,20.1-18ZM238,154.8a7.8,7.8,0,0,1-7.8,7.8H217.5v26.8a37.7,37.7,0,0,1-37.7,37.7H164.7v27.3H62.6V173.2A95.8,95.8,0,0,1,121.8,2.1c43.4,0,83.5,32.6,91.8,68.5,1.9,8,4,28.8,4,28.8l19.9,52.5A5.9,5.9,0,0,1,238,154.8ZM172.7,90.7a48.5,48.5,0,1,0-48.5,48.5A48.6,48.6,0,0,0,172.7,90.7Zm-23.9,0a102.8,102.8,0,0,1-.6,11.3H163a42.3,42.3,0,0,0,1.6-11.3,40.9,40.9,0,0,0-1.4-10.5H148.3C148.6,83.6,148.8,87.1,148.8,90.7Z" fill="#010101"/></svg>