<?xml version="1.0" encoding="utf-8"?>
<!-- Generator: Adobe Illustrator 19.2.0, SVG Export Plug-In . SVG Version: 6.00 Build 0)  -->
<svg version="1.1" id="Layer_1" xmlns="http://www.w3.org/2000/svg" xmlns:xlink="http://www.w3.org/1999/xlink" x="0px" y="0px"
	 width="256px" height="256px" viewBox="0 0 256 256" style="enable-background:new 0 0 256 256;" xml:space="preserve">
<style type="text/css">
	.st0{fill:none;stroke:#000000;stroke-width:15.6;}
	.st1{fill:none;stroke:#000000;stroke-width:10.8;}
</style>
<path class="st0" d="M127.4,11C62.8,11.3,10.7,64,11,128.6c0.3,64.6,53,116.7,117.6,116.4c64.6-0.3,116.7-53,116.4-117.6
	C244.7,63.3,192.7,11.3,128.6,11H127.4z"/>
<path class="st1" d="M128,11v234 M245,128H11 M37.4,56c54.2,38.7,127,38.7,181.2,0 M218.6,200c-54.2-38.7-127-38.7-181.2,0 M119,14
	c-63.3,53.5-71.3,148.1-17.8,211.4c5.4,6.4,11.4,12.4,17.8,17.8 M137,243.2c63.3-53.5,71.3-148.1,17.8-211.4
	c-5.4-6.4-11.4-12.4-17.8-17.8"/>
</svg>
