<?xml version="1.0" encoding="utf-8"?>
<!-- Generator: Adobe Illustrator 19.2.0, SVG Export Plug-In . SVG Version: 6.00 Build 0)  -->
<svg version="1.1" id="Layer_1" xmlns="http://www.w3.org/2000/svg" xmlns:xlink="http://www.w3.org/1999/xlink" x="0px" y="0px"
	 width="256px" height="256px" viewBox="0 0 256 256" style="enable-background:new 0 0 256 256;" xml:space="preserve">
<g>
	<path d="M270,124.7l-24-0.2c-18.1-26.8-30.9-56.7-39-89.9l15.3-22.3c1.8-2.6,1.4-5.7-1-7c-2.4-1.3-5.6-0.2-7.4,2.4l-15.4,22.4
		c-28.7,8.3-62.5,9.7-104.5,4.5L82.4,15.2c-1.4-2.2-4.5-2.7-7.1-1.3c-1.3,0.7-2.2,1.8-2.6,3c-0.4,1.3-0.3,2.5,0.4,3.6l11.9,19.6
		c-5.2,16.1-12.5,31.3-21.4,45c-8.8,13.6-19.5,26.2-32,37.3l-24.2-0.3c-1.3,0-2.6,0.5-3.5,1.3c-1,0.9-1.4,2-1.4,3.2
		c0,2.5,2.2,4.5,4.9,4.5l24,0.4c20,22.7,35.1,50.9,45,83.7l-12.1,19c-1.4,2.2-0.8,5.1,1.3,6.6c2.1,1.6,4.9,1,6.3-1.2l12.3-19.2
		c30.3-5,61.7-2.5,92.4,7.4l8.6,22.7c1,2.6,3.6,3.7,6,2.5c0.8-0.4,1.4-1,1.9-1.8c1-1.5,1.2-3.5,0.6-5.2l-8.6-22.8
		c6.5-15.8,14.8-31.1,24.5-45.5c9.9-14.6,21.7-29.2,35-42.9l23.8,0.4c1.7,0,3.5-1,4.6-2.6c0.6-0.8,0.9-1.8,1.1-2.7
		C274.5,127.2,272.7,124.7,270,124.7z M190.3,42.4l-10.4,15.3c-20,5-42.7,5.9-71.4,1.9l-8.3-14.5C135.2,49.1,164.6,48.2,190.3,42.4z
		 M161.8,84.5c-10.7,2.8-23.9,2.8-39.7,0.3l-7.8-14.5c21.8,2.6,40.2,2.2,57.4-0.7L161.8,84.5z M173.4,123.6l-16.8-0.2l-3.9-8.4
		l9.8-14.7C165.8,108.8,168.9,116.4,173.4,123.6z M134.9,109.7l-7.1-14c9.7,1.2,18.2,1.1,26.3,0.3l-9.2,13.8L134.9,109.7z
		 M148.2,161.3c-8.4-1.4-17.2-1.9-25.2-0.9l9.8-15.1l8.1,0.3L148.2,161.3z M126,115.2l-5.3,7.9l-45.5-0.4c6.5-6.7,12.3-14,17.3-21.6
		c5.1-7.7,9.4-16,13.1-24.8L126,115.2z M120.9,133l3.6,7.7l-25.9,39.7c-5.8-18-14.3-34.3-24.6-48L120.9,133z M115.8,171.1
		c12.6-2.2,24.8-1.8,37.4,1.7L160,188c-17.7-4.1-35.6-5-53.2-2.9L115.8,171.1z M163.7,145.2c-2.4,3.6-4.6,7.4-6.7,11.4l-7.2-15.7
		l5-7.4l17.5,0.3C169.1,137.6,166.2,141.4,163.7,145.2z M171.5,150.5c3.7-5.7,8.2-11.1,13.2-16.5l16.8,0.3c-7,7.9-13.4,16-18.8,24.3
		c-5.4,8-10.1,16.3-14.1,24.9l-6.6-15.3C164.7,161.9,167.8,156,171.5,150.5z M186,123.8c-7.3-10.3-12.9-22.1-15.9-34.6l10.3-15.3
		c5.6,18.1,12.8,34.7,22.6,50L186,123.8z M72,89.6c7.7-11.8,14.3-24.7,19.5-38.3L99.4,65c-3.8,11.2-8.9,21.8-15.2,31.3
		c-6.2,9.5-13.7,18.3-22.5,26.3l-16.6-0.1C55.3,112.4,64.3,101.3,72,89.6z M82.8,205c-9.3-28.1-22.2-52.6-38.8-73.2l17.3,0.3
		c13.5,16,23.3,35.4,30.7,58.6L82.8,205z M90.7,209.9l8.9-14c22.1-3.5,43.2-2.6,65.2,4l6.5,15.9C144.7,208.3,117.5,206.6,90.7,209.9
		z M201.8,172.4c-8.3,12.4-15.6,25.5-21.7,38.8l-6.5-15.9c4.6-10.9,10.2-21.4,16.8-31.3c6.7-10.1,14.8-19.9,23.9-29.5l17.2,0.3
		C220.4,147.1,210.4,159.7,201.8,172.4z M215.8,124.1c-12.8-18.4-22.4-39.4-27.6-61.8L199,46.4c7.6,28.2,19.1,54.2,34.2,77.9
		L215.8,124.1z"/>
</g>
</svg>
