<?xml version="1.0" encoding="utf-8"?>
<!-- Generator: Adobe Illustrator 19.2.0, SVG Export Plug-In . SVG Version: 6.00 Build 0)  -->
<svg version="1.1" id="Layer_1" xmlns="http://www.w3.org/2000/svg" xmlns:xlink="http://www.w3.org/1999/xlink" x="0px" y="0px"
	 width="256px" height="256px" viewBox="0 0 256 256" style="enable-background:new 0 0 256 256;" xml:space="preserve">
<style type="text/css">
	.st0{fill:#FFFFFF;}
	.st1{fill:none;stroke:#000000;stroke-width:16.4147;stroke-miterlimit:10;}
	.st2{fill:none;stroke:#000000;stroke-width:7;stroke-miterlimit:10;}
	.st3{fill:none;stroke:#FFFFFF;stroke-width:7;stroke-miterlimit:10;}
</style>
<circle class="st0" cx="98" cy="39" r="0"/>
<circle class="st1" cx="127.4" cy="45" r="20.8"/>
<rect x="67.8" y="54.6" transform="matrix(0.8759 0.4826 -0.4826 0.8759 69.9876 -22.5956)" width="22.2" height="140.3"/>
<rect x="164.5" y="54.6" transform="matrix(-0.8759 0.4826 -0.4826 -0.8759 389.5498 149.2534)" width="22.2" height="140.3"/>
<line class="st2" x1="209.7" y1="185.2" x2="217.7" y2="200.4"/>
<line class="st2" x1="45.4" y1="185.2" x2="37.4" y2="200.4"/>
<rect x="4" y="217" width="245" height="34"/>
<line class="st3" x1="21.3" y1="217.2" x2="21.3" y2="236.1"/>
<line class="st3" x1="233" y1="217.2" x2="233" y2="236.1"/>
<line class="st3" x1="162.4" y1="217.2" x2="162.4" y2="236.1"/>
<line class="st3" x1="91.9" y1="217.2" x2="91.9" y2="236.1"/>
<line class="st3" x1="127.2" y1="217.2" x2="127.2" y2="227.8"/>
<line class="st3" x1="56.6" y1="217.2" x2="56.6" y2="227.8"/>
<line class="st3" x1="197.7" y1="217.2" x2="197.7" y2="227.8"/>
<rect x="120.5" y="7.4" width="15" height="12.1"/>
</svg>
